<?xml version="1.0" encoding="UTF-8" standalone="no"?>
<svg width="64px" height="65px" viewBox="0 0 64 65" version="1.1" xmlns="http://www.w3.org/2000/svg" xmlns:xlink="http://www.w3.org/1999/xlink">
    <!-- Generator: Sketch 48.2 (47327) - http://www.bohemiancoding.com/sketch -->
    <title>BTC</title>
    <desc>Created with Sketch.</desc>
    <defs></defs>
    <g id="ORDER-PAYMENT" stroke="none" stroke-width="1" fill="none" fill-rule="evenodd" transform="translate(-989.000000, -1209.000000)">
        <g id="Credit-card-OPEN" transform="translate(-1.000000, 878.000000)">
            <g id="Crypto-Closed-Copy" transform="translate(0.000000, 306.000000)">
                <g id="Crypto-deposit">
                    <g id="Crypto" transform="translate(871.000000, 25.000000)">
                        <g id="BTC" transform="translate(119.000000, 0.000000)">
                            <path d="M63.7281751,32.6605274 C63.7281751,50.5206517 49.4727323,64.9988358 31.8873791,64.9988358 C14.3020259,64.9988358 0.0465830846,50.5206517 0.0465830846,32.6605274 C0.0465830846,14.800403 14.3020259,0.322218905 31.8873791,0.322218905 C49.4727323,0.322218905 63.7281751,14.800403 63.7281751,32.6605274" id="Fill-504" fill="#F7931A"></path>
                            <path d="M39.6182289,42.111592 C39.3517214,43.0212687 38.7521592,43.7708706 37.9300299,44.2223134 C37.1079005,44.674403 36.1622289,44.774005 35.2665473,44.50301 L26.2998607,41.790796 L28.2975522,34.9793781 L37.263602,37.6919154 L37.2639204,37.6919154 C39.112597,38.2510448 40.1690746,40.2337065 39.6182289,42.111592 M42.6424677,28.1527612 C43.0869652,28.9877363 43.1850348,29.9481841 42.9185274,30.8581841 C42.3676816,32.7354229 40.4145672,33.8077612 38.5668458,33.249602 L38.5665274,33.249602 L29.6001592,30.5373881 L31.5972139,23.7259701 L40.5639005,26.4381841 C41.4595821,26.7091791 42.1976517,27.3177861 42.6424677,28.1527612 M46.6563184,25.9472886 C45.6313632,24.0234826 43.9301095,22.62 41.8665075,21.9958706 L40.6801194,21.6372388 L42.3409353,15.9735075 L38.0796816,14.6845025 L36.4188657,20.3482338 L32.7807363,19.2477612 L34.4418706,13.5840299 L33.4210547,13.275199 L29.2855721,12.0243532 L27.6846169,17.4837065 L22.6448557,15.9592786 L21.2225274,20.8100249 L26.2622886,22.3347761 L21.0846567,39.9908458 L16.0448955,38.4664179 L14.6225672,43.3174876 L19.66201,44.841592 L18.311005,49.4494776 L19.3315025,49.7583085 L23.4669851,51.0091542 L24.8781692,46.1968905 L28.5248955,47.2999502 L27.1137114,52.1125373 L31.3577711,53.3963682 L32.7689552,48.5837811 L33.9636219,48.945 C34.7252537,49.1752488 35.5031244,49.289403 36.2762189,49.289403 C37.5976119,49.289403 38.9065871,48.955995 40.1015721,48.299204 C41.9957811,47.2582338 43.3773532,45.5307214 43.992199,43.4342289 C44.6385672,41.2290796 44.3195224,38.9637811 43.2913831,37.0991542 C45.1578905,36.1099254 46.6451741,34.3872637 47.2921791,32.1811443 C47.9070249,30.0846517 47.6809552,27.8707711 46.6563184,25.9472886" id="Fill-505" fill="#FFFFFF"></path>
                        </g>
                    </g>
                </g>
            </g>
        </g>
    </g>
</svg>