<svg xmlns="http://www.w3.org/2000/svg" viewBox="0 0 196.3 195.57"><defs><style>.cls-1{fill:#fff;}</style></defs><title>Icon-coin-lwf</title><g id="Layer_2" data-name="Layer 2"><g id="Layer_1-2" data-name="Layer 1"><path class="cls-1" d="M98.12,6.94h1.63a90.86,90.86,0,0,1-1.57,181.7H96.55A90.86,90.86,0,0,1,98.12,6.94m0-6.94h0a97.79,97.79,0,0,0-1.69,195.57h1.75A97.79,97.79,0,0,0,99.87,0Z"/><path class="cls-1" d="M115.27,178.62l-.82-3.88a78.65,78.65,0,0,0,60.32-59.2l3.86.89a82.61,82.61,0,0,1-63.36,62.18Z"/><path class="cls-1" d="M170,65.81A78.65,78.65,0,0,0,73.85,23l-1.23-3.77a82.61,82.61,0,0,1,101,45Z"/><path class="cls-1" d="M64.76,172.88A81.93,81.93,0,0,1,41.1,156.94c-30.39-29.32-33.39-78-6.83-110.82l3.06,2.49c-25.27,31.24-22.42,77.57,6.5,105.47a78,78,0,0,0,22.5,15.18Z"/><path class="cls-1" d="M138.77,100.62a40.37,40.37,0,0,0-3.31-4c-1.15-1.26-2.34-2.43-3.54-3.58a84.57,84.57,0,0,0-7.52-6.28,107,107,0,0,0-16.34-10,108.88,108.88,0,0,0-17.8-7,85.52,85.52,0,0,0-9.54-2.23c-1.64-.27-3.29-.52-5-.68a40.88,40.88,0,0,0-5.21-.23A10.51,10.51,0,1,1,78.78,50a40.87,40.87,0,0,0,3.32,4c1.15,1.26,2.34,2.43,3.54,3.57a85.52,85.52,0,0,0,7.52,6.27,108.88,108.88,0,0,0,16.32,10,107,107,0,0,0,17.78,7,84.63,84.63,0,0,0,9.54,2.22c1.64.27,3.29.51,5,.67A40.35,40.35,0,0,0,147,84a10.53,10.53,0,1,1,.69,21A10.64,10.64,0,0,1,138.77,100.62Z"/><path class="cls-1" d="M157.72,97.66a10.61,10.61,0,0,0-20.39-5.86,44.12,44.12,0,0,1-2.67,6.92,13.24,13.24,0,0,0,9.21,8.68,43.92,43.92,0,0,1,6.57-2.5A10.7,10.7,0,0,0,157.72,97.66Z"/><path class="cls-1" d="M133.07,109.44a20.47,20.47,0,0,1-2.67-3.16l-.28.44a81,81,0,0,1-10.05,12.11,82.4,82.4,0,0,1-12.13,10,54.75,54.75,0,0,1-14.88,7.28,10.68,10.68,0,0,0-7.18,7.18,10.57,10.57,0,0,0,20.28,5.93,54.76,54.76,0,0,1,7.28-14.88,82.43,82.43,0,0,1,10-12.13,81,81,0,0,1,12.11-10.05l.52-.34A20.83,20.83,0,0,1,133.07,109.44Z"/><path class="cls-1" d="M164,85.49a18.93,18.93,0,0,0-25.66-7.63l-.08,0a19.17,19.17,0,0,0-3.43,2.39l-.4.35c.93.19,1.85.38,2.77.53s1.86.29,2.89.43h.05l.09-.06a14.86,14.86,0,1,1-7.63,14.91l-2-2c-.6-.6-1.39-1.28-2.11-1.91v.56a19,19,0,0,0,17.49,20.4q.82.06,1.65.05h0A19,19,0,0,0,164,85.49Z"/><path class="cls-1" d="M80.39,69.5c-1.14-.19-2.47-.39-3.86-.55a14.85,14.85,0,1,1-6.61-28.13,14.84,14.84,0,0,1,14.7,12.93c.86.9,1.72,1.72,2.47,2.44q.82.77,1.68,1.53V57.4A19,19,0,0,0,71.54,36.79q-.82-.07-1.65-.08h0a19,19,0,1,0,12.3,33.43l.26-.22C81.75,69.75,81.07,69.62,80.39,69.5Z"/><path class="cls-1" d="M113.33,138.86l-.06-.15q-1.49,2.46-2.73,5.05v.09A14.84,14.84,0,0,1,98.48,161h0a15.08,15.08,0,0,1-2.58.22A14.86,14.86,0,1,1,99,131.85h.14l.13-.06c.76-.38,1.56-.8,2.46-1.28l1.62-.92.7-.4-.74-.31a18.81,18.81,0,0,0-7.34-1.49,19,19,0,0,0,0,38,19.25,19.25,0,0,0,3.29-.29,19,19,0,0,0,14.16-26.19Z"/></g></g></svg>