<?xml version="1.0" encoding="UTF-8" standalone="no"?>
<svg width="37px" height="40px" viewBox="0 0 37 40" version="1.1" xmlns="http://www.w3.org/2000/svg" xmlns:xlink="http://www.w3.org/1999/xlink">
    <!-- Generator: Sketch 48.2 (47327) - http://www.bohemiancoding.com/sketch -->
    <title>Lwf-services-iconmap-selected</title>
    <desc>Created with Sketch.</desc>
    <defs></defs>
    <g id="Homepage-Logged-BUYER" stroke="none" stroke-width="1" fill="none" fill-rule="evenodd" transform="translate(-88.000000, -966.000000)">
        <g id="NEW-ORDER" transform="translate(0.000000, 732.000000)" fill="#FFB219" fill-rule="nonzero">
            <g id="Freight-forwarder" transform="translate(0.000000, 123.000000)">
                <g id="Place" transform="translate(88.000000, 111.000000)">
                    <g id="map-selected">
                        <path d="M33,19 C33.1666667,19.8333333 33.3333333,20.8333333 33.3333333,21.6666667 C33.3333333,24 32.8333333,26.3333333 31.8333333,28.3333333 C28.5,30.1666667 27,29.1666667 25.5,28 C24.5,27.1666667 23,26.1666667 21.1666667,26.8333333 C19.3333333,27.5 18,29 17.1666667,30.8333333 C16.5,32.5 16.3333333,34.6666667 16.6666667,36.6666667 C13.3333333,36.3333333 10.3333333,34.8333333 8.16666667,32.6666667 C9.33333333,30.1666667 9.33333333,27.6666667 7.83333333,25.5 C7.5,24.8333333 7,24.3333333 6.5,23.8333333 C5.66666667,23 6,21.5 7,21 C8.33333333,20.3333333 9.83333333,19.6666667 10.8333333,18.3333333 C12.8333333,15.3333333 10.5,11 10,10.1666667 C9.83333333,10 9.66666667,9.83333333 9.5,9.5 C11.1666667,8.33333333 13,7.5 15,7 C15.1666667,5.66666667 15.5,4.5 16,3.5 C7,4.66666667 0,12.3333333 0,21.6666667 C0,31.8333333 8.16666667,40 18.3333333,40 C28.5,40 36.6666667,31.8333333 36.6666667,21.6666667 C36.6666667,19.6666667 36.3333333,17.6666667 35.6666667,15.6666667 C34.8333333,16.8333333 34,18 33,19 Z" id="Shape"></path>
                        <path d="M26.6666667,0 C22.5,0 18.3333333,3.16666667 18.3333333,8.33333333 C18.3333333,13 24.8333333,19 25.5,19.5 C25.8333333,19.8333333 26.1666667,20 26.6666667,20 C27.1666667,20 27.5,19.8333333 27.8333333,19.5 C28.5,19 35,13 35,8.33333333 C35,3.16666667 30.8333333,0 26.6666667,0 Z M26.6666667,11.6666667 C24.8333333,11.6666667 23.3333333,10.1666667 23.3333333,8.33333333 C23.3333333,6.5 24.8333333,5 26.6666667,5 C28.5,5 30,6.5 30,8.33333333 C30,10.1666667 28.5,11.6666667 26.6666667,11.6666667 Z" id="Shape"></path>
                    </g>
                </g>
            </g>
        </g>
    </g>
</svg>