<?xml version="1.0" encoding="UTF-8" standalone="no"?>
<svg width="40px" height="40px" viewBox="0 0 40 40" version="1.1" xmlns="http://www.w3.org/2000/svg" xmlns:xlink="http://www.w3.org/1999/xlink">
    <!-- Generator: Sketch 48.2 (47327) - http://www.bohemiancoding.com/sketch -->
    <title>Lwf-services-iconICONA WEIGHT</title>
    <desc>Created with Sketch.</desc>
    <defs></defs>
    <g id="Homepage-Logged-BUYER" stroke="none" stroke-width="1" fill="none" fill-rule="evenodd" transform="translate(-654.000000, -1095.000000)">
        <g id="NEW-ORDER" transform="translate(0.000000, 732.000000)" fill="#FFB219">
            <g id="Freight-forwarder" transform="translate(0.000000, 123.000000)">
                <g id="peso" transform="translate(654.000000, 240.000000)">
                    <g id="ICONA-WEIGHT">
                        <path d="M4.16666667,19.917103 C4.16666667,28.6113438 11.26,35.6675393 20,35.6675393 C28.74,35.6675393 35.8333333,28.6113438 35.8333333,19.917103 C35.8333333,11.2228621 28.74,4.16666667 20,4.16666667 C11.26,4.16666667 4.16666667,11.2228621 4.16666667,19.917103 L4.16666667,19.917103 Z M0.468099415,19.917103 C0.468099415,9.19525931 9.22172559,0.487463642 20,0.487463642 C30.7782744,0.487463642 39.5319006,9.19525931 39.5319006,19.917103 C39.5319006,30.6389466 30.7782744,39.3467423 20,39.3467423 C9.22172559,39.3467423 0.468099415,30.6389466 0.468099415,19.917103 L0.468099415,19.917103 Z" id="Shape"></path>
                        <ellipse id="Oval" cx="20" cy="26.2172775" rx="3.16666667" ry="3.15008726"></ellipse>
                        <rect id="Rectangle" x="18.9444444" y="16.7670157" width="2.11111111" height="10.5002909"></rect>
                        <rect id="Rectangle" x="18.9444444" y="8.36678301" width="2.11111111" height="2.10005817"></rect>
                        <rect id="Rectangle" x="29.5" y="16.7670157" width="2.11111111" height="2.10005817"></rect>
                        <rect id="Rectangle" x="12.6111111" y="10.4668412" width="2.11111111" height="2.10005817"></rect>
                        <rect id="Rectangle" x="8.38888889" y="16.7670157" width="2.11111111" height="2.10005817"></rect>
                        <rect id="Rectangle" x="25.2777778" y="10.4668412" width="2.11111111" height="2.10005817"></rect>
                    </g>
                </g>
            </g>
        </g>
    </g>
</svg>