<?xml version="1.0" encoding="UTF-8" standalone="no"?>
<svg width="35px" height="37px" viewBox="0 0 35 37" version="1.1" xmlns="http://www.w3.org/2000/svg" xmlns:xlink="http://www.w3.org/1999/xlink">
    <!-- Generator: Sketch 48.2 (47327) - http://www.bohemiancoding.com/sketch -->
    <title>Lwf-services-iconShape</title>
    <desc>Created with Sketch.</desc>
    <defs></defs>
    <g id="Homepage-Logged-BUYER" stroke="none" stroke-width="1" fill="none" fill-rule="evenodd" transform="translate(-656.000000, -967.000000)">
        <g id="NEW-ORDER" transform="translate(0.000000, 732.000000)" fill="#FFB219">
            <g id="Freight-forwarder" transform="translate(0.000000, 123.000000)">
                <g id="misura" transform="translate(654.000000, 112.000000)">
                    <path d="M1.16097403,10.8551948 L6.21883117,10.8551948 L6.21883117,13.3201299 L1.00454545,13.3201299 L1.00454545,15.7850649 L3.61168831,15.7850649 L3.61168831,18.25 L1.00454545,18.25 L1.00454545,20.7149351 L6.21883117,20.7149351 L6.21883117,23.1798701 L1.00454545,23.1798701 L1.00454545,25.6448052 L3.61168831,25.6448052 L3.61168831,28.1097403 L1.00454545,28.1097403 L1.00454545,30.5746753 L6.21883117,30.5746753 L6.21883117,33.0396104 L1.00454545,33.0396104 L1.00454545,35.5045455 L11.4331169,35.5045455 L11.4331169,10.8551948 L37.5045455,10.8551948 L37.5045455,0.995454545 L34.8974026,0.995454545 L34.8974026,5.92532468 L32.2902597,5.92532468 L32.2902597,0.995454545 L29.6831169,0.995454545 L29.6831169,3.46038961 L27.075974,3.46038961 L27.075974,0.995454545 L24.4688312,0.995454545 L24.4688312,5.92532468 L21.8616883,5.92532468 L21.8616883,0.995454545 L19.2545455,0.995454545 L19.2545455,3.46038961 L16.6474026,3.46038961 L16.6474026,0.995454545 L14.0402597,0.995454545 L14.0402597,5.92532468 L11.4331169,5.92532468 L11.4331169,1.168 C6.19275974,1.95677922 1.96918831,5.90067532 1.16097403,10.8551948 Z" id="Shape" transform="translate(19.254545, 18.250000) rotate(-90.000000) translate(-19.254545, -18.250000) "></path>
                </g>
            </g>
        </g>
    </g>
</svg>