<?xml version="1.0" encoding="UTF-8" standalone="no"?>
<svg width="39px" height="39px" viewBox="0 0 39 39" version="1.1" xmlns="http://www.w3.org/2000/svg" xmlns:xlink="http://www.w3.org/1999/xlink">
    <!-- Generator: Sketch 48.2 (47327) - http://www.bohemiancoding.com/sketch -->
    <title>Lwf-services-iconFill 131 + Fill 132</title>
    <desc>Created with Sketch.</desc>
    <defs></defs>
    <g id="Homepage-Logged-BUYER" stroke="none" stroke-width="1" fill="none" fill-rule="evenodd" transform="translate(-657.000000, -1237.000000)">
        <g id="NEW-ORDER" transform="translate(0.000000, 732.000000)" fill="#FFB219">
            <g id="Freight-forwarder" transform="translate(0.000000, 123.000000)">
                <g id="buy-by" transform="translate(657.000000, 382.000000)">
                    <g id="Fill-131-+-Fill-132">
                        <path d="M27.7222222,9.07725 L25.6390556,6.976125 C25.3248889,6.65925 24.9124444,6.5 24.5,6.5 C24.0875556,6.5 23.6751111,6.65925 23.3609444,6.976125 L21.2777778,9.07725 L21.2777778,3.25 L27.7222222,3.25 L27.7222222,9.07725 Z M35.7777778,0 L13.2222222,0 C11.4451667,0 10,1.457625 10,3.25 L10,17.875 L13.2222222,17.875 L13.2222222,3.25 L18.0555556,3.25 L18.0555556,13 C18.0555556,13.6565 18.4486667,14.249625 19.0496111,14.5015 C19.6505556,14.753375 20.3433333,14.613625 20.8057222,14.1505 L24.5,10.424375 L28.1942778,14.1505 C28.502,14.460875 28.9144444,14.625 29.3333333,14.625 C29.5411667,14.625 29.7506111,14.584375 29.9503889,14.5015 C30.5513333,14.249625 30.9444444,13.6565 30.9444444,13 L30.9444444,3.25 L35.7777778,3.25 L35.7729444,22.75 L24.5,22.75 L24.5,26 L35.7777778,26 C37.5548333,26 39,24.542375 39,22.75 L39,3.25 C39,1.457625 37.5548333,0 35.7777778,0 L35.7777778,0 Z" id="Fill-131"></path>
                        <path d="M27.5,34 L10,34 L10,27.3337372 L17.49,25 L17.9716667,25.9035832 L15.4883333,28.2248572 C15.17,28.5224165 15.0166667,28.9227973 15.015,29.3262939 L15,29.3262939 L15,30.8841959 L30,30.8841959 L27.5,34 Z M3,26 L6,26 L6,36 L3,36 L3,26 Z M33.3331495,27.5452149 L20.6898859,27.5452149 L21.1782166,27.0673867 C21.6848804,26.5682853 21.8115464,25.8073603 21.4915482,25.1773472 L19.8248907,21.9045514 C19.4532261,21.1763544 18.5965641,20.8261652 17.8065685,21.0847161 L9.87827887,23.6784067 C9.63494688,23.0696667 9.0382835,22.6360213 8.33328739,22.6360213 L1.66665748,22.6360213 C0.74666255,22.6360213 0,23.3691275 0,24.2724191 L0,37.3636021 C0,38.2668938 0.74666255,39 1.66665748,39 L8.33328739,39 C9.25328231,39 9.99994486,38.2668938 9.99994486,37.3636021 L28.3331771,37.3636021 C28.8581742,37.3636021 29.3515048,37.1214152 29.6665031,36.7106794 L34.6664755,30.1650879 C35.0448068,29.6692593 35.1064731,29.0048818 34.824808,28.4501429 C34.5414762,27.895404 33.9648127,27.5452149 33.3331495,27.5452149 L33.3331495,27.5452149 Z" id="Fill-132"></path>
                    </g>
                </g>
            </g>
        </g>
    </g>
</svg>