<?xml version="1.0" encoding="UTF-8" standalone="no"?>
<svg width="27px" height="40px" viewBox="0 0 27 40" version="1.1" xmlns="http://www.w3.org/2000/svg" xmlns:xlink="http://www.w3.org/1999/xlink">
    <!-- Generator: Sketch 48.2 (47327) - http://www.bohemiancoding.com/sketch -->
    <title>Fill 366 + Fill 367LWF-services-icon</title>
    <desc>Created with Sketch.</desc>
    <defs></defs>
    <g id="Homepage-Logged-BUYER" stroke="none" stroke-width="1" fill="none" fill-rule="evenodd" transform="translate(-648.000000, -1071.000000)">
        <g id="Fill-366-+-Fill-367" transform="translate(661.157895, 1091.000000) rotate(-180.000000) translate(-661.157895, -1091.000000) translate(648.000000, 1071.000000)" fill="#FFB219">
            <path d="M13.15625,29.9966667 C7.70723684,29.9966667 3.28782895,25.52 3.28782895,19.9966667 C3.28782895,14.4766667 7.70723684,9.99666667 13.15625,9.99666667 C18.6069079,9.99666667 23.0246711,14.4766667 23.0246711,19.9966667 C23.0246711,25.52 18.6069079,29.9966667 13.15625,29.9966667 L13.15625,29.9966667 Z M16.8519737,36.6666667 L9.46381579,36.6666667 L8.25,32.3616667 C9.76973684,32.9833333 11.4226974,33.3333333 13.1578947,33.3333333 C14.8930921,33.3333333 16.5476974,32.9833333 18.0657895,32.3616667 L16.8519737,36.6666667 Z M9.46381579,3.33333333 L16.8519737,3.33333333 L18.0657895,7.63833333 C16.5476974,7.01666667 14.8930921,6.66666667 13.1578947,6.66666667 C11.4226974,6.66666667 9.76973684,7.01666667 8.25,7.63833333 L9.46381579,3.33333333 Z M22.2648026,10.4 L19.3322368,0 L6.98355263,0 L4.05098684,10.4 C1.55921053,12.8283333 0,16.23 0,20 C0,23.7716667 1.55921053,27.175 4.05098684,29.6016667 L6.98355263,40 L19.3322368,40 L22.2648026,29.6016667 C24.7565789,27.175 26.3157895,23.7716667 26.3157895,20 C26.3157895,16.23 24.7565789,12.8283333 22.2648026,10.4 L22.2648026,10.4 Z" id="Fill-366"></path>
            <polygon id="Fill-367" points="8.42105263 25.2631579 13.6842105 14.7368421 18.9473684 25.2631579 13.6842105 21.754386"></polygon>
        </g>
    </g>
</svg>