<?xml version="1.0" encoding="UTF-8" standalone="no"?>
<svg width="29px" height="36px" viewBox="0 0 29 36" version="1.1" xmlns="http://www.w3.org/2000/svg" xmlns:xlink="http://www.w3.org/1999/xlink">
    <!-- Generator: Sketch 48.2 (47327) - http://www.bohemiancoding.com/sketch -->
    <title>Lwf-services-iconFill 576</title>
    <desc>Created with Sketch.</desc>
    <defs></defs>
    <g id="Homepage-Logged-BUYER" stroke="none" stroke-width="1" fill="none" fill-rule="evenodd" transform="translate(-92.000000, -1230.000000)">
        <g id="NEW-ORDER" transform="translate(0.000000, 732.000000)" fill="#FFB219">
            <g id="Freight-forwarder" transform="translate(0.000000, 123.000000)">
                <g id="valore" transform="translate(90.000000, 375.000000)">
                    <path d="M16.5,31.2 C11.8696667,31.2 7.60183333,29.556 6.83333333,28.5936 L6.83333333,26.9304 C10.0233333,28.2648 14.0470833,28.8 16.5,28.8 C18.9529167,28.8 22.9766667,28.2648 26.1666667,26.9304 L26.1666667,28.5936 C25.3981667,29.556 21.1303333,31.2 16.5,31.2 L16.5,31.2 Z M16.5,4.8 C20.81375,4.8 24.8109167,6.2256 25.9588333,7.2 C24.8109167,8.1744 20.8113333,9.6 16.5,9.6 C12.1886667,9.6 8.18908333,8.1744 7.04116667,7.2 C8.18908333,6.2256 12.18625,4.8 16.5,4.8 L16.5,4.8 Z M26.1666667,21.3648 C25.4658333,22.3248 21.1786667,24 16.5,24 C11.8213333,24 7.53416667,22.3248 6.83333333,21.3648 L6.83333333,19.7304 C10.0233333,21.0648 14.0470833,21.6 16.5,21.6 C18.9529167,21.6 22.9766667,21.0648 26.1666667,19.7304 L26.1666667,21.3648 Z M26.1666667,14.1648 C25.4658333,15.1248 21.1786667,16.8 16.5,16.8 C11.8213333,16.8 7.53416667,15.1248 6.83333333,14.1648 L6.83333333,12.5304 C10.0233333,13.8648 14.0470833,14.4 16.5,14.4 C18.9529167,14.4 22.9766667,13.8648 26.1666667,12.5304 L26.1666667,14.1648 Z M2,7.2 L2,28.8 C2,34.188 11.9590833,36 16.5,36 C21.0409167,36 31,34.188 31,28.8 L31,7.2 C31,1.8144 21.0409167,0 16.5,0 C11.9590833,0 2,1.8144 2,7.2 Z" id="Fill-576"></path>
                </g>
            </g>
        </g>
    </g>
</svg>