<?xml version="1.0" encoding="UTF-8" standalone="no"?>
<svg width="31px" height="34px" viewBox="0 0 31 34" version="1.1" xmlns="http://www.w3.org/2000/svg" xmlns:xlink="http://www.w3.org/1999/xlink">
    <!-- Generator: Sketch 48.2 (47327) - http://www.bohemiancoding.com/sketch -->
    <title>todayLWF-services-icon</title>
    <desc>Created with Sketch.</desc>
    <defs></defs>
    <g id="Homepage-Logged-BUYER" stroke="none" stroke-width="1" fill="none" fill-rule="evenodd" transform="translate(-645.000000, -969.000000)">
        <g id="today" transform="translate(645.000000, 969.000000)" fill="#FFB219">
            <path d="M27.5555556,3.4 L25.8333333,3.4 L25.8333333,0 L22.3888889,0 L22.3888889,3.4 L8.61111111,3.4 L8.61111111,0 L5.16666667,0 L5.16666667,3.4 L3.44444444,3.4 C1.55,3.4 0,4.93 0,6.8 L0,30.6 C0,32.47 1.55,34 3.44444444,34 L27.5555556,34 C29.45,34 31,32.47 31,30.6 L31,6.8 C31,4.93 29.45,3.4 27.5555556,3.4 L27.5555556,3.4 Z M27.5555556,30.6 L3.44444444,30.6 L3.44444444,11.9 L27.5555556,11.9 L27.5555556,30.6 L27.5555556,30.6 Z" id="Shape"></path>
            <rect id="Rectangle-path" x="7" y="15" width="9" height="9"></rect>
        </g>
    </g>
</svg>