<?xml version="1.0" encoding="UTF-8" standalone="no"?>
<svg width="30px" height="24px" viewBox="0 0 30 24" version="1.1" xmlns="http://www.w3.org/2000/svg" xmlns:xlink="http://www.w3.org/1999/xlink">
    <!-- Generator: Sketch 48.2 (47327) - http://www.bohemiancoding.com/sketch -->
    <title>ShapeLWF_services-icon</title>
    <desc>Created with Sketch.</desc>
    <defs></defs>
    <g id="SERVICES---LIST" stroke="none" stroke-width="1" fill="none" fill-rule="evenodd" transform="translate(-949.000000, -1460.000000)">
        <g id="PACK-COLL-Annuncio-Copy" transform="translate(-9.000000, 1420.000000)" fill="#FFB219">
            <g id="Option" transform="translate(883.000000, 1.000000)">
                <path d="M75.4878425,50.4961217 C74.8129088,51.2560289 74.8504051,52.7758433 75.5253389,53.5157529 L83.7557809,62.4146661 C84.4494628,63.1745733 85.8368266,63.1945708 86.5492566,62.4746588 L87.8616278,61.1348224 L90.6925999,58.2351765 L104.453749,44.2368861 C105.166179,43.516974 105.184927,42.0371548 104.491245,41.2972451 L102.897652,39.5574576 C102.20397,38.817548 100.816606,38.817548 100.122924,39.53746 L86.6617456,53.8757089 C85.9680637,54.6156186 84.5806999,54.595621 83.9057661,53.8557114 L79.424956,49.0363 C78.7500223,48.2763928 77.4001548,48.2963903 76.7252211,49.0762951 L75.4878425,50.4961217 L75.4878425,50.4961217 Z" id="Shape"></path>
            </g>
        </g>
    </g>
</svg>