<?xml version="1.0" encoding="UTF-8" standalone="no"?>
<svg width="32px" height="31px" viewBox="0 0 32 31" version="1.1" xmlns="http://www.w3.org/2000/svg" xmlns:xlink="http://www.w3.org/1999/xlink">
    <!-- Generator: Sketch 48.2 (47327) - http://www.bohemiancoding.com/sketch -->
    <title>BTC iconLWF_services-icon</title>
    <desc>Created with Sketch.</desc>
    <defs></defs>
    <g id="SERVICES---LIST" stroke="none" stroke-width="1" fill="none" fill-rule="evenodd" transform="translate(-1126.000000, -1456.000000)">
        <g id="PACK-COLL-Annuncio-Copy" transform="translate(-9.000000, 1420.000000)" fill="#FFB219">
            <g id="Price" transform="translate(1061.000000, 0.000000)">
                <g id="BTC-icon" transform="translate(74.000000, 36.000000)">
                    <g id="Fill-583-+-Fill-584">
                        <path d="M28.7181333,19.202816 L25.8808,19.202816 C26.3834667,18.016256 26.6661333,16.720896 26.6661333,15.362816 C26.6661333,14.004736 26.3834667,12.710656 25.8808,11.522816 L28.7181333,11.522816 C29.1168,12.736256 29.3328,14.025216 29.3328,15.362816 C29.3328,16.700416 29.1168,17.990656 28.7181333,19.202816 M20.3114667,27.461376 C20.8034667,26.753536 23.7594667,22.424576 24.3128,21.762816 L27.5288,21.762816 C25.9274667,24.409856 23.3714667,26.454016 20.3114667,27.461376 M15.3581333,28.129536 L13.3768,25.277696 C14.2168,25.482496 15.0928,25.602816 15.9994667,25.602816 C16.9074667,25.602816 17.7821333,25.482496 18.6234667,25.277696 L16.6408,28.129536 C16.4274667,28.141056 16.2168,28.161536 15.9994667,28.161536 C15.7834667,28.161536 15.5728,28.141056 15.3581333,28.129536 M4.47146667,21.762816 L7.68746667,21.762816 C8.2408,22.424576 11.1968,26.753536 11.6888,27.461376 C8.6288,26.454016 6.0728,24.409856 4.47146667,21.762816 M3.2808,11.522816 L6.11813333,11.522816 C5.61546667,12.710656 5.3328,14.004736 5.3328,15.362816 C5.3328,16.720896 5.61546667,18.016256 6.11813333,19.202816 L3.28213333,19.202816 C2.88346667,17.990656 2.66613333,16.700416 2.66613333,15.362816 C2.66613333,14.025216 2.88346667,12.736256 3.2808,11.522816 M11.6901333,3.262976 C11.1968,3.972096 8.2408,8.302336 7.68746667,8.962816 L4.47013333,8.962816 C6.07146667,6.315776 8.6288,4.270336 11.6901333,3.262976 M16.6408,2.594816 L18.6248,5.449216 C17.7834667,5.244416 16.9074667,5.122816 15.9994667,5.122816 C15.0928,5.122816 14.2168,5.244416 13.3754667,5.449216 L15.3581333,2.594816 C15.5728,2.584576 15.7834667,2.562816 15.9994667,2.562816 C16.2168,2.562816 16.4274667,2.584576 16.6408,2.594816 M7.99946667,15.362816 C7.99946667,11.128576 11.5888,7.682816 15.9994667,7.682816 C20.4114667,7.682816 23.9994667,11.128576 23.9994667,15.362816 C23.9994667,19.598336 20.4114667,23.042816 15.9994667,23.042816 C11.5888,23.042816 7.99946667,19.598336 7.99946667,15.362816 M27.5288,8.962816 L24.3128,8.962816 C23.7594667,8.302336 20.8021333,3.972096 20.3101333,3.262976 C23.3714667,4.270336 25.9288,6.315776 27.5288,8.962816 M15.9994667,0.002816 C7.17813333,0.002816 -0.000533333333,6.894336 -0.000533333333,15.362816 C-0.000533333333,23.832576 7.17813333,30.721536 15.9994667,30.721536 C24.8221333,30.721536 31.9994667,23.832576 31.9994667,15.362816 C31.9994667,6.894336 24.8221333,0.002816 15.9994667,0.002816" id="Fill-583"></path>
                        <path d="M17.3333333,13.442816 C17.3333333,13.796096 17.0346667,14.082816 16.6666667,14.082816 L14.6666667,14.082816 L14.6666667,12.802816 L16.6666667,12.802816 C17.0346667,12.802816 17.3333333,13.089536 17.3333333,13.442816 L17.3333333,13.442816 Z M16.6666667,17.922816 L14.6666667,17.922816 L14.6666667,16.642816 L16.6666667,16.642816 C17.0346667,16.642816 17.3333333,16.929536 17.3333333,17.282816 C17.3333333,17.636096 17.0346667,17.922816 16.6666667,17.922816 L16.6666667,17.922816 Z M17.3333333,21.762816 L17.3333333,20.418816 C18.8533333,20.120576 20,18.827776 20,17.282816 C20,16.559616 19.74,15.899136 19.316,15.362816 C19.74,14.826496 20,14.166016 20,13.442816 C20,11.897856 18.8533333,10.606336 17.3333333,10.308096 L17.3333333,8.962816 L14.6666667,8.962816 L14.6666667,10.242816 L12,10.242816 L12,20.482816 L14.6666667,20.482816 L14.6666667,21.762816 L17.3333333,21.762816 Z" id="Fill-584"></path>
                    </g>
                </g>
            </g>
        </g>
    </g>
</svg>