<svg xmlns="http://www.w3.org/2000/svg" viewBox="0 0 26.63 35.54"><defs><style>.cls-1{fill:#165d9c;}.cls-2{fill:#ffb219;}</style></defs><title>Forwarder-find</title><g id="Layer_2" data-name="Layer 2"><g id="graphic"><path class="cls-1" d="M13.31,3.33a10,10,0,1,0,10,10A10,10,0,0,0,13.31,3.33ZM10,21.55V17.76H8.87V21a8.92,8.92,0,0,1-1.11-.76V16.41a.56.56,0,0,1,.42-.54l3.09-.77a1.91,1.91,0,0,0,1.49,1v2.27h1.11V16.05a1.91,1.91,0,0,0,1.49-1l3.09.77a.56.56,0,0,1,.42.54v3.84a8.93,8.93,0,0,1-1.11.76V17.76H16.65v3.79a8.81,8.81,0,0,1-6.66,0Zm2.22-7.83v-.54l.18.14h1.86l.18-.14v1.24c0,.1-.1.57-1.11.57s-1.1-.48-1.11-.56Zm1.67-4.84V7.77H10.81a2.37,2.37,0,0,1,2-1.11h1.6a.56.56,0,0,1,.56.56v4.15l-1.11.85H12.76l-1.11-.85V8.88ZM20,19.18V16.41a1.66,1.66,0,0,0-1.26-1.62L15.54,14V12.34l.56-.42V7.21a1.67,1.67,0,0,0-1.67-1.67h-1.6A3.48,3.48,0,0,0,9.44,8.19l-.17.69h1.27v3l.56.42V14l-3.18.8a1.66,1.66,0,0,0-1.26,1.62v2.77a8.89,8.89,0,1,1,13.33,0Z"/><path class="cls-2" d="M22.74,3.9a13.34,13.34,0,0,0-18.85,0A13.37,13.37,0,0,0,2.21,20.69L13.31,35.35,24.42,20.69l0,0A13.36,13.36,0,0,0,22.74,3.9ZM23.52,20,13.31,33.51,3.11,20A12.25,12.25,0,0,1,4.68,4.68,12.22,12.22,0,0,1,22,4.68,12.25,12.25,0,0,1,23.52,20Z"/><rect class="cls-2" x="16.65" y="34.43" width="7.78" height="1.11"/><rect class="cls-2" x="2.21" y="34.43" width="7.78" height="1.11"/></g></g></svg>