<svg xmlns="http://www.w3.org/2000/svg" viewBox="0 0 26 22.19"><defs><style>.cls-1{fill:#005da1;} .cls-2{fill:#F7A800;}</style></defs><title>LWF_Consegna</title><g id="Layer_2" data-name="Layer 2"><g id="Capa_1" data-name="Capa 1"><g id="delivery"><path class="cls-1" d="M25.91,16.25a2,2,0,0,0-1-1.2,1.91,1.91,0,0,0-1.52-.15l-6.74,1.63c0-.12.07-.23.1-.35a2,2,0,0,0-.25-1.54,2.08,2.08,0,0,0-1.25-.91c-6.54-1.64-6.81-1.61-6.91-1.58-.27.05-2.89.89-4.1,1.28a1.05,1.05,0,0,0-.54-.58,1,1,0,0,0-.82,0l-2.61,1a.41.41,0,0,0-.23.53.42.42,0,0,0,.53.24l2.61-1a.26.26,0,0,1,.19,0,.22.22,0,0,1,.12.14l2.72,7.36a.24.24,0,0,1-.14.32.4.4,0,0,0,.14.78.31.31,0,0,0,.14,0A1.05,1.05,0,0,0,7,20.86a2.25,2.25,0,0,1,.43-.17c.16,0,1.17.14,2.16.26,3,.41,4.59.61,5.28.61a1.12,1.12,0,0,0,.3,0c.52-.15,9.07-2.63,9.45-2.75a2,2,0,0,0,1.19-1A2.09,2.09,0,0,0,25.91,16.25ZM25,17.41a1.13,1.13,0,0,1-.71.59l-9.4,2.74c-.4.05-3.57-.37-5.26-.59-1.36-.18-2.08-.27-2.25-.27h0a1.86,1.86,0,0,0-.65.19L4.54,14.19,8.41,13c.37,0,4.27,1,6.64,1.57a1.27,1.27,0,0,1,.76.54,1.23,1.23,0,0,1-1.32,1.84l-4-.92a.4.4,0,0,0-.5.3.41.41,0,0,0,.3.49l4,.92a2.36,2.36,0,0,0,.42.05.28.28,0,0,0,.22,0l8.65-2.07a1.21,1.21,0,0,1,1.53.8A1.23,1.23,0,0,1,25,17.41Z"/><path class="cls-2" d="M22.37,0H7.59A1.09,1.09,0,0,0,6.5,1.1V11.44l.81-.25V1.1A.29.29,0,0,1,7.59.81h3.87V3.62a.44.44,0,0,0,.17.34.46.46,0,0,0,.24.07A.24.24,0,0,0,12,4l1.54-.72L14.84,4a.46.46,0,0,0,.27,0l1.32-.72L18,4a.4.4,0,0,0,.53-.39V.81h3.87a.28.28,0,0,1,.28.29V13.83l.42-.1c.12,0,.26-.07.39-.09V1.1A1.09,1.09,0,0,0,22.37,0ZM17.69,3.08l-1.16-.6a.51.51,0,0,0-.25,0L15,3.2l-1.3-.72a.51.51,0,0,0-.25,0l-1.16.6V.81h5.42Z"/><path class="cls-2" d="M16.1,11.35h-.81a.4.4,0,0,1-.41-.39.42.42,0,0,1,.41-.41h.81a.4.4,0,0,1,.4.41A.39.39,0,0,1,16.1,11.35Z"/><path class="cls-2" d="M18.67,11.35h-.95a.4.4,0,0,1-.41-.39.42.42,0,0,1,.41-.41h.95a.41.41,0,0,1,.41.41A.39.39,0,0,1,18.67,11.35Z"/><path class="cls-2" d="M21.12,11.35h-.82a.39.39,0,0,1-.4-.39.41.41,0,0,1,.4-.41h.82a.41.41,0,0,1,.39.41A.39.39,0,0,1,21.12,11.35Z"/></g></g></g></svg>