<?xml version="1.0" encoding="UTF-8" standalone="no"?>
<svg
   xmlns:dc="http://purl.org/dc/elements/1.1/"
   xmlns:cc="http://creativecommons.org/ns#"
   xmlns:rdf="http://www.w3.org/1999/02/22-rdf-syntax-ns#"
   xmlns:svg="http://www.w3.org/2000/svg"
   xmlns="http://www.w3.org/2000/svg"
   id="svg3789"
   version="1.1"
   viewBox="0 0 26.63 35.54">
  <metadata
     id="metadata3793">
    <rdf:RDF>
      <cc:Work
         rdf:about="">
        <dc:format>image/svg+xml</dc:format>
        <dc:type
           rdf:resource="http://purl.org/dc/dcmitype/StillImage" />
        <dc:title>Forwarder-find</dc:title>
      </cc:Work>
    </rdf:RDF>
  </metadata>
  <defs
     id="defs3775">
    <style
       id="style3773">.cls-1{fill:#165d9c;}.cls-2{fill:#ffb219;}</style>
  </defs>
  <title
     id="title3777">Forwarder-find</title>
  <g
     data-name="Layer 2"
     id="Layer_2">
    <g
       id="graphic">
      <path
         id="path3781"
         d="M22.74,3.9a13.34,13.34,0,0,0-18.85,0A13.37,13.37,0,0,0,2.21,20.69L13.31,35.35,24.42,20.69l0,0A13.36,13.36,0,0,0,22.74,3.9ZM23.52,20,13.31,33.51,3.11,20A12.25,12.25,0,0,1,4.68,4.68,12.22,12.22,0,0,1,22,4.68,12.25,12.25,0,0,1,23.52,20Z"
         class="cls-2" />
      <rect
         id="rect3783"
         height="1.11"
         width="7.78"
         y="34.43"
         x="16.65"
         class="cls-2" />
      <rect
         id="rect3785"
         height="1.11"
         width="7.78"
         y="34.43"
         x="2.21"
         class="cls-2" />
    </g>
  </g>
</svg>
