<?xml version="1.0" encoding="UTF-8" standalone="no"?>
<svg width="30px" height="30px" viewBox="0 0 30 30" version="1.1" xmlns="http://www.w3.org/2000/svg" xmlns:xlink="http://www.w3.org/1999/xlink">
    <!-- Generator: Sketch 48.2 (47327) - http://www.bohemiancoding.com/sketch -->
    <title>Price-icon</title>
    <desc>Created with Sketch.</desc>
    <defs></defs>
    <g id="SERVICES---LIST" stroke="none" stroke-width="1" fill="none" fill-rule="evenodd" transform="translate(-1127.000000, -691.000000)">
        <g id="P2P-Annuncio" transform="translate(-9.000000, 657.000000)" fill="#FFB219">
            <g id="Price" transform="translate(1061.000000, 0.000000)">
                <g id="Price-icon" transform="translate(75.000000, 34.000000)">
                    <path d="M27,20.9998465 L20.121,20.9998465 L17.121,17.9997953 L20.121,14.9997441 L27,14.9997441 L27,20.9998465 Z M23.9955,26.9999488 L3,26.9999488 L3,8.99964178 L24,8.99964178 L24,11.999693 L19.5,11.999693 C19.1025,11.999693 18.72,12.1586957 18.4395,12.4392005 L13.9395,16.9392772 C13.353,17.5257872 13.353,18.4738034 13.9395,19.0618134 L18.4395,23.5618902 C18.72,23.8408949 19.1025,23.9998977 19.5,23.9998977 L23.997,23.9998977 L23.9955,26.9999488 Z M18.7755,3.40454634 L20.073,5.99959061 L12.2895,5.99959061 L18.7755,3.40454634 Z M28.5,11.999693 L27,11.999693 L27,8.99964178 C27,7.34511356 25.6545,5.99959061 24,5.99959061 L23.427,5.99959061 L20.8425,0.829002412 C20.493,0.131490514 19.668,-0.182014833 18.942,0.107490105 L4.2105,5.99959061 L3,5.99959061 C1.3455,5.99959061 0,7.34511356 0,8.99964178 L0,26.9999488 C0,28.654477 1.3455,30 3,30 L24,30 C25.6545,30 27,28.654477 27,26.9999488 L27,23.9998977 L28.5,23.9998977 C29.328,23.9998977 30,23.3278862 30,22.4998721 L30,13.4997185 C30,12.6717044 29.328,11.999693 28.5,11.999693 L28.5,11.999693 Z" id="Fill-571"></path>
                    <path d="M19.6551724,18.1034483 C19.6551724,18.9615517 20.3503448,19.6551724 21.2068966,19.6551724 C22.0634483,19.6551724 22.7586207,18.9615517 22.7586207,18.1034483 C22.7586207,17.2484483 22.0634483,16.5517241 21.2068966,16.5517241 C20.3503448,16.5517241 19.6551724,17.2484483 19.6551724,18.1034483" id="Fill-572"></path>
                </g>
            </g>
        </g>
    </g>
</svg>