<?xml version="1.0" encoding="UTF-8" standalone="no"?>
<svg width="173px" height="47px" viewBox="0 0 173 47" version="1.1" xmlns="http://www.w3.org/2000/svg" xmlns:xlink="http://www.w3.org/1999/xlink">
    <!-- Generator: Sketch 48.2 (47327) - http://www.bohemiancoding.com/sketch -->
    <title>oxy logo</title>
    <desc>Created with Sketch.</desc>
    <defs></defs>
    <g id="LWF-Buyer" stroke="none" stroke-width="1" fill="none" fill-rule="evenodd">
        <g id="Partner" transform="translate(-8.000000, -39.000000)" fill-rule="nonzero">
            <g id="Oxy" transform="translate(2.000000, 0.000000)">
                <g id="oxy-logo" transform="translate(6.000000, 39.000000)">
                    <path d="M82.8142123,0.0349984642 L91.1592466,14.9603167 L110.679795,14.9603167 L101.749144,23.0448642 L118,47 L96.0393836,47 L87.1087329,32.1244328 L82.2285959,36.8010325 C78.8613014,40.0099759 75.5184075,43.2437949 72.1267123,46.4278628 C71.7796309,46.7597192 71.3322194,46.9614639 70.8578767,47 C64.0500856,47 57.2178938,47 50.4101027,47 L49.8000856,47 L76.640839,22.7961088 L70.2478596,13.4180339 L51.5844828,13.4354007 C50.1430954,11.790403 45.1438915,10.4793286 42.9812944,10.5474511 C37.5031295,10.0243478 31.9755964,10.4073776 26.4974315,10.9304808 C24.4930601,11.0999779 22.5387069,11.6571705 20.7388699,12.5722658 C20.4323501,12.7527616 20.0909788,12.8631077 19.7384418,12.8956477 L4,12.8956477 C4.08627327,12.7468781 4.1841945,12.6054567 4.29280822,12.4727637 C9.10455434,6.27814795 16.0156775,2.14306351 23.6669521,0.8807665 C28.8258492,0.177288903 34.031572,-0.105530767 39.234589,0.0349984642 L65.3189212,0.0349984642 L82.8142123,0.0349984642 Z" id="_Path_" fill="#132558"></path>
                    <path d="M126.712931,45.9506546 L128.044578,39.7824755 C128.907683,35.7854954 129.820107,31.7885154 130.633892,27.7915353 C130.749517,27.1803066 130.662947,26.5480282 130.387291,25.9904271 C128.192539,21.8947561 125.899146,17.8237579 123.679734,13.6540689 C123.415106,13.0443833 122.787244,12.6754506 122.126146,12.7411784 L95,12.7411784 C95.2466013,12.4451058 95.369902,12.2477241 95.5425229,12.075015 C99.3566235,8.34121063 103.129624,4.57450927 106.861524,0.774910956 C107.342271,0.269882471 108.014193,-0.00798692974 108.711034,0.0100567498 C116.700917,0.0100567498 124.6908,0.0100567498 132.680683,0.0100567498 C133.446175,-0.0751271354 134.166545,0.388203839 134.406892,1.12032898 C136.453683,5.61076336 138.549794,10.0518523 140.645906,14.517614 C140.818527,14.863032 141.015808,15.20845 141.287069,15.6772316 C141.656971,15.3564863 141.952893,15.1097591 142.199494,14.8383593 C146.441037,10.1340947 150.68258,5.43805434 154.924123,0.75023824 C155.23319,0.36813875 155.672165,0.113403685 156.157129,0.0347294661 C161.705659,0.0347294661 167.278849,0.0347294661 173,0.0347294661 C172.840447,0.266651116 172.667534,0.489081917 172.482137,0.700892807 C164.262093,8.92513159 156.107809,17.1987158 148.019285,25.5216454 C147.225772,26.2779234 146.683475,27.259725 146.465697,28.3343351 C145.331331,33.8116781 143.999684,39.2643484 142.939298,44.7170188 C142.668037,46 142.643377,46 141.38571,46 L127.896617,46 L126.712931,45.9506546 Z" id="_Path_2" fill="#FAB600"></path>
                    <path d="M18.2137308,14.0273967 C16.4145223,15.6305407 14.9905231,17.6179287 14.0448142,19.845697 C12.9847554,22.1990086 12.6310141,24.8148853 13.0274001,27.3693612 C13.4889272,30.3462969 15.4838353,32.8497298 18.2633608,33.9400279 C20.1790129,34.7669823 22.2354021,35.2098899 24.3182158,35.2441297 C27.8667579,35.2441297 31.4152999,35.4698396 34.963842,35.4196818 C38.4236233,35.4942799 41.85905,34.8187012 45.0387238,33.4384503 C49.7942663,31.3532065 53.1772781,26.9708556 54.0217464,21.8018497 C54.5036985,19.1390385 53.9527493,16.3909198 52.4832176,14.1277122 L66.7518309,14.1277122 C66.8965214,15.124661 66.9793997,16.1297766 66.9999807,17.1371779 C67.0072431,23.1079691 64.9636508,28.8961986 61.2180905,33.5136869 C55.8654985,40.1647953 48.1360786,44.4174883 39.7035031,45.3509185 C34.2754014,45.971169 28.806595,46.1472939 23.3504316,45.877575 C19.4580937,45.9244544 15.5847085,45.3228635 11.885911,44.0969745 C6.37559918,42.2359471 2.12503776,37.7525941 0.520650329,32.1092696 C-0.0252477839,29.938425 -0.143291816,27.6802578 0.173240615,25.4633662 C0.567622704,21.8951937 1.57534973,18.4239972 3.15103817,15.2061041 C3.43105079,14.4489757 4.1637422,13.9620825 4.96253168,14.0023178 C9.35478307,14.0524756 13.6477745,14.0273967 18.2137308,14.0273967 Z" id="_Path_3" fill="#FAB600"></path>
                </g>
            </g>
        </g>
    </g>
</svg>