<?xml version="1.0" encoding="UTF-8" standalone="no"?>
<svg width="209px" height="53px" viewBox="0 0 209 53" version="1.1" xmlns="http://www.w3.org/2000/svg" xmlns:xlink="http://www.w3.org/1999/xlink">
    <!-- Generator: Sketch 48.2 (47327) - http://www.bohemiancoding.com/sketch -->
    <title>BitBoost logotype v1 horizontal</title>
    <desc>Created with Sketch.</desc>
    <defs></defs>
    <g id="LWF-Buyer" stroke="none" stroke-width="1" fill="none" fill-rule="evenodd">
        <g id="Partner" transform="translate(0.000000, -340.000000)">
            <g id="Bitboost" transform="translate(0.000000, 306.000000)">
                <g id="Group-3" transform="translate(0.000000, 34.000000)">
                    <g id="BitBoost-logotype-v1-horizontal">
                        <path d="M200.936255,22.8808314 L209,22.8808314 L209,26.1787529 L200.936255,26.1787529 L200.936255,41 L197.685259,41 L197.685259,26.1787529 L181.270916,26.1787529 C180.70996,26.1787529 180.250996,26.6378753 180.250996,27.2069284 L180.250996,28.6360277 L196.378486,28.6360277 L196.378486,36.8743649 C196.378486,39.1441109 194.555378,41 192.311554,41 L177,41 L177,37.695612 L192.10757,37.695612 C192.668526,37.695612 193.12749,37.2364896 193.12749,36.6674365 L193.12749,31.9404157 L177,31.9404157 L177,28.6360277 L177,27 C177,24.730254 178.829482,22.8808314 181.066932,22.8808314 C186.606375,22.8808314 192.145817,22.8808314 197.685259,22.8808314 L197.685259,13 L200.936255,13 L200.936255,22.8808314 Z" id="Shape" fill="#333333"></path>
                        <path d="M99,16.2849885 L102.282216,16.2849885 L102.282216,19.5893764 L99,19.5893764 L99,16.2849885 Z M102.282216,41 L102.282216,26.1787529 L103.598956,26.1787529 L103.598956,41 L106.874749,41 L106.874749,26.1787529 L115,26.1787529 L115,22.8808314 L106.874749,22.8808314 L106.874749,13 L103.598956,13 L103.598956,22.8808314 C102.06383,22.8808314 100.535126,22.8808314 99,22.8808314 L99,41 L102.282216,41 Z" id="Shape" fill="#333333"></path>
                        <path d="M170.901499,40 C173.156317,40 175,38.1563169 175,35.9014989 C175,32.6316916 175,29.3618844 175,26.0920771 C175,23.8372591 173.156317,22 170.901499,22 C161.631692,22 152.361884,22 143.092077,22 C140.837259,22 139,23.8372591 139,26.0920771 C139,29.3618844 139,32.6316916 139,35.9014989 C139,38.1563169 140.837259,40 143.092077,40 C152.361884,40 161.631692,40 170.901499,40 Z M155.471092,25.2762313 C155.471092,29.0920771 155.471092,32.9079229 155.471092,36.7173448 L143.297645,36.7173448 C142.732334,36.7173448 142.276231,36.261242 142.276231,35.6959315 C142.276231,32.5610278 142.276231,29.4325482 142.276231,26.2976445 C142.276231,25.732334 142.732334,25.2762313 143.297645,25.2762313 L155.471092,25.2762313 Z M158.528908,25.2762313 L170.695931,25.2762313 C171.261242,25.2762313 171.723769,25.732334 171.723769,26.2976445 C171.723769,29.4325482 171.723769,32.5610278 171.723769,35.6959315 C171.723769,36.261242 171.261242,36.7173448 170.695931,36.7173448 L158.528908,36.7173448 C158.528908,32.9014989 158.528908,29.0920771 158.528908,25.2762313 Z" id="Shape" fill="#333333" fill-rule="nonzero"></path>
                        <path d="M98,36.2998844 L98,36.8760694 C98,39.1484393 96.115942,41 93.8036891,41 L78,41 L78,13 L81.1357049,13 L81.1357049,37.6982659 L93.5928854,37.6982659 C94.1725955,37.6982659 94.6469038,37.2386127 94.6469038,36.6689017 L94.6469038,36.2998844 L98,36.2998844 Z" id="Shape" fill="#333333"></path>
                        <path d="M84,22 L93.0263916,22 C94.0431862,22 95.1473129,22.4076218 95.8709213,23.1350699 C96.5945298,23.8625181 97,24.8972504 97,25.9194404 L97,35 L93.824856,35 L93.824856,28.6160154 L85.696737,33.2879884 L90.3440499,25.1982634 L84,25.1982634 L84,22 Z" id="Shape" fill="#FAAA0F"></path>
                        <path d="M138,36.2998844 L138,36.8760694 C138,39.1484393 136.109354,41 133.803689,41 L118,41 L118,13 L121.129117,13 L121.129117,37.6982659 L133.592885,37.6982659 C134.166008,37.6982659 134.640316,37.2386127 134.640316,36.6689017 L134.640316,36.2998844 L138,36.2998844 Z" id="Shape" fill="#333333"></path>
                        <path d="M124,22 L133.03263,22 C134.043186,22 135.153551,22.4076218 135.877159,23.1350699 C136.59453,23.8625181 137,24.8972504 137,25.9194404 L137,35 L133.824856,35 L133.824856,28.6160154 L125.696737,33.2879884 L130.34405,25.1982634 L124,25.1982634 L124,22 Z" id="Shape" fill="#FAAA0F"></path>
                        <path d="M0,28.08729 L23.6786292,4.48441685 C26.3455497,1.83248113 30.3070919,0 34.1003332,0 C37.8806283,0 41.6479772,1.62600438 44.3148977,4.2843925 L68,27.893718 L59.6626368,36.1979547 L43.0202761,19.6088386 L33.8996668,53 L24.9797239,19.8088629 L8.33736316,36.3979791 L0,28.08729 Z" id="Shape" fill="#FAAA0F"></path>
                        <path d="M53,14.4006646 L43.65212,5.10799905 C41.0862881,2.55732257 37.6565832,1.10253976 34.0334738,1.00640873 L33.8980908,1 L33.7884949,1 L33.6402182,1.00640873 C30.010662,1.10253976 26.3811059,2.76240209 23.8281676,5.30666983 L1,28 C10.728242,22.1103727 22.9191669,17.6755281 36.4703695,15.6183242 C42.1177783,14.7659625 47.6555914,14.3686209 53,14.4006646 Z" id="Shape" fill-opacity="0.2" fill="#FFFFFF"></path>
                    </g>
                </g>
            </g>
        </g>
    </g>
</svg>