<?xml version="1.0" encoding="utf-8"?>
<!-- Generator: Adobe Illustrator 21.1.0, SVG Export Plug-In . SVG Version: 6.00 Build 0)  -->
<svg version="1.1" id="Layer_1" xmlns="http://www.w3.org/2000/svg" xmlns:xlink="http://www.w3.org/1999/xlink" x="0px" y="0px"
	 viewBox="0 0 38 34" style="enable-background:new 0 0 38 34;" xml:space="preserve">
<style type="text/css">
	.st0{enable-background:new    ;}
	.st1{fill:#9B9DA0;}
</style>
<title>“</title>
<desc>Created with Sketch.</desc>
<g id="Homepage-Logged-BUYER" transform="translate(-482.000000, -3821.000000)">
	<g id="Pivx-Copy" transform="translate(259.000000, 3782.000000)">
		<g class="st0">
			<path class="st1" d="M238.4,57.2v14.7h-13.6V60.3c0-6.3,0.7-10.8,2.2-13.6c2-3.8,5.1-6.6,9.4-8.5l3.1,4.9
				c-2.6,1.1-4.5,2.7-5.7,4.8c-1.2,2.1-1.9,5.2-2,9.3H238.4z M260.2,57.2v14.7h-13.6V60.3c0-6.3,0.7-10.8,2.2-13.6
				c2-3.8,5.1-6.6,9.4-8.5l3.1,4.9c-2.6,1.1-4.5,2.7-5.7,4.8c-1.2,2.1-1.9,5.2-2,9.3H260.2z"/>
		</g>
	</g>
</g>
</svg>
