<?xml version="1.0" encoding="UTF-8" standalone="no"?>
<svg
   xmlns:dc="http://purl.org/dc/elements/1.1/"
   xmlns:cc="http://creativecommons.org/ns#"
   xmlns:rdf="http://www.w3.org/1999/02/22-rdf-syntax-ns#"
   xmlns:svg="http://www.w3.org/2000/svg"
   xmlns="http://www.w3.org/2000/svg"
   height="217.66"
   width="412.64999"
   id="svg66"
   version="1.1"
   viewBox="0 0 412.64997 217.65999">
  <metadata
     id="metadata70">
    <rdf:RDF>
      <cc:Work
         rdf:about="">
        <dc:format>image/svg+xml</dc:format>
        <dc:type
           rdf:resource="http://purl.org/dc/dcmitype/StillImage" />
        <dc:title>LWF_Lgs-Logo-payoff_1</dc:title>
      </cc:Work>
    </rdf:RDF>
  </metadata>
  <defs
     id="defs4">
    <style
       id="style2">.cls-1{fill:#fff;}.cls-2{fill:#f7a800;}.cls-3{fill:#005da1;}</style>
  </defs>
  <title
     id="title6">LWF_Lgs-Logo-payoff_1</title>
  <g
     transform="translate(-90.17,-218.52)"
     data-name="Layer 2"
     id="Layer_2">
    <g
       data-name="Layer 1"
       id="Layer_1-2">
      <path
         style="fill:#f7a800"
         id="path10"
         d="M 306.86,371.8 293,314.68 a 1.12,1.12 0 0 0 -2.15,0 L 277,371.8 h -12.2 c 0,0 25.31,31 27.17,31 1.86,0 27.17,-31 27.17,-31 z"
         class="cls-2" />
      <g
         data-name="&lt;Group&gt;"
         id="_Group_">
        <path
           style="fill:#005da1"
           id="path12"
           d="M 405.79,338.1 H 414 v -91.28 h -11.17 v -26 h 91.89 a 8.1,8.1 0 0 1 8.1,8.1 v 34.2 H 472.75 V 250.88 H 449.89 V 282 h 22.34 v 21.6 a 6.43,6.43 0 0 1 -6.43,6.43 h -15.9 v 28.07 h -0.09 v 16.72 a 9.34,9.34 0 0 1 -9.34,9.34 h -34.68 z"
           class="cls-3" />
      </g>
      <g
         data-name="&lt;Group&gt;"
         id="_Group_2">
        <path
           style="fill:#005da1"
           id="path15"
           d="m 95.43,338 h 8.34 V 246.77 H 92.45 v -26 h 39.2 a 8,8 0 0 1 8,8 v 20.07 0 81 a 6.23,6.23 0 0 0 6.23,6.23 h 24.65 V 315 h 30.07 v 39.78 a 9.34,9.34 0 0 1 -9.34,9.34 H 95.43 Z"
           class="cls-3" />
      </g>
      <path
         style="fill:#005da1"
         id="path18"
         d="m 262.78,279.8 -7.61,30.63 c -0.8,3.41 -1.2,7.22 -1.81,10.22 l -0.6,4.81 H 252 l -0.4,-4.81 a 65.62,65.62 0 0 0 -1.4,-10.22 l -14.44,-63.56 -3.82,-18.15 a 10,10 0 0 0 -9.76,-7.92 h -33.31 l 3.61,26 h 7.8 v 0.52 L 228,358.09 c 1.86,3.56 5.05,6.07 8.72,6.07 H 270 l 18.34,-67.68 z"
         class="cls-3" />
      <path
         style="fill:#005da1"
         id="path20"
         d="m 321.15,279.8 7.61,30.63 c 0.8,3.41 1.2,7.22 1.81,10.22 l 0.6,4.81 h 0.8 l 0.4,-4.81 a 65.62,65.62 0 0 1 1.4,-10.22 l 14.44,-63.56 3.79,-18.15 a 10,10 0 0 1 9.76,-7.92 h 33.27 l -3.61,26 h -7.8 v 0.52 l -27.73,110.77 c -1.86,3.56 -5.05,6.07 -8.72,6.07 h -33.25 l -18.34,-67.68 z"
         class="cls-3" />
      <path
         style="fill:#f7a800"
         id="path22"
         d="m 291.86,218.52 -29,16.77 v 33.54 l 29,19 29,-19 v -33.54 z m 15.55,19.57 -15.55,9 -15.55,-9 15.55,-9 z m -35.41,8.1 15.27,8.81 v 19.6 L 272,263.53 Z m 24.46,28.42 V 255 l 15.29,-8.83 v 17.34 z"
         class="cls-2" />
      <path
         style="fill:#005da1"
         id="path24"
         d="m 90.17,433.49 h 2 v -12.17 h -2 v -2.52 h 7.25 v 2.52 h -2.06 v 12 h 5 v -2.64 h 2.69 v 5.16 H 90.17 Z"
         class="cls-3" />
      <path
         style="fill:#005da1"
         id="path26"
         d="m 115.81,418.51 a 8.62,8.62 0 0 1 8.83,8.69 8.835,8.835 0 1 1 -17.67,0 8.62,8.62 0 0 1 8.84,-8.69 z m 0,14.86 c 3.07,0 5.59,-2.64 5.59,-6.17 a 5.6,5.6 0 1 0 -11.19,0 c 0,3.53 2.52,6.17 5.6,6.17 z"
         class="cls-3" />
      <path
         style="fill:#005da1"
         id="path28"
         d="m 137.74,418.51 c 2.06,0 6.65,0.72 6.65,3.41 v 2.3 h -2.86 v -1.32 c 0,-1.27 -2.23,-1.7 -3.65,-1.7 a 5.54,5.54 0 0 0 -5.69,5.91 c 0,3.82 2.5,6.34 5.86,6.34 1,0 3.7,-0.34 3.7,-1.68 v -1.32 h 2.86 v 2.33 c 0,2.54 -4.37,3.36 -6.75,3.36 a 8.68,8.68 0 0 1 -8.9,-8.88 8.57,8.57 0 0 1 8.78,-8.75 z"
         class="cls-3" />
      <path
         style="fill:#005da1"
         id="path30"
         d="m 148.37,433.49 h 1.56 L 155,418.8 h 3.58 l 5.11,14.69 h 1.56 v 2.35 h -6.41 v -2.35 h 1.68 l -1.06,-3.19 h -5.38 l -1.06,3.19 h 1.68 v 2.35 h -6.38 z m 10.42,-5.64 -1.61,-4.85 -0.26,-1.06 a 3.3,3.3 0 0 1 0,-0.43 h -0.07 l -0.07,0.43 c -0.07,0.26 -0.12,0.6 -0.24,1.06 l -1.63,4.82 z"
         class="cls-3" />
      <path
         style="fill:#005da1"
         id="path32"
         d="m 169.08,433.49 h 2 v -12.17 h -2 v -2.52 h 7.25 v 2.52 h -2.06 v 12 h 5 v -2.64 H 182 v 5.16 h -12.92 z"
         class="cls-3" />
      <path
         style="fill:#005da1"
         id="path34"
         d="m 193.49,418.8 h 6.65 v 2.38 h -2 l 2.21,9.72 a 9.29,9.29 0 0 1 0.14,1 v 0.48 h 0.1 l 0.07,-0.48 c 0.07,-0.29 0.1,-0.65 0.19,-1 l 3.19,-12.1 h 2.52 l 3.19,12.1 c 0.1,0.36 0.14,0.72 0.22,1 a 3.55,3.55 0 0 1 0,0.48 h 0.1 v -0.48 a 9.29,9.29 0 0 1 0.14,-1 l 2.21,-9.72 h -2 v -2.38 h 6.65 v 2.38 h -1.56 L 212,435.84 h -3.53 l -2.86,-10.75 c -0.1,-0.36 -0.12,-0.72 -0.19,-1 l -0.07,-0.53 h -0.07 a 3.86,3.86 0 0 1 0,0.53 7.16,7.16 0 0 1 -0.22,1 l -2.86,10.75 h -3.53 l -3.62,-14.67 h -1.56 z"
         class="cls-3" />
      <path
         style="fill:#005da1"
         id="path36"
         d="m 229.69,418.51 a 8.62,8.62 0 0 1 8.83,8.69 8.835,8.835 0 1 1 -17.67,0 8.62,8.62 0 0 1 8.84,-8.69 z m 0,14.86 c 3.07,0 5.59,-2.64 5.59,-6.17 a 5.6,5.6 0 1 0 -11.19,0 c 0,3.53 2.52,6.17 5.6,6.17 z"
         class="cls-3" />
      <path
         style="fill:#005da1"
         id="path38"
         d="m 243,433.49 h 2 v -12.31 h -2 v -2.38 h 7.51 a 11.16,11.16 0 0 1 3.24,0.36 4.45,4.45 0 0 1 3.14,4.56 4.65,4.65 0 0 1 -3.22,4.73 v 0 l 0.29,0.22 a 2.76,2.76 0 0 1 0.55,0.67 l 2,3.55 c 0.26,0.46 0.58,0.55 1.15,0.55 h 0.55 v 2.35 h -2 c -1.39,0 -1.85,-0.29 -2.38,-1.27 l -2.42,-4.39 c -0.36,-0.65 -0.67,-0.86 -1.66,-0.86 h -1.56 v 4.18 h 2 v 2.35 H 243 Z m 8,-6.7 a 2.54,2.54 0 0 0 2.74,-2.81 2.29,2.29 0 0 0 -1.34,-2.35 4.64,4.64 0 0 0 -1.92,-0.31 h -2.3 v 5.47 z"
         class="cls-3" />
      <path
         style="fill:#005da1"
         id="path40"
         d="m 262.52,433.49 h 2 v -12.17 h -2 v -2.52 h 7.25 v 2.52 h -2.07 v 12 h 5 v -2.64 h 2.69 v 5.16 h -12.87 z"
         class="cls-3" />
      <path
         style="fill:#005da1"
         id="path42"
         d="m 279.51,433.49 h 2 v -12.31 h -2 v -2.38 h 7.37 a 11.14,11.14 0 0 1 3.55,0.41 c 3.34,1 5.52,3.94 5.52,8.11 0,4.17 -2,6.94 -5.28,8 a 10.94,10.94 0 0 1 -3.77,0.5 h -7.39 z m 7.25,-0.17 a 6.8,6.8 0 0 0 2.79,-0.43 c 1.94,-0.79 3.17,-2.76 3.17,-5.57 0,-2.81 -1.27,-4.85 -3.29,-5.62 a 6.43,6.43 0 0 0 -2.67,-0.38 h -2.06 v 12 z"
         class="cls-3" />
      <path
         style="fill:#005da1"
         id="path44"
         d="m 308.81,433.49 h 2 v -12.31 h -2 V 418.8 H 321 v 4.42 h -2.69 v -1.75 H 314 v 4.9 h 5.54 v 2.52 H 314 v 4.61 h 2.26 v 2.35 h -7.44 z"
         class="cls-3" />
      <path
         style="fill:#005da1"
         id="path46"
         d="m 333.85,418.51 a 8.62,8.62 0 0 1 8.83,8.69 8.835,8.835 0 1 1 -17.67,0 8.62,8.62 0 0 1 8.84,-8.69 z m 0,14.86 c 3.07,0 5.59,-2.64 5.59,-6.17 a 5.6,5.6 0 1 0 -11.19,0 c 0,3.53 2.52,6.17 5.6,6.17 z"
         class="cls-3" />
      <path
         style="fill:#005da1"
         id="path48"
         d="m 347.16,433.49 h 2 v -12.31 h -2 v -2.38 h 7.51 a 11.16,11.16 0 0 1 3.24,0.36 4.45,4.45 0 0 1 3.14,4.56 4.65,4.65 0 0 1 -3.22,4.73 v 0 l 0.29,0.22 a 2.76,2.76 0 0 1 0.55,0.67 l 2,3.55 c 0.26,0.46 0.58,0.55 1.15,0.55 h 0.55 v 2.35 h -2 c -1.39,0 -1.85,-0.29 -2.38,-1.27 l -2.42,-4.39 c -0.36,-0.65 -0.67,-0.86 -1.66,-0.86 h -1.56 v 4.18 h 2 v 2.35 h -7.15 z m 8,-6.7 a 2.54,2.54 0 0 0 2.74,-2.81 2.29,2.29 0 0 0 -1.34,-2.35 4.64,4.64 0 0 0 -1.92,-0.31 h -2.3 v 5.47 z"
         class="cls-3" />
      <path
         style="fill:#005da1"
         id="path50"
         d="m 365.45,418.8 h 6.65 v 2.38 h -2 l 2.21,9.72 a 9.29,9.29 0 0 1 0.14,1 v 0.48 h 0.1 l 0.07,-0.48 c 0.07,-0.29 0.1,-0.65 0.19,-1 L 376,418.8 h 2.52 l 3.19,12.1 c 0.1,0.36 0.14,0.72 0.22,1 a 3.55,3.55 0 0 1 0,0.48 h 0.1 v -0.48 a 9.29,9.29 0 0 1 0.14,-1 l 2.21,-9.72 h -2 v -2.38 h 6.65 v 2.38 h -1.56 L 384,435.84 h -3.53 l -2.86,-10.75 c -0.1,-0.36 -0.12,-0.72 -0.19,-1 l -0.07,-0.53 h -0.07 a 3.86,3.86 0 0 1 0,0.53 7.16,7.16 0 0 1 -0.22,1 l -2.86,10.75 h -3.53 L 367,421.18 h -1.56 z"
         class="cls-3" />
      <path
         style="fill:#005da1"
         id="path52"
         d="m 391,433.49 h 1.56 l 5.11,-14.69 h 3.58 l 5.11,14.69 H 408 v 2.35 h -6.41 v -2.35 h 1.68 l -1.06,-3.19 h -5.41 l -1.06,3.19 h 1.68 v 2.35 H 391 Z m 10.42,-5.64 -1.57,-4.85 -0.26,-1.06 a 3.3,3.3 0 0 1 0,-0.43 h -0.07 l -0.07,0.43 c -0.07,0.26 -0.12,0.6 -0.24,1.06 l -1.63,4.82 z"
         class="cls-3" />
      <path
         style="fill:#005da1"
         id="path54"
         d="m 411.72,433.49 h 2 v -12.31 h -2 v -2.38 h 7.51 a 11.17,11.17 0 0 1 3.24,0.36 4.45,4.45 0 0 1 3.14,4.56 4.65,4.65 0 0 1 -3.22,4.73 v 0 l 0.29,0.22 a 2.76,2.76 0 0 1 0.55,0.67 l 2,3.55 c 0.26,0.46 0.58,0.55 1.15,0.55 h 0.55 v 2.35 h -2 c -1.39,0 -1.85,-0.29 -2.38,-1.27 l -2.43,-4.39 c -0.36,-0.65 -0.67,-0.86 -1.66,-0.86 h -1.56 v 4.18 h 2 v 2.35 h -7.15 z m 8,-6.7 a 2.54,2.54 0 0 0 2.74,-2.81 2.29,2.29 0 0 0 -1.34,-2.35 4.64,4.64 0 0 0 -1.92,-0.31 h -2.3 v 5.47 z"
         class="cls-3" />
      <path
         style="fill:#005da1"
         id="path56"
         d="m 431.21,433.49 h 2 v -12.31 h -2 v -2.38 h 7.37 a 11.14,11.14 0 0 1 3.55,0.41 c 3.34,1 5.52,3.94 5.52,8.11 0,4.17 -2,6.94 -5.28,8 a 10.94,10.94 0 0 1 -3.77,0.5 h -7.39 z m 7.25,-0.17 a 6.8,6.8 0 0 0 2.79,-0.43 c 1.94,-0.79 3.17,-2.76 3.17,-5.57 0,-2.81 -1.27,-4.85 -3.29,-5.62 a 6.43,6.43 0 0 0 -2.67,-0.38 h -2.06 v 12 z"
         class="cls-3" />
      <path
         style="fill:#005da1"
         id="path58"
         d="m 452.24,433.49 h 2 v -12.31 h -2 v -2.38 h 12.65 v 4.39 h -2.69 v -1.87 h -4.78 V 426 H 463 v 2.52 h -5.62 v 4.8 h 5.14 v -1.92 h 2.69 v 4.44 h -13 z"
         class="cls-3" />
      <path
         style="fill:#005da1"
         id="path60"
         d="m 469.88,433.49 h 2 v -12.31 h -2 v -2.38 h 7.51 a 11.16,11.16 0 0 1 3.24,0.36 4.45,4.45 0 0 1 3.14,4.56 4.65,4.65 0 0 1 -3.22,4.73 v 0 l 0.29,0.22 a 2.76,2.76 0 0 1 0.55,0.67 l 2,3.55 c 0.26,0.46 0.58,0.55 1.15,0.55 h 0.55 v 2.35 h -2 c -1.39,0 -1.85,-0.29 -2.38,-1.27 l -2.42,-4.39 c -0.36,-0.65 -0.67,-0.86 -1.66,-0.86 h -1.56 v 4.18 h 2 v 2.35 h -7.15 z m 8,-6.7 a 2.54,2.54 0 0 0 2.74,-2.81 2.29,2.29 0 0 0 -1.34,-2.35 4.64,4.64 0 0 0 -1.92,-0.31 h -2.3 v 5.47 z"
         class="cls-3" />
      <path
         style="fill:#005da1"
         id="path62"
         d="m 492.05,430.35 v 1.27 c 0,1.08 1.39,1.75 3,1.75 1.61,0 3,-0.74 3,-2.11 0,-1.7 -1.94,-2.28 -3.91,-3 -2.28,-0.89 -4.51,-1.87 -4.51,-4.94 0,-3.43 2.76,-4.75 5.71,-4.75 2.69,0 5.4,1 5.4,3 v 2.23 h -2.86 v -1.15 c 0,-0.86 -1.27,-1.32 -2.54,-1.32 -1.27,0 -2.54,0.58 -2.54,1.87 0,1.58 1.61,2.09 3.36,2.78 2.57,0.89 5.09,1.94 5.09,5.11 0,3.48 -2.93,5.09 -6.14,5.09 -2.83,0 -5.86,-1.27 -5.86,-3.84 v -1.94 z"
         class="cls-3" />
    </g>
  </g>
</svg>
