<svg xmlns="http://www.w3.org/2000/svg" viewBox="0 0 73.66 107.35"><defs><style>.cls-1,.cls-2{fill:#f7a800;stroke:#f7a800;stroke-miterlimit:10;}.cls-1{stroke-width:1.66px;}.cls-2{stroke-width:2.09px;}</style></defs><title>Forwarder 2</title><g id="Layer_2" data-name="Layer 2"><g id="Capa_1" data-name="Capa 1"><g id="insurance"><path class="cls-1" d="M52,61.37a1.61,1.61,0,0,1-1.38-.7l-5-6.94a1.73,1.73,0,0,1,.35-2.4,1.7,1.7,0,0,1,2.36.4l3.67,5,8.2-12a1.69,1.69,0,0,1,2.78,1.93l-9.55,14a1.57,1.57,0,0,1-1.38.73Z"/><path class="cls-1" d="M52,72.87a1.71,1.71,0,0,1-.48-.08c-20.67-9.69-20.35-32-20.35-32.19a1.19,1.19,0,0,1,1-1.09c.13,0,13-1.92,19-7.9a1.1,1.1,0,0,1,1.59,0c6,6,18.92,7.9,19.07,7.9a1.2,1.2,0,0,1,1,1.09c0,.21.3,22.5-20.33,32.19A2,2,0,0,1,52,72.87ZM33.47,41.59c.15,4.12,2,20.93,18.52,28.91,16.53-8,18.37-24.79,18.55-28.91C67.39,41,57.73,39,52,34,46.27,39,36.59,41,33.47,41.59Z"/><path class="cls-1" d="M58.1,31.42V17.56a7.72,7.72,0,0,0-.05-.79h0c0-.05,0-.05,0-.1a.9.9,0,0,1,0-.28s-.08-.08-.08-.15a2.17,2.17,0,0,0-.38-.76L48.62,2.39A3.61,3.61,0,0,0,45.68.83H13.37a3.54,3.54,0,0,0-2.91,1.56l-9,13.09a1.94,1.94,0,0,0-.38.83c-.05,0-.05,0-.05,0,0,.15-.07.28-.12.43h0a6,6,0,0,0-.05.65c0,.08,0,.24,0,.29V54.63a3.52,3.52,0,0,0,3.54,3.54H32c-.35-.73-.7-1.51-1-2.24H4.37a1.33,1.33,0,0,1-1.3-1.31V17.9H20.38v8.35a1.23,1.23,0,0,0,.45.94,1.12,1.12,0,0,0,.65.21,1.31,1.31,0,0,0,.32,0l3.94-1.26,3.34,1.2a1,1,0,0,0,.78,0l3.34-1.2,3.94,1.26a1.05,1.05,0,0,0,1-.18,1.18,1.18,0,0,0,.45-.94V17.9H55.89V29.84A15.27,15.27,0,0,0,58.1,31.42ZM33.84,3.09l2.32,12.55H22.84L25.35,3.09ZM20.55,15.64H4.07l8.25-12a1.23,1.23,0,0,1,1.06-.58H23Zm15.79,9.1-2.79-.86a1.2,1.2,0,0,0-.75,0l-3.29,1.2-3.32-1.2a1.11,1.11,0,0,0-.73,0l-2.87.86V17.9H36.34Zm2.11-9.1L36.13,3.09h9.55a1.21,1.21,0,0,1,1.08.58l8.17,12Z"/></g><path class="cls-2" d="M34.58,106,47.42,93.15a1.07,1.07,0,0,0-1.51-1.51l-11,11V77.79a1.07,1.07,0,0,0-2.14,0v24.85l-11-11a1.07,1.07,0,0,0-1.51,1.51L33.07,106a1.07,1.07,0,0,0,1.51,0Z"/></g></g></svg>