<svg xmlns="http://www.w3.org/2000/svg" viewBox="0 0 73.71 107.73"><defs><style>.cls-1,.cls-2,.cls-3{fill:#f7a800;}.cls-1,.cls-3{stroke:#f7a800;stroke-miterlimit:10;}.cls-1{stroke-width:1.71px;}.cls-3{stroke-width:2.09px;}</style></defs><title>Goods 2</title><g id="Layer_2" data-name="Layer 2"><g id="Capa_1" data-name="Capa 1"><g id="tracking_code" data-name="tracking code"><path class="cls-1" d="M48,10.6,43.5,1.7A1.1,1.1,0,0,0,42,1.21a1.13,1.13,0,0,0-.52,1.51l4.39,8.66v6l-4-1.23a.9.9,0,0,0-.7,0l-4.32,1.53-4.32-1.53a1,1,0,0,0-.7,0l-4,1.23v-6l4.37-8.66a1.12,1.12,0,0,0-.5-1.51,1.08,1.08,0,0,0-1.5.49l-4.5,8.89a1.08,1.08,0,0,0-.13.51v7.76a1.18,1.18,0,0,0,.44.9,1.22,1.22,0,0,0,.68.23,1.31,1.31,0,0,0,.34-.05l5.1-1.59,4.34,1.56a1.25,1.25,0,0,0,.76,0l4.34-1.56,5,1.59a1.18,1.18,0,0,0,1-.18,1.09,1.09,0,0,0,.44-.9V11.1A1,1,0,0,0,48,10.6Z"/><path class="cls-1" d="M72.13,11.5a1.47,1.47,0,0,0-.21-.27L60.66,2.49A5.94,5.94,0,0,0,57.39.86H16.46c-1.3,0-2.8,1.25-3.2,1.56L1.85,11.2a.88.88,0,0,0-.24.27A4.14,4.14,0,0,0,.88,14a1.21,1.21,0,0,0,1.18,1.1,1.14,1.14,0,0,0,1.09-1.15,1.77,1.77,0,0,1,.24-1L14.69,4.15a4.88,4.88,0,0,1,1.77-1.05H57.39a5.19,5.19,0,0,1,1.87,1.13l11.1,8.66a2.24,2.24,0,0,1,.23,1,1.15,1.15,0,0,0,1.09,1.15h0A1.13,1.13,0,0,0,72.83,14,4,4,0,0,0,72.13,11.5Z"/><path class="cls-2" d="M41.73,34.61a1.11,1.11,0,0,0-1.11,1.13v13a1.12,1.12,0,0,0,2.23,0v-13A1.12,1.12,0,0,0,41.73,34.61Z"/><path class="cls-2" d="M46.57,34.61a1.11,1.11,0,0,0-1.11,1.13v13a1.12,1.12,0,0,0,2.23,0v-13A1.12,1.12,0,0,0,46.57,34.61Z"/><path class="cls-2" d="M36.87,34.61a1.11,1.11,0,0,0-1.12,1.13v13a1.09,1.09,0,0,0,1.12,1.1A1.12,1.12,0,0,0,38,48.73v-13A1.14,1.14,0,0,0,36.87,34.61Z"/><path class="cls-2" d="M31.23,34.61a1.14,1.14,0,0,0-1.11,1.13v13a1.13,1.13,0,0,0,2.26,0v-13A1.14,1.14,0,0,0,31.23,34.61Z"/><path class="cls-2" d="M26.73,34.61a1.13,1.13,0,0,0-1.11,1.13v13a1.13,1.13,0,0,0,2.26,0v-13A1.14,1.14,0,0,0,26.73,34.61Z"/><path class="cls-1" d="M56.81,44.15a19.72,19.72,0,0,0-18.31-21c-.44,0-.91-.07-1.41-.07a19.71,19.71,0,0,0-1.32,39.38c.46,0,.94.07,1.41.07A19.72,19.72,0,0,0,56.81,44.15ZM37.19,60.21c-.42,0-.87,0-1.26,0a17.38,17.38,0,0,1-12-6,17.21,17.21,0,0,1-4.24-12.66A17.5,17.5,0,0,1,37.1,25.31a10.37,10.37,0,0,1,1.28.05,17.29,17.29,0,0,1,11.93,6A17.05,17.05,0,0,1,54.55,44,17.46,17.46,0,0,1,37.19,60.21Z"/><path class="cls-1" d="M63.57,61.61,57,54.22a22.38,22.38,0,0,1-1.21,2l6.08,6.9a5.08,5.08,0,0,1,1.23,3.64,5.09,5.09,0,0,1-5.36,4.62,5,5,0,0,1-3.4-1.71l-6-6.83c-.7.35-1.41.7-2.13,1l6.45,7.28a7.11,7.11,0,0,0,4.93,2.51h.55a7,7,0,0,0,4.7-1.78,7.07,7.07,0,0,0,2.5-4.92A7.17,7.17,0,0,0,63.57,61.61Z"/><path class="cls-1" d="M68.36,9.87h-63a4.51,4.51,0,0,0-4.5,4.5V63.84a4.53,4.53,0,0,0,4.5,4.52H45.64l-2-2.26H5.35a2.26,2.26,0,0,1-2.23-2.26V14.37a2.27,2.27,0,0,1,2.23-2.26h63a2.25,2.25,0,0,1,2.26,2.26V63.84a2.24,2.24,0,0,1-2.26,2.26v2.26a4.51,4.51,0,0,0,4.5-4.52V14.37A4.49,4.49,0,0,0,68.36,9.87Z"/></g><path class="cls-3" d="M37.61,106.37,50.45,93.53A1.07,1.07,0,1,0,48.94,92l-11,11V78.17a1.07,1.07,0,0,0-2.14,0V103l-11-11a1.07,1.07,0,0,0-1.51,1.51L36.1,106.37a1.07,1.07,0,0,0,1.51,0Z"/></g></g></svg>