<?xml version="1.0" encoding="UTF-8" standalone="no"?>
<svg width="64px" height="66px" viewBox="0 0 64 66" version="1.1" xmlns="http://www.w3.org/2000/svg" xmlns:xlink="http://www.w3.org/1999/xlink">
    <!-- Generator: Sketch 48.2 (47327) - http://www.bohemiancoding.com/sketch -->
    <title>LWF COIN</title>
    <desc>Created with Sketch.</desc>
    <defs></defs>
    <g id="ORDER-PAYMENT" stroke="none" stroke-width="1" fill="none" fill-rule="evenodd" transform="translate(-870.000000, -1209.000000)">
        <g id="Credit-card-OPEN" transform="translate(-1.000000, 878.000000)">
            <g id="Crypto-Closed-Copy" transform="translate(0.000000, 306.000000)">
                <g id="Crypto-deposit">
                    <g id="Crypto" transform="translate(871.000000, 25.000000)">
                        <g id="LWF-COIN">
                            <g id="Shape">
                                <path d="M32.7941361,0.34375 C19.8947344,0.111208422 8.12879967,7.8726179 2.98223691,20.0091963 C-2.16432586,32.1457746 0.321888842,46.2677181 9.28167539,55.790625 C15.1439548,62.0539419 23.2050924,65.6509927 31.6682723,65.78 L32.2446073,65.78 C49.6300647,65.6019027 63.6745977,51.1741565 63.8243797,33.3385552 C63.9741618,15.5029539 50.1740218,0.829110673 32.7941361,0.34375 Z M61.7817801,33.5946875 C61.5702951,45.8549523 54.1808778,56.7774312 43.0589145,61.2694143 C31.9369513,65.7613974 19.2724957,62.9383569 10.9704712,54.1165625 C2.74226045,45.3647842 0.406646008,32.4165998 5.0372089,21.2237301 C9.66777179,10.0308605 20.3686656,2.75872102 32.2211518,2.75 L32.7539267,2.75 C49.0665814,3.06425223 62.0525781,16.8661095 61.7817801,33.6015625 L61.7817801,33.5946875 Z" fill="#161F38" fill-rule="nonzero"></path>
                                <path d="M37.7465969,59.7609375 L38.024712,61.105 C48.646177,58.7959929 57.0014386,50.3826913 59.4496335,39.53125 L58.1428272,39.221875 C55.8106783,49.5522417 47.8552984,57.5606756 37.7432461,59.7575 L37.7465969,59.7609375 Z" fill="#161F38" fill-rule="nonzero"></path>
                                <path d="M30.2843979,4.46875 C28.0111942,4.6344646 25.766267,5.08467972 23.5995812,5.809375 L24.0150785,7.115625 C36.9570222,2.80741552 50.981446,9.21498227 56.5176963,21.965625 L57.740733,21.4053125 C52.9461625,10.4208529 41.9898567,3.66240692 30.2843979,4.46875 Z" fill="#161F38" fill-rule="nonzero"></path>
                                <path d="M11.6707853,16.005 L10.6286911,15.125 C1.64858639,26.5271875 2.68062827,43.4121875 12.940733,53.58375 C15.2713187,55.8969691 17.9796461,57.7725162 20.9424084,59.125 L21.4885864,57.8703125 C18.6683866,56.5822321 16.0904874,54.7962752 13.8722513,52.59375 C4.0913089,42.91375 3.12293194,26.8434375 11.6707853,16.005 Z" fill="#161F38" fill-rule="nonzero"></path>
                                <path d="M36.074555,24.770625 C34.1385107,23.7863781 32.2906807,22.6292035 30.5524607,21.3125 C29.6648998,20.6376108 28.8157597,19.9111079 28.0092147,19.1365625 C27.6037696,18.7378125 27.1983246,18.3321875 26.8096335,17.895625 C26.408032,17.4553028 26.0342189,16.9891479 25.6904712,16.5 C24.709179,15.0794773 22.8860011,14.5685713 21.3370263,15.2800416 C19.7880515,15.9915118 18.9452559,17.7269445 19.3245709,19.4239655 C19.7038858,21.1209865 21.1995285,22.3063329 22.8959162,22.254375 C23.4844623,22.2421991 24.0731655,22.268607 24.6584293,22.3334375 C25.2314136,22.3884375 25.7909948,22.474375 26.333822,22.5671875 C27.4229567,22.7614835 28.5003288,23.0197203 29.5606283,23.340625 C31.6369332,23.9683954 33.6552235,24.7828004 35.5920419,25.774375 C37.5300944,26.7488789 39.3792799,27.8992975 41.1174869,29.211875 C42.0055881,29.8872886 42.8547623,30.6149685 43.660733,31.39125 C44.066178,31.79 44.4682723,32.195625 44.8569634,32.635625 L44.9038743,32.690625 C44.8067016,32.924375 44.706178,33.1546875 44.6023037,33.378125 C45.0749493,34.858521 46.2468855,35.9921957 47.7151832,36.389375 C48.4319705,36.0402298 49.1748703,35.7505533 49.9367539,35.523125 C51.1163509,35.1668384 52.0388792,34.2204362 52.386178,33.0103125 C52.8251917,31.4255082 52.1812952,29.7347561 50.8113089,28.875 C50.747644,28.83375 50.6839791,28.7959375 50.6203141,28.758125 L50.6002094,28.758125 C50.040829,28.4383982 49.4073595,28.2803876 48.7673298,28.3009375 C48.1778066,28.3160286 47.5879495,28.2919156 47.001466,28.22875 C46.4284817,28.17375 45.8689005,28.09125 45.3260733,27.9984375 C44.2368743,27.8059371 43.1594658,27.5488393 42.099267,27.2284375 C40.023391,26.5957442 38.0070633,25.7731728 36.074555,24.770625 Z" fill="#C94644" fill-rule="nonzero"></path>
                                <path d="M43.1380105,36.0009375 L43.0408377,36.1521875 C42.0427695,37.662342 40.9037107,39.0691906 39.6397906,40.3528125 C38.3841359,41.6451663 37.010749,42.8112159 35.5384293,43.835 C33.9975092,44.9335944 32.3027591,45.7855125 30.5122513,46.3615625 C29.3463342,46.7185475 28.4342624,47.6542227 28.0862827,48.8503125 C27.7271466,50.1072733 28.0489557,51.4653082 28.9304875,52.4128585 C29.8120194,53.3604088 31.1193484,53.7535191 32.3600164,53.4441085 C33.6006843,53.1346979 34.5862042,52.1697733 34.9453403,50.9128125 C35.5068589,49.0759683 36.3372864,47.33736 37.4081675,45.7565625 C38.4061585,44.2461661 39.5427907,42.8372405 40.8025131,41.5490625 C42.0545281,40.2498983 43.4270233,39.0790478 44.9005236,38.053125 L45.0781152,37.93625 C44.7117719,37.6911091 44.3685062,37.4114613 44.0527749,37.1009375 C43.7121514,36.7671688 43.4056402,36.3985905 43.1380105,36.0009375 Z" fill="#C94644" fill-rule="nonzero"></path>
                                <path d="M48.921466,38.534375 C51.526729,38.4963421 53.8515154,36.8475764 54.8065048,34.3606366 C55.7614943,31.8736968 55.1574813,29.0413035 53.2774869,27.190625 C52.06841,25.9911344 50.4457737,25.3312149 48.7639791,25.355 C47.233679,25.3777412 45.7610606,25.9576659 44.6090052,26.99125 L44.471623,27.1115625 C44.7865969,27.1803125 45.0982199,27.2421875 45.4098429,27.2971875 C45.721466,27.3521875 46.0397906,27.4003125 46.3849215,27.445 L46.4016754,27.445 L46.4318325,27.424375 C47.1521385,27.021588 47.9571113,26.8045193 48.7773822,26.791875 C51.088482,26.7547027 53.1263592,28.3392997 53.7160362,30.6320361 C54.3057132,32.9247725 53.2951539,35.334513 51.2670157,36.471875 C50.5467595,36.8747909 49.7417552,37.0918681 48.921466,37.104375 C46.3751986,37.1251834 44.216047,35.1892489 43.895288,32.5978125 C43.6573822,32.346875 43.4194764,32.113125 43.208377,31.9103125 C42.9972775,31.7075 42.739267,31.466875 42.4946597,31.2503125 L42.4946597,31.44625 C42.3591179,33.2791738 42.9760151,35.0868683 44.1963833,36.4328124 C45.4167514,37.7787565 47.1296561,38.5406006 48.921466,38.534375 Z" fill="#161F38" fill-rule="nonzero"></path>
                                <path d="M26.833089,23.4609375 L26.9235602,23.381875 C26.692356,23.33375 26.4611518,23.2890625 26.2299476,23.2478125 C25.8446073,23.1825 25.3956021,23.1103125 24.9231414,23.0553125 C24.2206314,23.4192501 23.4450097,23.6099341 22.6580105,23.6121875 C20.3491377,23.6102462 18.3385233,21.9948183 17.7833921,19.6956759 C17.2282609,17.3965336 18.2714157,15.005112 20.3124607,13.8978125 C21.0353882,13.5056584 21.8402455,13.2992369 22.6580105,13.29625 C25.1702896,13.3024483 27.2922609,15.2107094 27.6272251,17.765 C27.9187435,18.074375 28.206911,18.363125 28.4615707,18.610625 C28.6469808,18.789375 28.8368586,18.9658333 29.0312042,19.14 L29.0312042,19.0265625 C29.1915925,17.1895946 28.5942377,15.3677414 27.3842747,14.0036449 C26.1743116,12.6395483 24.4624878,11.8580638 22.664712,11.8490625 C20.051324,11.8446795 17.6958745,13.465027 16.7076768,15.9469927 C15.719479,18.4289583 16.2955586,21.2776909 18.1646073,23.1515625 C19.3586821,24.3665366 20.9728639,25.0474554 22.6546597,25.045625 C24.1855143,25.0421139 25.665304,24.4804468 26.8297382,23.4609375 L26.833089,23.4609375 Z" fill="#161F38" fill-rule="nonzero"></path>
                                <path d="M37.7901571,48.8125 C37.7026619,48.3004721 37.5564457,47.8008564 37.354555,47.3240625 L37.3310995,47.2725 C36.9956651,47.8407608 36.6881261,48.4258657 36.4096335,49.025625 L36.4096335,49.0565625 C36.8736888,51.8519426 35.0504034,54.50715 32.328377,55 C32.0407225,55.0519319 31.7492468,55.0783836 31.4571728,55.0790625 C29.530993,55.0863247 27.7701838,53.9636469 26.9237766,52.1886056 C26.0773694,50.4135643 26.2942548,48.2984053 27.4821719,46.7428969 C28.670089,45.1873885 30.6200724,44.4651589 32.5026178,44.8834375 L32.5495288,44.8834375 L32.593089,44.8628125 C32.8510995,44.7321875 33.1225131,44.584375 33.4240838,44.419375 C33.608377,44.31625 33.7893194,44.2096875 33.9702618,44.0996875 L34.2048168,43.95875 L33.9535079,43.8521875 C33.1678896,43.5114169 32.3235328,43.3360712 31.4705759,43.3365625 C28.6742644,43.3398718 26.2020159,45.200515 25.359445,47.9358711 C24.5168741,50.6712273 25.4980121,53.6513856 27.784712,55.3025 C28.8623719,56.0847627 30.1504249,56.5040026 31.4705759,56.5021875 C31.8434955,56.5017214 32.2156859,56.4683695 32.5830366,56.4025 C36.0599419,55.7751478 38.3879225,52.3818379 37.7901571,48.8125 Z" fill="#161F38" fill-rule="nonzero"></path>
                            </g>
                        </g>
                    </g>
                </g>
            </g>
        </g>
    </g>
</svg>