<?xml version="1.0" encoding="UTF-8" standalone="no"?>
<svg width="75px" height="45px" viewBox="0 0 75 45" version="1.1" xmlns="http://www.w3.org/2000/svg" xmlns:xlink="http://www.w3.org/1999/xlink">
    <!-- Generator: Sketch 48.2 (47327) - http://www.bohemiancoding.com/sketch -->
    <title>MasterCard-dark Copy</title>
    <desc>Created with Sketch.</desc>
    <defs></defs>
    <g id="ORDER-PAYMENT" stroke="none" stroke-width="1" fill="none" fill-rule="evenodd" transform="translate(-448.000000, -1065.000000)">
        <g id="Credit-card-OPEN" transform="translate(-1.000000, 878.000000)">
            <g id="MasterCard-dark-Copy" transform="translate(449.000000, 187.000000)">
                <rect id="Rectangle" fill="#000066" x="0" y="0" width="75" height="45" rx="4"></rect>
                <path d="M42.0964657,22.8640516 C42.0964657,30.9477433 35.5439777,37.5 27.4605173,37.5 C19.3768256,37.5 12.823875,30.9477433 12.823875,22.8640516 C12.823875,14.7805912 19.3768256,8.22764062 27.4605173,8.22764062 C35.5439777,8.22764062 42.0964657,14.7805912 42.0964657,22.8640516" id="Fill-333" fill="#CC0000"></path>
                <path d="M47.1105796,8.22764062 C43.327905,8.22764062 39.8824654,9.66239239 37.2845076,12.0160977 C36.7559879,12.4958132 36.2626257,13.0139244 35.8071967,13.5655741 L38.7643628,13.5655741 C39.168212,14.0573172 39.5403732,14.5742719 39.8801524,15.1157444 L34.6911759,15.1157444 C34.3807717,15.61327 34.0985861,16.1302247 33.8478573,16.6659147 L40.7230083,16.6659147 C40.9580088,17.1676037 41.1647907,17.6843271 41.3428914,18.2153911 L33.2279742,18.2153911 C33.0591255,18.720087 32.9166449,19.237273 32.8028455,19.7646362 L41.7675576,19.7646362 C41.9822036,20.7638507 42.0964657,21.8005358 42.0964657,22.8640516 C42.0964657,24.4889317 41.8316276,26.05298 41.3428914,27.5136373 L33.2279742,27.5136373 C33.406075,28.0442387 33.6128569,28.5616561 33.8473947,29.0640389 L40.7230083,29.0640389 C40.4718169,29.5983411 40.1910191,30.1157585 39.8787646,30.6139779 L34.6911759,30.6139779 C35.0295673,31.1538313 35.4024223,31.6714799 35.8071967,32.1625291 L38.7634376,32.1625291 C38.3089338,32.7146414 37.815109,33.2327526 37.2849702,33.7124681 C39.8826967,36.0661734 43.327905,37.5 47.1105796,37.5 C55.1938087,37.5 61.746528,30.9477433 61.746528,22.8640516 C61.746528,14.7812851 55.1938087,8.22764062 47.1105796,8.22764062" id="Fill-334" fill="#FF9900"></path>
                <path d="M24.0426023,24.4664956 C23.8758352,24.4475291 23.8022819,24.4415153 23.6877886,24.4415153 C22.7871077,24.4415153 22.3316787,24.7505316 22.3316787,25.3609314 C22.3316787,25.7367933 22.5539577,25.9757259 22.9009072,25.9757259 C23.5483149,25.9757259 24.0148463,25.3595436 24.0426023,24.4664956 L24.0426023,24.4664956 Z M25.1984066,27.1567419 L23.8813864,27.1567419 L23.9116867,26.5310764 C23.5101504,27.0251324 22.9742291,27.2610581 22.2463291,27.2610581 C21.3854318,27.2610581 20.7949238,26.5889013 20.7949238,25.6121228 C20.7949238,24.1417509 21.821663,23.2843231 23.5843976,23.2843231 C23.7650427,23.2843231 23.9958797,23.3009767 24.232268,23.3308143 C24.2813035,23.131434 24.2942563,23.0467783 24.2942563,22.939224 C24.2942563,22.5395382 24.0176219,22.389656 23.2753813,22.389656 C22.4979831,22.3817918 21.8568205,22.5753896 21.5933702,22.6618957 C21.6100238,22.5615117 21.8137988,21.3039354 21.8137988,21.3039354 C22.6053062,21.071248 23.1275808,20.9842793 23.7153132,20.9842793 C25.0799812,20.9842793 25.8027926,21.5967608 25.8011735,22.7546469 C25.8039491,23.0652823 25.7523693,23.447158 25.6725709,23.9509287 C25.5347163,24.8252414 25.2386528,26.7003877 25.1984066,27.1567419 L25.1984066,27.1567419 Z" id="Fill-336" fill="#000066"></path>
                <polyline id="Fill-337" fill="#000066" points="20.1299373 27.1567419 18.5406773 27.1567419 19.4515354 21.4501168 17.4186427 27.1567419 16.335929 27.1567419 16.2020065 21.4820362 15.2453511 27.1567419 13.7580943 27.1567419 15.0004048 19.7327169 17.2854141 19.7327169 17.4235 23.8882465 18.817543 19.7327169 21.3588323 19.7327169 20.1299373 27.1567419"></polyline>
                <path d="M49.0738511,24.4664956 C48.9070841,24.4475291 48.834456,24.4415153 48.720194,24.4415153 C47.8188192,24.4415153 47.3638528,24.7505316 47.3638528,25.3609314 C47.3638528,25.7367933 47.5852065,25.9757259 47.9330812,25.9757259 C48.5800264,25.9757259 49.0467891,25.3595436 49.0738511,24.4664956 L49.0738511,24.4664956 Z M50.2303494,27.1567419 L48.9137918,27.1567419 L48.9436294,26.5310764 C48.5420932,27.0251324 48.0064032,27.2610581 47.2789658,27.2610581 C46.416912,27.2610581 45.8270978,26.5889013 45.8270978,25.6121228 C45.8270978,24.1417509 46.8542996,23.2843231 48.6165717,23.2843231 C48.7969854,23.2843231 49.0273599,23.3009767 49.2639794,23.3308143 C49.3132463,23.131434 49.3259678,23.0467783 49.3259678,22.939224 C49.3259678,22.5395382 49.0493334,22.389656 48.3070928,22.389656 C47.5296946,22.3817918 46.8887633,22.5753896 46.6243878,22.6618957 C46.6419665,22.5615117 46.8462041,21.3039354 46.8462041,21.3039354 C47.637249,21.071248 48.1599862,20.9842793 48.7467934,20.9842793 C50.1123866,20.9842793 50.8342728,21.5967608 50.832885,22.7546469 C50.8356606,23.0652823 50.7845434,23.447158 50.7042824,23.9509287 C50.5668904,24.8252414 50.270133,26.7003877 50.2303494,27.1567419 L50.2303494,27.1567419 Z" id="Fill-338" fill="#000066"></path>
                <path d="M32.2599852,27.064916 C31.8249105,27.2018454 31.4860565,27.2610581 31.1182901,27.2610581 C30.306197,27.2610581 29.8627955,26.7942954 29.8627955,25.9345546 C29.8514618,25.6676348 29.9796019,24.9656403 30.0804485,24.3254028 C30.1725058,23.761263 30.7697215,20.2052621 30.7697215,20.2052621 L32.3488042,20.2052621 L32.1644584,21.119127 L33.1185695,21.119127 L32.9032295,22.570301 L31.9458802,22.570301 C31.7624596,23.7182412 31.5008597,25.1485983 31.4978528,25.338264 C31.4978528,25.6495934 31.663926,25.7855976 32.0421009,25.7855976 C32.2232085,25.7855976 32.3633761,25.7670936 32.4704679,25.7286979 L32.2599852,27.064916" id="Fill-339" fill="#000066"></path>
                <path d="M37.1024748,27.0161118 C36.5598458,27.1819536 36.0368773,27.2629085 35.4819894,27.2610581 C33.7137035,27.2587451 32.7919744,26.3358595 32.7919744,24.5675736 C32.7919744,22.503918 33.9644323,20.9842793 35.5564679,20.9842793 C36.8584536,20.9842793 37.6904385,21.8349994 37.6904385,23.1686733 C37.6904385,23.6120747 37.6335388,24.0441425 37.4954529,24.6538484 L34.3502402,24.6538484 C34.2440736,25.5297802 34.8042814,25.8945397 35.7236975,25.8945397 C36.2883,25.8945397 36.798547,25.7779647 37.3654625,25.514977 L37.1024748,27.0161118 L37.1024748,27.0161118 Z M36.2147467,23.4369809 C36.2237674,23.3109225 36.3819764,22.3591245 35.4792138,22.3591245 C34.9768309,22.3591245 34.6166974,22.7426193 34.4707473,23.4369809 L36.2147467,23.4369809 L36.2147467,23.4369809 Z" id="Fill-340" fill="#000066"></path>
                <path d="M26.1513612,23.0280431 C26.1513612,23.7911006 26.5214407,24.31777 27.3610584,24.7135237 C28.0043028,25.0162949 28.1044555,25.1058079 28.1044555,25.379898 C28.1044555,25.7557599 27.8204196,25.9264591 27.1919784,25.9264591 C26.7175828,25.9264591 26.2767256,25.8519806 25.7680977,25.6875265 C25.7680977,25.6875265 25.5596967,27.0188873 25.5497508,27.0824948 C25.9108096,27.160674 26.2327787,27.2335334 27.2033121,27.2610581 C28.879772,27.2610581 29.6541632,26.622671 29.6541632,25.2429686 C29.6541632,24.413528 29.3303437,23.9266422 28.5342103,23.5602636 C27.8682986,23.2547167 27.7912758,23.186252 27.7912758,22.9045291 C27.7912758,22.5781652 28.0556513,22.4113982 28.5689052,22.4113982 C28.8809285,22.4113982 29.3067511,22.4447053 29.7108316,22.5018363 L29.9368114,21.1015482 C29.5255606,21.0360904 28.9015142,20.9842793 28.5383737,20.9842793 C26.7610671,20.9842793 26.1455787,21.9124848 26.1513612,23.0280431" id="Fill-341" fill="#000066"></path>
                <path d="M44.8304276,21.1436448 C45.2717474,21.1436448 45.6839234,21.2583694 46.2503762,21.5444871 L46.5105883,19.9332537 C46.2769757,19.841659 45.4579436,19.3048125 44.7640446,19.3048125 C43.7009914,19.3048125 42.8012357,19.8331009 42.1695564,20.7030189 C41.2471333,20.3977034 40.8675706,21.0148109 40.4031209,21.6300679 L39.990251,21.7262886 C40.0214765,21.5239014 40.0499263,21.322902 40.0409056,21.119127 L38.5809422,21.119127 C38.3820245,22.9882595 38.0288299,24.8807533 37.7524268,26.7505797 L37.68003,27.1567419 L39.2697526,27.1567419 C39.5350533,25.4326343 39.6800782,24.3291036 39.7684346,23.5815431 L40.3670381,23.2498594 C40.4570137,22.9165566 40.7361924,22.8046076 41.297788,22.8182543 C41.224466,23.2119263 41.1846824,23.6266466 41.1846824,24.0557074 C41.1846824,26.0312378 42.251899,27.2610581 43.9616661,27.2610581 C44.402292,27.2610581 44.7806982,27.2032332 45.3665802,27.0436364 L45.645065,25.3519107 C45.1181644,25.610735 44.6867905,25.73263 44.2956628,25.73263 C43.371852,25.73263 42.8128007,25.0505273 42.8128007,23.9238666 C42.8128007,22.2888094 43.6436291,21.1436448 44.8304276,21.1436448" id="Fill-342" fill="#000066"></path>
                <path d="M58.2832783,19.7327169 L57.9300837,21.8775586 C57.4963968,21.3060171 57.0296341,20.8919907 56.4134518,20.8919907 C55.6117672,20.8919907 54.8820168,21.4998462 54.4041517,22.3949759 C53.7387026,22.25689 53.0510487,22.0221209 53.0510487,22.0221209 L53.0505861,22.0279034 C53.1035537,21.5276022 53.1259898,21.2232118 53.1206699,21.119127 L51.6609378,21.119127 C51.462714,22.9882595 51.1090568,24.8807533 50.832885,26.7505797 L50.7597943,27.1567419 L52.3499795,27.1567419 C52.5646255,25.7633928 52.728617,24.6050441 52.8495867,23.6877097 C53.3931409,23.1964292 53.6651493,22.7692188 54.2130982,22.7969747 C53.9700023,23.3849384 53.8282156,24.0617212 53.8282156,24.7560828 C53.8282156,26.2648505 54.5910418,27.2610581 55.7466149,27.2610581 C56.3290275,27.2610581 56.7758984,27.0600587 57.211667,26.5946838 L57.1367259,27.1562793 L58.6401736,27.1562793 L59.8505647,19.7327169 L58.2832783,19.7327169 L58.2832783,19.7327169 Z M56.2961829,25.762005 C55.7554043,25.762005 55.4815455,25.3609314 55.4815455,24.571737 C55.4815455,23.3849384 55.9934117,22.5437016 56.7139101,22.5437016 C57.2600086,22.5437016 57.5560721,22.9591158 57.5560721,23.7261054 C57.5560721,24.9230812 57.0356479,25.762005 56.2961829,25.762005 L56.2961829,25.762005 Z" id="Fill-343" fill="#000066"></path>
                <polyline id="Fill-344" fill="#FFFFFF" points="20.5869854 26.7161161 18.998188 26.7161161 19.9088148 21.009491 17.8763847 26.7161161 16.7932084 26.7161161 16.6595172 21.0425668 15.7026305 26.7161161 14.2153737 26.7161161 15.4576842 19.2927849 17.7426935 19.2927849 17.8065322 23.8882465 19.3483757 19.2927849 21.8161118 19.2927849 20.5869854 26.7161161"></polyline>
                <path d="M24.4998817,24.026795 C24.3333459,24.0073658 24.2597926,24.0020459 24.1452993,24.0020459 C23.2446184,24.0020459 22.7889581,24.3105997 22.7889581,24.9205369 C22.7889581,25.2959362 23.0114684,25.5362565 23.3586492,25.5362565 C24.0058256,25.5362565 24.472357,24.9200743 24.4998817,24.026795 L24.4998817,24.026795 Z M25.6554548,26.7161161 L24.3391284,26.7161161 L24.3691974,26.0909131 C23.9676612,26.5847379 23.4317399,26.8208948 22.7038398,26.8208948 C21.8427112,26.8208948 21.2524345,26.1478128 21.2524345,25.1712657 C21.2524345,23.7006625 22.279405,22.8443911 24.0421397,22.8443911 C24.2223221,22.8443911 24.4531591,22.8608134 24.6897787,22.891345 C24.7388142,22.6915021 24.751767,22.6066151 24.751767,22.4985982 C24.751767,22.0991436 24.4751326,21.950418 23.732892,21.950418 C22.9552626,21.941166 22.3143312,22.1347638 22.0506496,22.2210386 C22.0675345,22.1211171 22.2710782,20.8635409 22.2710782,20.8635409 C23.0628169,20.631316 23.5850915,20.5436535 24.172824,20.5436535 C25.5372606,20.5436535 26.2598408,21.1568288 26.2586843,22.3142523 C26.2612286,22.6244252 26.2101113,23.0081513 26.1300817,23.5105342 C25.9919958,24.384153 25.6959322,26.2604558 25.6554548,26.7161161 L25.6554548,26.7161161 Z" id="Fill-345" fill="#FFFFFF"></path>
                <path d="M46.9676365,19.4926278 L46.7074243,21.1036299 C46.1400463,20.8184374 45.7290268,20.7030189 45.2881696,20.7030189 C44.1018337,20.7030189 43.2696175,21.8495713 43.2696175,23.4848599 C43.2696175,24.6115205 43.8289001,25.2922354 44.7527109,25.2922354 C45.14407,25.2922354 45.576369,25.1712657 46.1021131,24.9115162 L45.8229344,26.6032419 C45.2379776,26.7626073 44.8593401,26.8208948 44.4189455,26.8208948 C42.708022,26.8208948 41.6424244,25.5908433 41.6424244,23.6157755 C41.6424244,20.9618432 43.115572,19.1070513 45.221324,19.1070513 C45.915223,19.1070513 46.7347177,19.4010331 46.9676365,19.4926278" id="Fill-346" fill="#FFFFFF"></path>
                <path d="M49.5308992,24.026795 C49.3652887,24.0073658 49.2915041,24.0020459 49.1772421,24.0020459 C48.2770238,24.0020459 47.8211322,24.3105997 47.8211322,24.9205369 C47.8211322,25.2959362 48.0434112,25.5362565 48.3903606,25.5362565 C49.0373058,25.5362565 49.5042998,24.9200743 49.5308992,24.026795 L49.5308992,24.026795 Z M50.6873975,26.7161161 L49.3710712,26.7161161 L49.4009088,26.0909131 C48.9993726,26.5847379 48.4634513,26.8208948 47.7362452,26.8208948 C46.8741914,26.8208948 46.2846086,26.1478128 46.2846086,25.1712657 C46.2846086,23.7006625 47.3106538,22.8443911 49.0738511,22.8443911 C49.2540336,22.8443911 49.484408,22.8608134 49.7207963,22.891345 C49.7700631,22.6915021 49.7830159,22.6066151 49.7830159,22.4985982 C49.7830159,22.0991436 49.5070754,21.950418 48.7643722,21.950418 C47.9874366,21.941166 47.3467366,22.1347638 47.0825924,22.2210386 C47.099246,22.1211171 47.303021,20.8635409 47.303021,20.8635409 C48.0947597,20.631316 48.6165717,20.5436535 49.2043041,20.5436535 C50.5687408,20.5436535 51.2920148,21.1568288 51.2901644,22.3142523 C51.2934026,22.6244252 51.2418228,23.0081513 51.1617931,23.5105342 C51.0241698,24.384153 50.7281063,26.2604558 50.6873975,26.7161161 L50.6873975,26.7161161 Z" id="Fill-347" fill="#FFFFFF"></path>
                <path d="M32.7170333,26.6245214 C32.2824212,26.7614508 31.9431046,26.8208948 31.5758008,26.8208948 C30.7634764,26.8208948 30.3198436,26.3539008 30.3198436,25.4950852 C30.3087413,25.2272402 30.4371126,24.5264022 30.5381905,23.8854709 C30.6295539,23.3208684 31.2270009,19.7653301 31.2270009,19.7653301 L32.8065463,19.7653301 L32.6217378,20.6789638 L33.4326744,20.6789638 L33.2166405,22.1296752 L32.4031597,22.1296752 C32.219739,23.2787719 31.9581391,24.7082038 31.9549009,24.8978695 C31.9549009,25.210124 32.121668,25.345203 32.4993803,25.345203 C32.6804879,25.345203 32.8204242,25.327393 32.9279786,25.288072 L32.7170333,26.6245214" id="Fill-348" fill="#FFFFFF"></path>
                <path d="M37.5604481,26.5766424 C37.0175878,26.7429469 36.4934628,26.8213574 35.9392688,26.8208948 C34.1707516,26.8197383 33.2497164,25.8956962 33.2497164,24.1276416 C33.2497164,22.0632922 34.4219431,20.5436535 36.0128221,20.5436535 C37.3161957,20.5436535 38.1477179,21.3943736 38.1477179,22.7296665 C38.1477179,23.1721428 38.089893,23.6039792 37.9534262,24.2139164 L34.8077509,24.2139164 C34.7011217,25.0898482 35.2620234,25.4553017 36.1805144,25.4553017 C36.7455794,25.4553017 37.2555952,25.338264 37.8232045,25.0745824 L37.5604481,26.5766424 L37.5604481,26.5766424 Z M36.6724887,22.996355 C36.6810468,22.8700654 36.8399497,21.9187299 35.9374184,21.9187299 C35.434573,21.9187299 35.0744394,22.3029186 34.9280267,22.996355 L36.6724887,22.996355 L36.6724887,22.996355 Z" id="Fill-349" fill="#FFFFFF"></path>
                <path d="M26.6084094,22.5874172 C26.6084094,23.3518626 26.9789514,23.8773754 27.8188005,24.2735917 C28.4620448,24.5761317 28.561735,24.6656446 28.561735,24.939966 C28.561735,25.3162906 28.2779303,25.4860645 27.6490265,25.4860645 C27.1750935,25.4860645 26.7340051,25.4125112 26.2251458,25.2485198 C26.2251458,25.2485198 26.0169761,26.5789554 26.0072615,26.6416376 C26.368089,26.7207421 26.6902894,26.7929076 27.6603602,26.8208948 C29.3372827,26.8208948 30.111674,26.1827391 30.111674,24.8030366 C30.111674,23.9731335 29.7873918,23.486479 28.9914897,23.1210255 C28.3253467,22.8145535 28.2487865,22.7467827 28.2487865,22.4645971 C28.2487865,22.1382333 28.5129307,21.9703097 29.0266473,21.9703097 C29.3379766,21.9703097 29.7642619,22.0050047 30.1681111,22.0619044 L30.3943221,20.6618476 C29.98284,20.5968524 29.3592562,20.5436535 28.9958844,20.5436535 C27.2181152,20.5436535 26.6030895,21.4720903 26.6084094,22.5874172" id="Fill-350" fill="#FFFFFF"></path>
                <path d="M59.0974531,26.7161161 L57.5944679,26.7161161 L57.6689464,26.1542892 C57.2329465,26.6198954 56.7863069,26.8208948 56.2038943,26.8208948 C55.0492465,26.8208948 54.2852637,25.8258437 54.2852637,24.315457 C54.2852637,22.3073133 55.4697492,20.6146624 56.8707313,20.6146624 C57.4869135,20.6146624 57.953445,20.8663165 58.388057,21.4380892 L58.7405577,19.2927849 L60.3076129,19.2927849 L59.0974531,26.7161161 L59.0974531,26.7161161 Z M56.753231,25.3211479 C57.4936212,25.3211479 58.0131203,24.4826866 58.0131203,23.2868674 C58.0131203,22.5196464 57.717288,22.1028444 57.1711895,22.1028444 C56.4504598,22.1028444 55.9388249,22.9443126 55.9388249,24.1315737 C55.9388249,24.9216934 56.212915,25.3211479 56.753231,25.3211479 L56.753231,25.3211479 Z" id="Fill-351" fill="#FFFFFF"></path>
                <path d="M52.1186798,20.6789638 C51.9199934,22.5476337 51.5665675,24.4401275 51.2901644,26.3101852 L51.2177676,26.7161161 L52.8070276,26.7161161 C53.3755621,23.024111 53.5122602,22.3036125 54.4041517,22.3935881 C54.5459384,21.6379321 54.8103139,20.9761838 55.0071499,20.6426497 C54.3417008,20.5038699 53.9700023,20.8799632 53.4828852,21.5946791 C53.5217435,21.2854315 53.5918273,20.9854358 53.5786432,20.6789638 L52.1186798,20.6789638" id="Fill-352" fill="#FFFFFF"></path>
                <path d="M39.0389155,20.6789638 C38.8393039,22.5476337 38.4854154,24.4401275 38.2094749,26.3101852 L38.1373094,26.7161161 L39.727032,26.7161161 C40.2957978,23.024111 40.4320333,22.3036125 41.322537,22.3935881 C41.4652489,21.6379321 41.730087,20.9761838 41.9264604,20.6426497 C41.2617052,20.5038699 40.8893128,20.8799632 40.4031209,21.5946791 C40.4415166,21.2854315 40.512063,20.9854358 40.498185,20.6789638 L39.0389155,20.6789638" id="Fill-353" fill="#FFFFFF"></path>
            </g>
        </g>
    </g>
</svg>