<svg xmlns="http://www.w3.org/2000/svg" viewBox="0 0 72.91 106.88"><defs><style>.cls-1,.cls-2{fill:#f7a800;stroke:#f7a800;stroke-miterlimit:10;}.cls-1{stroke-width:0.91px;}.cls-2{stroke-width:2.09px;}</style></defs><title>Sender2</title><g id="Layer_2" data-name="Layer 2"><g id="Capa_1" data-name="Capa 1"><path class="cls-1" d="M15.52,106.42a1.16,1.16,0,0,1-.4-.08,1.18,1.18,0,0,1-.57-.57,1.08,1.08,0,0,1-.08-.4,1.16,1.16,0,0,1,.08-.4,1.12,1.12,0,0,1,.23-.33.78.78,0,0,1,.33-.22,1,1,0,0,1,.8,0,1,1,0,0,1,.33.22,1.52,1.52,0,0,1,.23.33,1.13,1.13,0,0,1,.07.4,1.06,1.06,0,0,1-.07.4,1,1,0,0,1-.23.33A1.05,1.05,0,0,1,15.52,106.42Z"/><path class="cls-1" d="M57.67,105.37a1,1,0,0,1,1.05-1h0a1,1,0,0,1,1,1h0a1,1,0,0,1-1,1.05h0A1,1,0,0,1,57.67,105.37Zm-3.32,0a1,1,0,0,1,1.05-1h0a1,1,0,0,1,1,1h0a1,1,0,0,1-1,1.05h0A1,1,0,0,1,54.35,105.37Zm-3.32,0a1,1,0,0,1,1.05-1h0a1,1,0,0,1,1,1h0a1,1,0,0,1-1,1.05h0A1,1,0,0,1,51,105.37Zm-3.32,0a1,1,0,0,1,1.05-1h0a1,1,0,0,1,1,1h0a1,1,0,0,1-1,1.05h0A1,1,0,0,1,47.71,105.37Zm-3.32,0a1,1,0,0,1,1.05-1h0a1,1,0,0,1,1,1h0a1,1,0,0,1-1,1.05h0A1,1,0,0,1,44.38,105.37Zm-3.32,0a1,1,0,0,1,1-1h0a1,1,0,0,1,1.05,1h0a1,1,0,0,1-1.05,1.05h0A1,1,0,0,1,41.06,105.37Zm-3.32,0a1,1,0,0,1,1-1h0a1,1,0,0,1,1.05,1h0a1,1,0,0,1-1.05,1.05h0A1,1,0,0,1,37.74,105.37Zm-3.32,0a1,1,0,0,1,1-1h0a1,1,0,0,1,1.05,1h0a1,1,0,0,1-1.05,1.05h0A1,1,0,0,1,34.42,105.37Zm-3.32,0a1,1,0,0,1,1-1h0a1,1,0,0,1,1.05,1h0a1,1,0,0,1-1.05,1.05h0A1,1,0,0,1,31.1,105.37Zm-3.32,0a1,1,0,0,1,1-1h0a1,1,0,0,1,1.05,1h0a1,1,0,0,1-1.05,1.05h0A1,1,0,0,1,27.78,105.37Zm-3.32,0a1,1,0,0,1,1-1h0a1.05,1.05,0,0,1,1.05,1h0a1.06,1.06,0,0,1-1.05,1.05h0A1,1,0,0,1,24.45,105.37Zm-3.34,0a1.05,1.05,0,0,1,1.05-1h0a1,1,0,0,1,1,1h0a1,1,0,0,1-1,1.05h0A1.06,1.06,0,0,1,21.12,105.37Zm-3.32,0a1,1,0,0,1,1.05-1h0a1,1,0,0,1,1,1h0a1,1,0,0,1-1,1.05h0A1,1,0,0,1,17.79,105.37Zm43.22,0a1,1,0,0,1,.9-1.17h0a1.06,1.06,0,0,1,1.17.9h0a1,1,0,0,1-.92,1.17h0l-.12,0h0A1,1,0,0,1,61,105.42Zm3.26-.6a1,1,0,0,1,.52-1.39h0a1,1,0,0,1,1.39.5h0a1.06,1.06,0,0,1-.5,1.39h0a1.1,1.1,0,0,1-.45.1h0A1.09,1.09,0,0,1,64.27,104.82Zm2.94-1.59a1,1,0,0,1,0-1.47h0a1,1,0,0,1,1.47.05h0a1.05,1.05,0,0,1-.05,1.48h0a1,1,0,0,1-.7.27h0A1,1,0,0,1,67.2,103.23Zm2.3-2.39a1.07,1.07,0,0,1-.4-1.44h0A1.05,1.05,0,0,1,70.54,99h0a1,1,0,0,1,.38,1.42h0a1.05,1.05,0,0,1-.9.53h0A1.14,1.14,0,0,1,69.51,100.85Zm1.47-3a1.06,1.06,0,0,1-.82-1.24h0a1,1,0,0,1,1.24-.8h0a1,1,0,0,1,.82,1.24h0a1,1,0,0,1-1,.82h0A1,1,0,0,1,71,97.86Zm-.67-4.22a1,1,0,0,1,.93-1.13h0a1,1,0,0,1,1.15.92h0a1.06,1.06,0,0,1-.93,1.15h-.12A1.06,1.06,0,0,1,70.31,93.64Zm-.75-2.89a1,1,0,0,1,.53-1.37h0a1,1,0,0,1,1.37.53h0a1,1,0,0,1-.53,1.37h0a1,1,0,0,1-.42.1h0A1,1,0,0,1,69.56,90.75Zm-1.62-2.5a1.06,1.06,0,0,1,.1-1.48h0a1,1,0,0,1,1.47.1h0a1.05,1.05,0,0,1-.08,1.47h0a1,1,0,0,1-.7.27h0A1.07,1.07,0,0,1,67.94,88.25Zm-2.29-1.92a1,1,0,0,1-.37-1.42h0a1,1,0,0,1,1.44-.37h0A1.05,1.05,0,0,1,67.07,86h0a1.06,1.06,0,0,1-.9.5h0A1,1,0,0,1,65.65,86.33Zm-2.77-1.12A1,1,0,0,1,62.09,84h0a1,1,0,0,1,1.25-.77h0a1.05,1.05,0,0,1,.78,1.25h0a1.07,1.07,0,0,1-1,.8h0A1,1,0,0,1,62.88,85.21Zm-4.11-1.29a1,1,0,0,1,1-1.05h0a1.06,1.06,0,0,1,1.05,1.05h0a1.06,1.06,0,0,1-1.05,1h0A1,1,0,0,1,58.77,83.92Zm-3.34,0a1,1,0,0,1,1.05-1.05h0a1,1,0,0,1,1,1.05h0a1,1,0,0,1-1,1h0A1,1,0,0,1,55.43,83.92Zm-3.32,0a1,1,0,0,1,1.05-1.05h0a1,1,0,0,1,1,1.05h0a1,1,0,0,1-1,1h0A1,1,0,0,1,52.11,83.92Zm-3.32,0a1,1,0,0,1,1.05-1.05h0a1,1,0,0,1,1,1.05h0a1,1,0,0,1-1,1h0A1,1,0,0,1,48.79,83.92Zm-3.32,0a1,1,0,0,1,1.05-1.05h0a1,1,0,0,1,1,1.05h0a1,1,0,0,1-1,1h0A1,1,0,0,1,45.47,83.92Zm-2.39,1h0a1,1,0,0,1-.92-1.15h0a1,1,0,0,1,1.15-.92h0A1,1,0,0,1,44.23,84h0a1.06,1.06,0,0,1-1,.93h0ZM39.58,84h0A1.05,1.05,0,0,1,39,82.57h0A1,1,0,0,1,40.43,82h0A1.07,1.07,0,0,1,41,83.42h0A1.08,1.08,0,0,1,40,84h0A1.24,1.24,0,0,1,39.58,84Zm-3.05-2a1,1,0,0,1-.08-1.47h0a1.05,1.05,0,0,1,1.49-.08h0A1.05,1.05,0,0,1,38,81.89h0a1.07,1.07,0,0,1-.78.35h0A1,1,0,0,1,36.52,82Zm-2.3-2.8a1.05,1.05,0,0,1,.37-1.42h0a1,1,0,0,1,1.44.37h0a1,1,0,0,1-.37,1.42h0a1,1,0,0,1-.53.15h0A1.05,1.05,0,0,1,34.22,79.16Zm-1.34-3.37h0a1.06,1.06,0,0,1,.78-1.25h0a1.06,1.06,0,0,1,1.25.8h0a1,1,0,0,1-.78,1.24h0a1.14,1.14,0,0,1-.23,0h0A1.05,1.05,0,0,1,32.88,75.79Zm.7-2.49a1,1,0,0,1-1-1.14h0a1.06,1.06,0,0,1,1.14-1h0a1,1,0,0,1,1,1.13h0a1,1,0,0,1-1,1h-.1ZM34.07,70a1.06,1.06,0,0,1-.57-1.37h0a1.06,1.06,0,0,1,1.37-.57h0a1.06,1.06,0,0,1,.57,1.37h0a1.05,1.05,0,0,1-1,.63h0A1.11,1.11,0,0,1,34.07,70Zm1.45-3a1.05,1.05,0,0,1-.12-1.47h0a1,1,0,0,1,1.48-.12h0A1.05,1.05,0,0,1,37,66.91h0a1,1,0,0,1-.78.37h0A1.08,1.08,0,0,1,35.52,67Zm2.3-2.4a1,1,0,0,1,.33-1.44h0a1,1,0,0,1,1.44.33h0A1,1,0,0,1,39.26,65h0a1.05,1.05,0,0,1-.55.15h0A1.05,1.05,0,0,1,37.82,64.63ZM40.75,63a1,1,0,0,1,.77-1.27h0a1,1,0,0,1,1.25.77h0A1,1,0,0,1,42,63.79h0a.65.65,0,0,1-.25,0h0A1.05,1.05,0,0,1,40.75,63ZM54,62.47a1,1,0,0,1,1-1.05h0a1,1,0,0,1,1.05,1.05h0a1,1,0,0,1-1.05,1h0A1,1,0,0,1,54,62.47Zm-3.32,0a1,1,0,0,1,1-1.05h0a1,1,0,0,1,1.05,1.05h0a1,1,0,0,1-1.05,1h0A1,1,0,0,1,50.66,62.47Zm-3.32,0a1,1,0,0,1,1-1.05h0a1,1,0,0,1,1.05,1.05h0a1,1,0,0,1-1.05,1h0A1,1,0,0,1,47.34,62.47Zm-3.32,0a1,1,0,0,1,1-1.05h0a1,1,0,0,1,1.05,1.05h0a1,1,0,0,1-1.05,1h0A1,1,0,0,1,44,62.47Zm13.29.08a1.05,1.05,0,0,1,.92-1.17h0a1,1,0,0,1,1.15.9h0a1,1,0,0,1-.9,1.17h0l-.13,0h0A1.07,1.07,0,0,1,57.3,62.56Zm3.24-.82a1.05,1.05,0,0,1,0-1.49h0a1,1,0,0,1,1.47,0h0a1,1,0,0,1,0,1.47h0a1,1,0,0,1-.72.3h0A1.06,1.06,0,0,1,60.54,61.74Z"/><path class="cls-1" d="M62.9,58.28a1.11,1.11,0,0,1-.73-.3,1,1,0,0,1-.3-.73,1,1,0,0,1,.07-.4,1.3,1.3,0,0,1,.23-.35,1.08,1.08,0,0,1,1.47,0,1,1,0,0,1,0,1.49,1,1,0,0,1-.33.22A1.14,1.14,0,0,1,62.9,58.28Z"/><path class="cls-1" d="M15.52,68.46A15.07,15.07,0,0,0,2.26,90.68a44.69,44.69,0,0,0,5.11,7.69,58.25,58.25,0,0,0,7.47,7.8,1,1,0,0,0,.18.11l.11.07a1,1,0,0,0,.39.08h0a1,1,0,0,0,.39-.08l.11-.07a1,1,0,0,0,.18-.11,58.25,58.25,0,0,0,7.47-7.8,44.55,44.55,0,0,0,5.09-7.65A15.07,15.07,0,0,0,15.52,68.46Zm11.39,21.3A42.67,42.67,0,0,1,22,97.07,55.79,55.79,0,0,1,15.52,104,55.78,55.78,0,0,1,9,97.07a42.74,42.74,0,0,1-4.9-7.36,13,13,0,1,1,22.8,0Z"/><path class="cls-1" d="M15.52,75.4a8.07,8.07,0,1,0,8.07,8.07A8.08,8.08,0,0,0,15.52,75.4Zm0,14.06a6,6,0,1,1,6-6A6,6,0,0,1,15.52,89.46Z"/><path class="cls-1" d="M62.9,34.42A9.55,9.55,0,0,0,54.48,48.5a27.39,27.39,0,0,0,3.15,4.74A35.81,35.81,0,0,0,62.21,58a1,1,0,0,0,.18.11l.11.07a1,1,0,0,0,.39.08h0a1,1,0,0,0,.39-.08l.11-.07a1,1,0,0,0,.18-.11,35.79,35.79,0,0,0,4.58-4.79,27.27,27.27,0,0,0,3.13-4.7,9.56,9.56,0,0,0-8.4-14.12Zm6.55,13.16a25.38,25.38,0,0,1-2.91,4.37A33.29,33.29,0,0,1,62.9,55.8a33.34,33.34,0,0,1-3.63-3.85,25.51,25.51,0,0,1-2.93-4.41,7.47,7.47,0,1,1,13.11,0Z"/><path class="cls-1" d="M62.9,38.64a5.31,5.31,0,1,0,5.31,5.31A5.32,5.32,0,0,0,62.9,38.64Zm0,8.53a3.22,3.22,0,1,1,3.22-3.22A3.23,3.23,0,0,1,62.9,47.17Z"/><path class="cls-2" d="M34.21,30.31,47,17.47A1.07,1.07,0,1,0,45.53,16l-11,11V2.12a1.07,1.07,0,1,0-2.14,0V27l-11-11a1.07,1.07,0,0,0-1.51,1.51L32.7,30.31a1.07,1.07,0,0,0,1.51,0Z"/></g></g></svg>