<?xml version="1.0" encoding="UTF-8" standalone="no"?>
<svg width="72px" height="66px" viewBox="0 0 72 66" version="1.1" xmlns="http://www.w3.org/2000/svg" xmlns:xlink="http://www.w3.org/1999/xlink">
    <!-- Generator: Sketch 50.2 (55047) - http://www.bohemiancoding.com/sketch -->
    <title>Group</title>
    <desc>Created with Sketch.</desc>
    <defs></defs>
    <g id="LWF-Desktop" stroke="none" stroke-width="1" fill="none" fill-rule="evenodd">
        <g id="ORDER-STATUS-BUYER-P2PFF---STATUS-PAID" transform="translate(-175.000000, -1562.000000)" fill="#9B9DA0">
            <g id="Upload-foto" transform="translate(101.000000, 1509.000000)">
                <g id="Group" transform="translate(74.000000, 53.000000)">
                    <polygon id="Fill-463" points="47.4858571 25.9674172 43.704 20.0961589 38 29 61 29 53.2687143 17"></polygon>
                    <path d="M20.6666667,11 L14,11 L14,47.3846154 C14,51.0296923 16.99,54 20.6666667,54 L54,54 L54,47.3846154 L20.6666667,47.3846154 L20.6666667,11 Z" id="Fill-464"></path>
                    <path d="M6.66666667,23 L0,23 L0,59.3846154 C0,63.0296923 2.99,66 6.66666667,66 L40,66 L40,59.3846154 L6.66666667,59.3846154 L6.66666667,23 Z" id="Fill-465"></path>
                    <path d="M35.6153846,33.3333333 L35.6153846,6.66666667 L65.3846154,6.66666667 L65.3879231,33.3333333 L35.6153846,33.3333333 Z M65.3846154,0 L35.6153846,0 C31.967,0 29,2.99 29,6.66666667 L29,33.3333333 C29,37.0066667 31.967,40 35.6153846,40 L65.3846154,40 C69.033,40 72,37.0066667 72,33.3333333 L72,6.66666667 C72,2.99 69.033,0 65.3846154,0 L65.3846154,0 Z" id="Fill-466"></path>
                </g>
            </g>
        </g>
    </g>
</svg>