<?xml version="1.0" encoding="UTF-8" standalone="no"?>
<svg width="76px" height="45px" viewBox="0 0 76 45" version="1.1" xmlns="http://www.w3.org/2000/svg" xmlns:xlink="http://www.w3.org/1999/xlink">
    <!-- Generator: Sketch 48.2 (47327) - http://www.bohemiancoding.com/sketch -->
    <title>Visa-dark Copy</title>
    <desc>Created with Sketch.</desc>
    <defs></defs>
    <g id="ORDER-PAYMENT" stroke="none" stroke-width="1" fill="none" fill-rule="evenodd" transform="translate(-330.000000, -1065.000000)">
        <g id="Credit-card-OPEN" transform="translate(-1.000000, 878.000000)">
            <g id="Visa-dark-Copy" transform="translate(331.500000, 187.000000)">
                <rect id="Rectangle" fill="#26337A" x="0" y="0" width="75" height="45" rx="4"></rect>
                <polyline id="Fill-3" fill="#FFFFFE" points="31.1174931 29.6600704 33.4235461 15.354507 37.1096889 15.354507 34.8038468 29.6600704 31.1174931 29.6600704"></polyline>
                <path d="M48.1746532,15.7056338 C47.4458157,15.4185211 46.2995357,15.1054225 44.8715876,15.1054225 C41.2271889,15.1054225 38.6618157,17.0467606 38.6405219,19.8266197 C38.6173306,21.8828873 40.4711544,23.0296479 41.8687431,23.7130986 C43.3051244,24.413662 43.7877131,24.8619718 43.7820207,25.4883803 C43.7721118,26.4464789 42.63553,26.885493 41.5756901,26.885493 C40.0998836,26.885493 39.3158088,26.6693662 38.1035392,26.1352817 L37.6293836,25.9075352 L37.1139055,29.1097183 C37.9734574,29.508169 39.5669067,29.8540141 41.2206532,29.8721831 C45.0938018,29.8721831 47.6104735,27.9542958 47.6399896,24.9857746 C47.6532719,23.3552113 46.6710173,22.1192958 44.5437477,21.0988732 C43.2555795,20.435493 42.4649689,19.9960563 42.4740346,19.3246479 C42.4748779,18.7301408 43.1419424,18.0935915 44.5857028,18.0935915 C45.7914366,18.0741549 46.6642707,18.3526056 47.3444067,18.6433099 L47.675409,18.806831 L48.1746532,15.7056338" id="Fill-4" fill="#FFFFFE"></path>
                <path d="M53.0829747,24.588169 C53.3884666,23.7659155 54.5514021,20.589507 54.5514021,20.589507 C54.5298975,20.6273239 54.8552074,19.7609155 55.0413698,19.2247183 L55.2901486,20.4585211 C55.2901486,20.4585211 55.9974816,23.8730282 56.1431647,24.588169 L53.0829747,24.588169 L53.0829747,24.588169 Z M57.6305668,15.3690845 L54.7818387,15.3690845 C53.8982523,15.3690845 53.2368802,15.6221831 52.8497972,16.5549296 L47.3756094,29.6651408 L51.2472823,29.6651408 C51.2472823,29.6651408 51.8789274,27.9014789 52.0222915,27.5144366 C52.4445829,27.5144366 56.2066244,27.521831 56.7436071,27.521831 C56.8540818,28.0210563 57.1924631,29.6651408 57.1924631,29.6651408 L60.6138041,29.6651408 L57.6305668,15.3690845 L57.6305668,15.3690845 Z" id="Fill-5" fill="#FFFFFE"></path>
                <path d="M28.0250461,15.3665493 L24.417121,25.119507 L24.0306705,23.1369718 C23.3583353,20.8527465 21.2654309,18.3769014 18.9243802,17.136338 L22.2251267,29.6476056 L26.1263157,29.6452817 L31.9312949,15.3665493 L28.0250461,15.3665493" id="Fill-6" fill="#FFFFFE"></path>
                <path d="M21.0678836,15.356831 L15.1235461,15.356831 L15.0746336,15.6532394 C19.7000219,16.8382394 22.7604228,19.6985915 24.0306705,23.1369718 L22.7389182,16.5638028 C22.5160714,15.6572535 21.8684032,15.3885211 21.0678836,15.356831" id="Fill-7" fill="#EC982D"></path>
            </g>
        </g>
    </g>
</svg>