<svg xmlns="http://www.w3.org/2000/svg" viewBox="0 0 412.65 217.61"><defs><style>.cls-1{fill:#f7a800;}.cls-2{fill:#fff;}</style></defs><title>Asset 34</title><g id="Layer_2" data-name="Layer 2"><g id="Layer_1-2" data-name="Layer 1"><path class="cls-1" d="M216.68,153.28,202.83,96.16a1.12,1.12,0,0,0-2.15,0l-13.86,57.12h-12.2s25.31,31,27.17,31,27.17-31,27.17-31Z"/><g id="_Group_" data-name="&lt;Group&gt;"><path class="cls-2" d="M315.61,119.58h8.21V28.31H312.66v-26h91.89a8.1,8.1,0,0,1,8.1,8.1v34.2H382.57V32.36H359.71V63.44H382V85.08a6.43,6.43,0,0,1-6.43,6.43h-15.9v28.07h-.09V136.3a9.34,9.34,0,0,1-9.34,9.34H315.61Z"/></g><g id="_Group_2" data-name="&lt;Group&gt;"><path class="cls-2" d="M5.26,119.53H13.6V28.25H2.28v-26h39.2a8,8,0,0,1,8,8V30.31h0v81a6.23,6.23,0,0,0,6.23,6.23H80.37V96.47h30.07v39.78a9.34,9.34,0,0,1-9.34,9.34H5.26Z"/></g><path class="cls-2" d="M172.6,61.28,165,91.91c-.8,3.41-1.2,7.22-1.81,10.22l-.6,4.81h-.8l-.4-4.81A65.62,65.62,0,0,0,160,91.91L145.54,28.35l-3.82-18.15A10,10,0,0,0,132,2.29H98.7l3.61,26h7.8v.52l27.75,110.75c1.86,3.56,5.05,6.07,8.72,6.07h33.25L198.17,78Z"/><path class="cls-2" d="M231,61.28l7.61,30.63c.8,3.41,1.2,7.22,1.81,10.22l.6,4.81h.8l.4-4.81a65.62,65.62,0,0,1,1.4-10.22L258,28.35l3.82-18.15a10,10,0,0,1,9.76-7.92h33.27l-3.61,26h-7.8v.52L265.71,139.57c-1.86,3.56-5.05,6.07-8.72,6.07H223.74L205.4,78Z"/><path class="cls-1" d="M201.68,0l-29,16.77V50.31l29,19,29-19V16.77Zm15.55,19.57-15.55,9-15.55-9,15.55-9Zm-35.43,8.1,15.29,8.83v19.6L181.81,45Zm24.46,28.42V36.49l15.29-8.83V45Z"/><path class="cls-2" d="M0,215H2V202.8H0v-2.52H7.25v2.52H5.18v12h5v-2.64h2.69v5.16H0Z"/><path class="cls-2" d="M25.63,200a8.62,8.62,0,0,1,8.83,8.69,8.83,8.83,0,1,1-17.67,0A8.62,8.62,0,0,1,25.63,200Zm0,14.86c3.07,0,5.59-2.64,5.59-6.17a5.72,5.72,0,0,0-5.59-5.93A5.72,5.72,0,0,0,20,208.68C20,212.21,22.56,214.85,25.63,214.85Z"/><path class="cls-2" d="M47.57,200c2.06,0,6.65.72,6.65,3.41v2.3H51.36v-1.32c0-1.27-2.23-1.7-3.65-1.7A5.54,5.54,0,0,0,42,208.59c0,3.82,2.5,6.34,5.86,6.34,1,0,3.7-.34,3.7-1.68v-1.32h2.86v2.33c0,2.54-4.37,3.36-6.75,3.36a8.68,8.68,0,0,1-8.9-8.88A8.57,8.57,0,0,1,47.57,200Z"/><path class="cls-2" d="M58.2,215h1.56l5.11-14.69h3.58L73.56,215h1.56v2.35H68.71V215h1.68l-1.06-3.19H64L62.9,215h1.68v2.35H58.2Zm10.42-5.64L67,204.51l-.26-1.06a3.3,3.3,0,0,1,0-.43h-.07l-.07.43c-.07.26-.12.6-.24,1.06l-1.63,4.82Z"/><path class="cls-2" d="M78.91,215h2V202.8h-2v-2.52h7.25v2.52H84.1v12h5v-2.64h2.69v5.16H78.91Z"/><path class="cls-2" d="M103.32,200.28H110v2.38h-2l2.21,9.72a9.28,9.28,0,0,1,.14,1l0,.48h.1l.07-.48c.07-.29.1-.65.19-1l3.19-12.1h2.52l3.19,12.1c.1.36.14.72.22,1a3.55,3.55,0,0,1,0,.48h.1l0-.48a9.29,9.29,0,0,1,.14-1l2.21-9.72h-2v-2.38h6.65v2.38H125.5l-3.62,14.67h-3.53l-2.86-10.75c-.1-.36-.12-.72-.19-1l-.07-.53h-.07a3.86,3.86,0,0,1,0,.53,7.16,7.16,0,0,1-.22,1L112,217.32H108.5l-3.62-14.67h-1.56Z"/><path class="cls-2" d="M139.51,200a8.62,8.62,0,0,1,8.83,8.69,8.83,8.83,0,1,1-17.67,0A8.62,8.62,0,0,1,139.51,200Zm0,14.86c3.07,0,5.59-2.64,5.59-6.17a5.6,5.6,0,1,0-11.19,0C133.92,212.21,136.44,214.85,139.51,214.85Z"/><path class="cls-2" d="M152.83,215h2V202.66h-2v-2.38h7.51a11.16,11.16,0,0,1,3.24.36,4.45,4.45,0,0,1,3.14,4.56,4.65,4.65,0,0,1-3.22,4.73v0l.29.22a2.76,2.76,0,0,1,.55.67l2,3.55c.26.46.58.55,1.15.55H168v2.35h-2c-1.39,0-1.85-.29-2.38-1.27l-2.42-4.39c-.36-.65-.67-.86-1.66-.86H158V215h2v2.35h-7.15Zm8-6.7a2.54,2.54,0,0,0,2.74-2.81,2.29,2.29,0,0,0-1.34-2.35,4.64,4.64,0,0,0-1.92-.31H158v5.47Z"/><path class="cls-2" d="M172.34,215h2V202.8h-2v-2.52h7.25v2.52h-2.06v12h5v-2.64h2.69v5.16H172.34Z"/><path class="cls-2" d="M189.34,215h2V202.66h-2v-2.38h7.37a11.14,11.14,0,0,1,3.55.41c3.34,1,5.52,3.94,5.52,8.11s-2,6.94-5.28,8a10.94,10.94,0,0,1-3.77.5h-7.39Zm7.25-.17a6.8,6.8,0,0,0,2.79-.43c1.94-.79,3.17-2.76,3.17-5.57s-1.27-4.85-3.29-5.62a6.43,6.43,0,0,0-2.67-.38h-2.06v12Z"/><path class="cls-2" d="M218.64,215h2V202.66h-2v-2.38h12.17v4.42h-2.69v-1.75h-4.3v4.9h5.54v2.52h-5.54V215h2.26v2.35h-7.44Z"/><path class="cls-2" d="M243.67,200a8.62,8.62,0,0,1,8.83,8.69,8.83,8.83,0,1,1-17.67,0A8.62,8.62,0,0,1,243.67,200Zm0,14.86c3.07,0,5.59-2.64,5.59-6.17a5.6,5.6,0,1,0-11.19,0C238.08,212.21,240.6,214.85,243.67,214.85Z"/><path class="cls-2" d="M257,215h2V202.66h-2v-2.38h7.51a11.16,11.16,0,0,1,3.24.36,4.45,4.45,0,0,1,3.14,4.56,4.65,4.65,0,0,1-3.22,4.73v0l.29.22a2.76,2.76,0,0,1,.55.67l2,3.55c.26.46.58.55,1.15.55h.55v2.35h-2c-1.39,0-1.85-.29-2.38-1.27l-2.42-4.39c-.36-.65-.67-.86-1.66-.86h-1.56V215h2v2.35H257Zm8-6.7a2.54,2.54,0,0,0,2.74-2.81,2.29,2.29,0,0,0-1.34-2.35,4.64,4.64,0,0,0-1.92-.31h-2.3v5.47Z"/><path class="cls-2" d="M275.28,200.28h6.65v2.38h-2l2.21,9.72a9.29,9.29,0,0,1,.14,1l0,.48h.1l.07-.48c.07-.29.1-.65.19-1l3.19-12.1h2.52l3.19,12.1c.1.36.14.72.22,1a3.55,3.55,0,0,1,0,.48h.1l0-.48a9.29,9.29,0,0,1,.14-1l2.21-9.72h-2v-2.38H299v2.38h-1.56l-3.62,14.67H290.3l-2.86-10.75c-.1-.36-.12-.72-.19-1l-.07-.53h-.07a3.86,3.86,0,0,1,0,.53,7.16,7.16,0,0,1-.22,1L284,217.32h-3.53l-3.62-14.67h-1.56Z"/><path class="cls-2" d="M300.86,215h1.56l5.11-14.69h3.58L316.22,215h1.56v2.35h-6.41V215h1.68L312,211.78h-5.38L305.57,215h1.68v2.35h-6.38Zm10.42-5.64-1.61-4.82-.26-1.06a3.3,3.3,0,0,1,0-.43h-.07l-.07.43c-.07.26-.12.6-.24,1.06l-1.63,4.82Z"/><path class="cls-2" d="M321.55,215h2V202.66h-2v-2.38h7.51a11.16,11.16,0,0,1,3.24.36,4.45,4.45,0,0,1,3.14,4.56,4.65,4.65,0,0,1-3.22,4.73v0l.29.22a2.76,2.76,0,0,1,.55.67l2,3.55c.26.46.58.55,1.15.55h.55v2.35h-2c-1.39,0-1.85-.29-2.38-1.27L330,211.66c-.36-.65-.67-.86-1.66-.86h-1.56V215h2v2.35h-7.15Zm8-6.7a2.54,2.54,0,0,0,2.74-2.81,2.29,2.29,0,0,0-1.34-2.35,4.64,4.64,0,0,0-1.92-.31h-2.3v5.47Z"/><path class="cls-2" d="M341,215h2V202.66h-2v-2.38h7.37a11.14,11.14,0,0,1,3.55.41c3.34,1,5.52,3.94,5.52,8.11s-2,6.94-5.28,8a10.94,10.94,0,0,1-3.77.5H341Zm7.25-.17a6.8,6.8,0,0,0,2.79-.43c1.94-.79,3.17-2.76,3.17-5.57S353,204,351,203.19a6.43,6.43,0,0,0-2.67-.38h-2.06v12Z"/><path class="cls-2" d="M362.06,215h2V202.66h-2v-2.38h12.65v4.39H372V202.8h-4.78v4.68h5.62V210h-5.62v4.8h5.14v-1.92h2.69v4.44h-13Z"/><path class="cls-2" d="M379.7,215h2V202.66h-2v-2.38h7.51a11.16,11.16,0,0,1,3.24.36,4.45,4.45,0,0,1,3.14,4.56,4.65,4.65,0,0,1-3.22,4.73v0l.29.22a2.76,2.76,0,0,1,.55.67l2,3.55c.26.46.58.55,1.15.55h.55v2.35h-2c-1.39,0-1.85-.29-2.38-1.27l-2.42-4.39c-.36-.65-.67-.86-1.66-.86h-1.56V215h2v2.35H379.7Zm8-6.7a2.54,2.54,0,0,0,2.74-2.81,2.29,2.29,0,0,0-1.34-2.35,4.64,4.64,0,0,0-1.92-.31h-2.3v5.47Z"/><path class="cls-2" d="M401.88,211.83v1.27c0,1.08,1.39,1.75,3,1.75s3-.74,3-2.11c0-1.7-1.94-2.28-3.91-3-2.28-.89-4.51-1.87-4.51-4.94,0-3.43,2.76-4.75,5.71-4.75,2.69,0,5.4,1,5.4,3v2.23h-2.86v-1.15c0-.86-1.27-1.32-2.54-1.32s-2.54.58-2.54,1.87c0,1.58,1.61,2.09,3.36,2.78,2.57.89,5.09,1.94,5.09,5.11,0,3.48-2.93,5.09-6.14,5.09-2.83,0-5.86-1.27-5.86-3.84v-1.94Z"/></g></g></svg>