<svg xmlns="http://www.w3.org/2000/svg" viewBox="0 0 70.87 54.93"><defs><style>.cls-1{fill:#9b9da0;}</style></defs><title>Address doc</title><g id="Layer_2" data-name="Layer 2"><g id="Capa_1" data-name="Capa 1"><path class="cls-1" d="M30.51,16a1.59,1.59,0,0,0-1.59,1.59v.8a1.59,1.59,0,0,0,3.17,0v-.8A1.59,1.59,0,0,0,30.51,16Z"/><path class="cls-1" d="M24.78,16a1.59,1.59,0,0,0-1.59,1.59v.8a1.59,1.59,0,0,0,3.17,0v-.8A1.59,1.59,0,0,0,24.78,16Z"/><path class="cls-1" d="M19,36.59A1.59,1.59,0,0,0,20.64,35V13.57h14V35a1.59,1.59,0,0,0,3.17,0V12a1.59,1.59,0,0,0-1.59-1.59H19A1.59,1.59,0,0,0,17.46,12V35A1.59,1.59,0,0,0,19,36.59Z"/><path class="cls-1" d="M24.78,22.14a1.59,1.59,0,0,0-1.59,1.59v.8a1.59,1.59,0,0,0,3.17,0v-.8A1.59,1.59,0,0,0,24.78,22.14Z"/><path class="cls-1" d="M30.51,22.14a1.59,1.59,0,0,0-1.59,1.59v.8a1.59,1.59,0,0,0,3.17,0v-.8A1.59,1.59,0,0,0,30.51,22.14Z"/><path class="cls-1" d="M30.51,28.49a1.59,1.59,0,0,0-1.59,1.59V35a1.59,1.59,0,0,0,3.17,0V30.07A1.59,1.59,0,0,0,30.51,28.49Z"/><path class="cls-1" d="M44.17,32.82H59.75a1.59,1.59,0,0,0,0-3.17H44.17a1.59,1.59,0,0,0,0,3.17Z"/><path class="cls-1" d="M44.17,17.34H59.75a1.59,1.59,0,0,0,0-3.17H44.17a1.59,1.59,0,0,0,0,3.17Z"/><path class="cls-1" d="M44.17,24.89H59.75a1.59,1.59,0,0,0,0-3.17H44.17a1.59,1.59,0,0,0,0,3.17Z"/><path class="cls-1" d="M61.34,48.58a1.59,1.59,0,0,0-1.59,1.59v1.59H3.17V11.11H4.76a1.59,1.59,0,1,0,0-3.17H1.59A1.59,1.59,0,0,0,0,9.52V53.34a1.59,1.59,0,0,0,1.59,1.59H61.34a1.59,1.59,0,0,0,1.59-1.59V50.16A1.59,1.59,0,0,0,61.34,48.58Z"/><path class="cls-1" d="M69.28,0H9.52A1.59,1.59,0,0,0,7.94,1.59V45.4A1.59,1.59,0,0,0,9.52,47H69.28a1.59,1.59,0,0,0,1.59-1.59V1.59A1.59,1.59,0,0,0,69.28,0ZM67.69,43.81H11.11V3.17H67.69Z"/></g></g></svg>