<?xml version="1.0" encoding="UTF-8" standalone="no"?>
<svg width="70px" height="47px" viewBox="0 0 70 47" version="1.1" xmlns="http://www.w3.org/2000/svg" xmlns:xlink="http://www.w3.org/1999/xlink">
    <!-- Generator: Sketch 48.2 (47327) - http://www.bohemiancoding.com/sketch -->
    <title>Id doc Copy</title>
    <desc>Created with Sketch.</desc>
    <defs></defs>
    <g id="ACCOUNT-Verification-1-Copy" stroke="none" stroke-width="1" fill="none" fill-rule="evenodd" transform="translate(-954.000000, -569.000000)">
        <g id="Id-doc-Copy" transform="translate(954.000000, 569.000000)">
            <path d="M64.5433636,0 L5.06885055,0 C2.27388636,0 0,2.25959336 0,5.0369892 L0,41.3669454 C0,44.1443413 2.27388636,46.4039346 5.06885055,46.4039346 L64.5433636,46.4039346 C67.3383278,46.4039346 69.6122142,44.1443413 69.6122142,41.3669454 L69.6122142,5.0369892 C69.6122142,2.25959336 67.3383278,0 64.5433636,0 Z M66.2329805,41.3667775 C66.2329805,42.2925761 65.4750184,43.0457739 64.5433636,43.0457739 L5.06885055,43.0457739 C4.13719582,43.0457739 3.3792337,42.2925761 3.3792337,41.3667775 L3.3792337,5.0369892 C3.3792337,4.11119059 4.13719582,3.3579928 5.06885055,3.3579928 L64.5433636,3.3579928 C65.4750184,3.3579928 66.2329805,4.11119059 66.2329805,5.0369892 L66.2329805,41.3667775 Z" id="Shape-Copy-4" fill="#9B9DA0" fill-rule="nonzero"></path>
            <path d="M58.4511634,9.4 L39.5274547,9.4 C38.5944483,9.4 37.8378378,10.1516867 37.8378378,11.0789964 C37.8378378,12.0063061 38.5944483,12.7579928 39.5274547,12.7579928 L58.4511634,12.7579928 C59.3841698,12.7579928 60.1407802,12.0063061 60.1407802,11.0789964 C60.1407802,10.1516867 59.3841698,9.4 58.4511634,9.4 Z" id="Shape-Copy-5" fill="#9B9DA0" fill-rule="nonzero"></path>
            <path d="M58.4511634,17.5466667 L39.5274547,17.5466667 C38.5944483,17.5466667 37.8378378,18.2983534 37.8378378,19.2256631 C37.8378378,20.1529728 38.5944483,20.9046595 39.5274547,20.9046595 L58.4511634,20.9046595 C59.3841698,20.9046595 60.1407802,20.1529728 60.1407802,19.2256631 C60.1407802,18.2983534 59.3841698,17.5466667 58.4511634,17.5466667 Z" id="Shape-Copy-6" fill="#9B9DA0" fill-rule="nonzero"></path>
            <path d="" id="Path-11" stroke="#9B9DA0" stroke-width="1"></path>
            <path d="M10.7207207,35.0379266 L16.9007403,32.731885 C17.883241,32.3652701 18.9858624,32.5382955 19.8088442,33.1882302 L22.9068225,35.6348012 C24.1859439,36.6449637 26.0375964,36.4490363 27.0769843,35.1935474 L28.812206,33.0975528 C29.5414663,32.2166708 30.7081002,31.8270093 31.8203597,32.0928148 L44.1441441,35.0379266" id="Path-10" stroke="#9B9DA0" stroke-width="4"></path>
        </g>
    </g>
</svg>