<?xml version="1.0" encoding="UTF-8" standalone="no"?>
<svg width="70px" height="47px" viewBox="0 0 70 47" version="1.1" xmlns="http://www.w3.org/2000/svg" xmlns:xlink="http://www.w3.org/1999/xlink">
    <!-- Generator: Sketch 48.2 (47327) - http://www.bohemiancoding.com/sketch -->
    <title>Id doc</title>
    <desc>Created with Sketch.</desc>
    <defs></defs>
    <g id="ACCOUNT-Verification-1-Copy" stroke="none" stroke-width="1" fill="none" fill-rule="evenodd" transform="translate(-755.000000, -569.000000)">
        <g id="Id-doc" transform="translate(755.000000, 569.000000)">
            <path d="M49.5045045,22.56 C52.8079369,22.56 55.4954955,19.8893347 55.4954955,16.6066667 C55.4954955,13.3239987 52.8079369,10.6533333 49.5045045,10.6533333 C46.2010721,10.6533333 43.5135135,13.3239987 43.5135135,16.6066667 C43.5135135,19.8893347 46.2010721,22.56 49.5045045,22.56 Z M49.5045045,14.0552381 C50.9202613,14.0552381 52.0720721,15.199809 52.0720721,16.6066667 C52.0720721,18.0135244 50.9202613,19.1580952 49.5045045,19.1580952 C48.0887477,19.1580952 46.9369369,18.0135244 46.9369369,16.6066667 C46.9369369,15.199809 48.0887477,14.0552381 49.5045045,14.0552381 Z" id="Shape-Copy" fill="#9B9DA0" fill-rule="nonzero"></path>
            <path d="M49.8198198,24.44 C44.2561441,24.44 39.7297297,29.0182834 39.7297297,34.6457143 C39.7297297,35.5851503 40.4827868,36.3466667 41.4114114,36.3466667 C42.340036,36.3466667 43.0930931,35.5851503 43.0930931,34.6457143 C43.0930931,30.8940937 46.1107027,27.8419048 49.8198198,27.8419048 C53.5289369,27.8419048 56.5465465,30.8940937 56.5465465,34.6457143 C56.5465465,35.5851503 57.2996036,36.3466667 58.2282282,36.3466667 C59.1568529,36.3466667 59.9099099,35.5851503 59.9099099,34.6457143 C59.9099099,29.0182834 55.3834955,24.44 49.8198198,24.44 Z" id="Shape-Copy-2" fill="#9B9DA0" fill-rule="nonzero"></path>
            <path d="M64.5433636,0 L5.06885055,0 C2.27388636,0 0,2.25959336 0,5.0369892 L0,41.3669454 C0,44.1443413 2.27388636,46.4039346 5.06885055,46.4039346 L64.5433636,46.4039346 C67.3383278,46.4039346 69.6122142,44.1443413 69.6122142,41.3669454 L69.6122142,5.0369892 C69.6122142,2.25959336 67.3383278,0 64.5433636,0 Z M66.2329805,41.3667775 C66.2329805,42.2925761 65.4750184,43.0457739 64.5433636,43.0457739 L5.06885055,43.0457739 C4.13719582,43.0457739 3.3792337,42.2925761 3.3792337,41.3667775 L3.3792337,5.0369892 C3.3792337,4.11119059 4.13719582,3.3579928 5.06885055,3.3579928 L64.5433636,3.3579928 C65.4750184,3.3579928 66.2329805,4.11119059 66.2329805,5.0369892 L66.2329805,41.3667775 Z" id="Shape-Copy-4" fill="#9B9DA0" fill-rule="nonzero"></path>
            <path d="M30.7034156,13.16 L11.7797069,13.16 C10.8467005,13.16 10.0900901,13.9116867 10.0900901,14.8389964 C10.0900901,15.7663061 10.8467005,16.5179928 11.7797069,16.5179928 L30.7034156,16.5179928 C31.6364221,16.5179928 32.3930325,15.7663061 32.3930325,14.8389964 C32.3930325,13.9116867 31.6364221,13.16 30.7034156,13.16 Z" id="Shape-Copy-5" fill="#9B9DA0" fill-rule="nonzero"></path>
            <path d="M30.7034156,21.3066667 L11.7797069,21.3066667 C10.8467005,21.3066667 10.0900901,22.0583534 10.0900901,22.9856631 C10.0900901,23.9129728 10.8467005,24.6646595 11.7797069,24.6646595 L30.7034156,24.6646595 C31.6364221,24.6646595 32.3930325,23.9129728 32.3930325,22.9856631 C32.3930325,22.0583534 31.6364221,21.3066667 30.7034156,21.3066667 Z" id="Shape-Copy-6" fill="#9B9DA0" fill-rule="nonzero"></path>
            <path d="M30.7034156,29.4533333 L11.7797069,29.4533333 C10.8467005,29.4533333 10.0900901,30.20502 10.0900901,31.1323297 C10.0900901,32.0596394 10.8467005,32.8113261 11.7797069,32.8113261 L30.7034156,32.8113261 C31.6364221,32.8113261 32.3930325,32.0596394 32.3930325,31.1323297 C32.3930325,30.20502 31.6364221,29.4533333 30.7034156,29.4533333 Z" id="Shape-Copy-7" fill="#9B9DA0" fill-rule="nonzero"></path>
            <path d="" id="Path-9" stroke="#9B9DA0" stroke-width="1"></path>
        </g>
    </g>
</svg>