<?xml version="1.0" encoding="UTF-8" standalone="no"?>
<svg width="93px" height="91px" viewBox="0 0 93 91" version="1.1" xmlns="http://www.w3.org/2000/svg" xmlns:xlink="http://www.w3.org/1999/xlink">
    <!-- Generator: Sketch 48.2 (47327) - http://www.bohemiancoding.com/sketch -->
    <title>XMLID_81_</title>
    <desc>Created with Sketch.</desc>
    <defs></defs>
    <g id="ACCOUNT-Verification-1-Copy" stroke="none" stroke-width="1" fill="none" fill-rule="evenodd" transform="translate(-694.000000, -783.000000)">
        <g id="Continua-verifica" transform="translate(0.000000, 761.000000)" stroke="#9B9DA0" stroke-width="4">
            <path d="M696,112.049292 C696,110.750913 697.208933,95.6031652 700.980804,91.9484705 C702.915097,90.073035 712.489846,86.6106925 719.501658,84.0139357 C721.484308,83.2926144 723.176814,82.6674692 724.289032,82.2346762 C729.076407,80.359241 729.076407,78.9646863 729.076407,77.3296912 L729.076407,71.9438253 C727.432258,70.1645658 726.271682,64.5382595 726.029896,63.2398809 C725.59468,63.2398809 725.111107,63.0956166 724.579176,62.7590001 C723.031742,61.7972383 721.049092,59.2966576 720.372089,56.3632842 C719.4533,52.5162371 721.049092,49.5347755 722.693241,48.8615423 C722.693241,48.5730137 722.596526,48.0440447 722.548169,47.4188996 C722.306382,45.0144951 721.822809,40.4942147 721.822809,37.0318723 C721.822809,34.4351154 722.112953,32.2230633 722.644883,30.6361563 C723.321886,28.6645447 724.385747,27.6546948 725.788109,27.6546948 C728.786263,27.6546948 730.962342,26.7891092 733.283494,25.8754355 C735.653002,24.9617618 738.119226,24 741.504238,24 C747.839047,24 750.160198,25.4426427 751.610918,27.6546948 C756.495007,27.7027829 759.057945,30.972773 759.057945,37.0799603 C759.057945,39.2439244 758.671087,42.9947954 758.380943,45.7358165 C758.235871,47.082283 758.090799,48.3806614 758.090799,48.8134542 C759.734948,49.4385993 761.379097,52.4200609 760.460308,56.3151961 C759.783305,59.2485697 757.800655,61.7491501 756.253221,62.7109122 C755.72129,63.0475287 755.237717,63.191793 754.802501,63.191793 C754.560714,64.4901713 753.400139,70.116478 751.75599,71.8957371 L751.75599,77.2816033 C751.75599,78.9165981 751.75599,80.2149767 756.543365,82.1865883 C757.89737,82.7155574 760.121806,83.5330548 762.684744,84.4948165 C769.551484,86.9953973 778.062372,90.1211232 779.851593,91.8522944 C783.623464,95.5069891 784.832397,110.654737 784.832397,111.953116" id="XMLID_81_"></path>
        </g>
    </g>
</svg>