<?xml version="1.0" encoding="UTF-8" standalone="no"?>
<svg width="193px" height="189px" viewBox="0 0 193 189" version="1.1" xmlns="http://www.w3.org/2000/svg" xmlns:xlink="http://www.w3.org/1999/xlink">
    <!-- Generator: Sketch 48.2 (47327) - http://www.bohemiancoding.com/sketch -->
    <title>Group</title>
    <desc>Created with Sketch.</desc>
    <defs></defs>
    <g id="ACCOUNT-Verification-1-Copy" stroke="none" stroke-width="1" fill="none" fill-rule="evenodd" transform="translate(-895.000000, -1528.000000)">
        <g id="Field-SIGN-UP" transform="translate(-3.000000, 159.000000)">
            <g id="Selfie-ID" transform="translate(0.000000, 1303.000000)">
                <g id="Group" transform="translate(901.000000, 69.000000)">
                    <g>
                        <g id="XMLID_2_" stroke="#D6D8DA" stroke-width="6">
                            <path d="M0.203260869,185.094144 C0.203260869,182.365399 2.74402174,150.530049 10.6711957,142.849139 C14.7364131,138.907619 34.8592391,131.630968 49.5956522,126.173479 C53.7625,124.65751 57.3195652,123.34367 59.6570652,122.434088 C69.718478,118.492569 69.718478,115.561696 69.718478,112.125499 L69.718478,100.806263 C66.2630435,97.0668726 63.8239131,85.2423141 63.3157609,82.5135694 C62.4010869,82.5135694 61.3847826,82.2103755 60.2668478,81.5029234 C57.0146739,79.4816315 52.8478261,74.2262718 51.425,68.0613311 C49.4940217,59.9761627 52.8478261,53.7101572 56.3032609,52.2952527 C56.3032609,51.6888651 56.1,50.5771544 55.9983695,49.2633146 C55.4902174,44.2100843 54.4739131,34.7100115 54.4739131,27.4333599 C54.4739131,21.9758712 55.0836957,17.3268994 56.2016305,13.9917674 C57.6244565,9.84811859 59.8603261,7.7257619 62.8076087,7.7257619 C69.1086957,7.7257619 73.6820653,5.90659898 78.560326,3.98637148 C83.5402173,2.06614399 88.7233693,0.0448518876 95.8375,0.0448518876 C109.151087,0.0448518876 114.029348,3.07679004 117.078261,7.7257619 C127.342935,7.8268265 132.729348,14.6992196 132.729348,27.5344245 C132.729348,32.0823317 131.916305,39.9653709 131.306522,45.7260534 C131.001631,48.5558623 130.696739,51.2846067 130.696739,52.1941881 C134.152174,53.508028 137.607609,59.7740335 135.676631,67.9602665 C134.253805,74.1252076 130.086957,79.3805666 126.834783,81.4018592 C125.716848,82.1093113 124.700543,82.4125052 123.785869,82.4125052 C123.277717,85.1412492 120.838587,96.9658084 117.383152,100.705198 L117.383152,112.024435 C117.383152,115.460631 117.383152,118.189375 127.444565,122.333024 C130.290217,123.444735 134.965217,125.162833 140.351631,127.184125 C154.783152,132.439485 172.670109,139.008684 176.430435,142.64701 C184.357609,150.32792 186.898369,182.16327 186.898369,184.892015" id="XMLID_81_"></path>
                        </g>
                        <g id="XMLID_5_" transform="translate(42.684783, 139.784662)" fill-rule="nonzero">
                            <path d="M41.0586957,0.651239518 L2.3375,0.651239518 C1.32119565,0.651239518 0.609782609,1.45975636 0.609782609,2.3693378 L0.609782609,26.0184554 C0.609782609,27.0291015 1.42282609,27.7365536 2.3375,27.7365536 L41.0586957,27.7365536 C42.075,27.7365536 42.7864131,26.9280368 42.7864131,26.0184554 L42.7864131,2.3693378 C42.7864131,1.45975636 42.075,0.651239518 41.0586957,0.651239518 Z M5.58967391,21.6726774 C5.58967391,19.9545791 6.30108695,17.5290286 6.80923913,17.1247701 C7.31739133,16.6194471 9.35,15.9119949 10.3663043,15.6088011 C11.0777174,15.3056072 11.0777174,15.2045426 11.0777174,14.6992196 L11.0777174,14.092832 C9.8581522,13.0821859 9.14673913,11.3640876 9.14673913,9.747054 C9.14673913,7.7257619 10.7728261,5.80553438 12.9070652,5.80553438 C14.9396739,5.80553438 16.6673913,7.7257619 16.6673913,9.747054 C16.6673913,11.3640876 15.9559783,13.1832505 14.7364131,14.092832 L14.7364131,14.6992196 C14.7364131,15.103478 14.7364131,15.2045426 15.4478261,15.6088011 C16.3625,15.9119949 18.3951087,16.6194471 19.0048913,17.1247701 C19.5130435,17.6300932 20.2244565,19.9545791 20.2244565,21.6726774 L5.58967391,21.6726774 Z M37.5016305,19.9545791 L23.4766305,19.9545791 L23.4766305,18.2364808 L37.6032609,18.2364808 L37.6032609,19.9545791 L37.5016305,19.9545791 Z M37.5016305,15.5077365 L23.4766305,15.5077365 L23.4766305,13.7896382 L37.6032609,13.7896382 L37.6032609,15.5077365 L37.5016305,15.5077365 Z M37.5016305,11.1619584 L23.4766305,11.1619584 L23.4766305,9.44386013 L37.6032609,9.44386013 L37.6032609,11.1619584 L37.5016305,11.1619584 Z" id="XMLID_64_" fill="#FFFFFF"></path>
                            <path d="M41.0586957,28.3429413 L2.3375,28.3429413 C1.11793478,28.3429413 0,27.3322953 0,26.0184554 L0,2.3693378 C0,1.15656255 1.01630435,0.0448518876 2.3375,0.0448518876 L41.0586957,0.0448518876 C42.2782609,0.0448518876 43.3961957,1.05549794 43.3961957,2.3693378 L43.3961957,26.0184554 C43.2945652,27.3322953 42.2782609,28.3429413 41.0586957,28.3429413 Z M2.3375,1.15656255 C1.62608695,1.15656255 1.11793478,1.66188557 1.11793478,2.3693378 L1.11793478,26.0184554 C1.11793478,26.7259076 1.62608695,27.2312307 2.3375,27.2312307 L41.0586957,27.2312307 C41.7701087,27.2312307 42.2782609,26.7259076 42.2782609,26.0184554 L42.2782609,2.3693378 C42.2782609,1.66188557 41.7701087,1.15656255 41.0586957,1.15656255 L2.3375,1.15656255 Z M20.6309783,22.1780004 L5.08152174,22.1780004 L5.08152174,21.6726774 C5.08152174,19.9545791 5.69130435,17.3268994 6.50434783,16.7205117 C7.11413047,16.2151887 8.8418478,15.5077365 10.2646739,15.103478 C10.2646739,15.103478 10.5695652,14.9013488 10.6711957,14.9013488 L10.6711957,14.8002842 L10.6711957,14.3960258 C9.45163047,13.3853797 8.7402174,11.5662169 8.7402174,9.747054 C8.7402174,7.32150344 10.6711957,5.30021135 13.0086957,5.30021135 C15.3461957,5.30021135 17.2771739,7.32150344 17.2771739,9.747054 C17.2771739,11.5662169 16.4641305,13.2843151 15.3461957,14.3960258 L15.3461957,14.8002842 L15.3461957,15.0024134 C15.3461957,15.0024134 15.6510869,15.2045426 15.7527174,15.2045426 C17.0739131,15.6088011 18.8016305,16.3162533 19.4114131,16.8215763 C20.1228261,17.5290286 20.8342391,20.1567083 20.8342391,21.773742 L20.8342391,22.1780004 L20.6309783,22.1780004 Z M6.19945652,21.1673543 L19.6146739,21.1673543 C19.5130435,19.5503207 18.9032609,17.7311578 18.5983695,17.5290286 C18.2934783,17.2258347 16.9722826,16.7205117 15.2445652,16.1141241 C14.3298913,15.7098657 14.1266305,15.5077365 14.1266305,14.6992196 L14.1266305,13.7896382 L14.3298913,13.587509 C15.3461957,12.7789921 16.0576087,11.1619584 16.0576087,9.6459894 C16.0576087,7.8268265 14.5331522,6.2097928 12.8054348,6.2097928 C11.0777174,6.2097928 9.55326087,7.8268265 9.55326087,9.6459894 C9.55326087,11.1619584 10.2646739,12.7789921 11.2809783,13.587509 L11.4842391,13.7896382 L11.4842391,14.6992196 C11.4842391,15.4066719 11.2809783,15.6088011 10.4679348,16.0130595 C8.7402174,16.6194471 7.41902173,17.1247701 7.0125,17.427964 C6.91086957,17.7311578 6.30108695,19.5503207 6.19945652,21.1673543 Z M38.1114131,20.4599021 L22.8668478,20.4599021 L22.8668478,17.6300932 L38.0097826,17.6300932 L38.0097826,20.4599021 L38.1114131,20.4599021 Z M23.9847826,19.3481915 L36.9934783,19.3481915 L36.9934783,18.6407392 L23.9847826,18.6407392 L23.9847826,19.3481915 Z M38.1114131,16.1141241 L22.8668478,16.1141241 L22.8668478,13.2843151 L38.0097826,13.2843151 L38.0097826,16.1141241 L38.1114131,16.1141241 Z M23.9847826,15.0024134 L36.9934783,15.0024134 L36.9934783,14.2949612 L23.9847826,14.2949612 L23.9847826,15.0024134 Z M38.1114131,11.6672815 L22.8668478,11.6672815 L22.8668478,8.83747255 L38.0097826,8.83747255 L38.0097826,11.6672815 L38.1114131,11.6672815 Z M23.9847826,10.6566354 L36.9934783,10.6566354 L36.9934783,9.94918319 L23.9847826,9.94918319 L23.9847826,10.6566354 Z" id="XMLID_70_" fill="#9B9DA0"></path>
                        </g>
                        <g id="XMLID_30_" transform="translate(78.940416, 134.978413)" fill-rule="nonzero">
                            <rect id="XMLID_60_" fill="#FFFFFF" x="0.534583533" y="0.909581442" width="63.4173913" height="42.3460695"></rect>
                            <path d="M64.460127,43.8620386 L0.0264313585,43.8620386 L0.0264313585,0.40425842 L64.460127,0.40425842 L64.460127,43.8620386 Z M1.04273571,42.7503279 L63.3421922,42.7503279 L63.3421922,1.41490447 L1.04273571,1.41490447 L1.04273571,42.7503279 Z" id="XMLID_61_" fill="#9B9DA0"></path>
                        </g>
                        <g id="XMLID_31_" transform="translate(86.132831, 141.805954)" fill="#9B9DA0" fill-rule="nonzero">
                            <polygon id="XMLID_44_" points="0.0497781721 0.0448518876 1.879126 0.0448518876 1.879126 6.61405121 5.13129991 6.61405121 5.13129991 8.13002029 0.0497781721 8.13002029"></polygon>
                            <path d="M6.75738687,8.13002029 L4.82640861,0.0448518876 L6.75738687,0.0448518876 L7.36716948,3.37998386 C7.57043035,4.2895653 7.67206075,5.40127596 7.87532168,6.2097928 C7.97695208,5.30021135 8.18021295,4.3906299 8.38347382,3.37998386 L9.09488688,0.0448518876 L11.0258652,0.0448518876 L11.6356478,3.48104846 C11.8389086,4.3906299 11.940539,5.30021135 12.0421695,6.2097928 C12.1437999,5.30021135 12.3470607,4.3906299 12.5503217,3.37998386 L13.2617347,0.0448518876 L15.0910826,0.0448518876 L12.9568434,8.13002029 L10.9242347,8.13002029 L10.2128217,4.69382372 C10.0095607,3.88530688 9.90793035,3.07679004 9.80629988,2.16720859 C9.70466948,3.07679004 9.50140862,3.88530688 9.29814775,4.69382372 L8.48510428,8.13002029 L6.75738687,8.13002029 Z" id="XMLID_46_"></path>
                            <polygon id="XMLID_48_" points="16.1073869 0.0448518876 21.0872781 0.0448518876 21.0872781 1.56082096 17.9367347 1.56082096 17.9367347 3.37998386 20.8840173 3.37998386 20.8840173 4.89595293 17.9367347 4.89595293 17.9367347 8.13002029 16.1073869 8.13002029"></polygon>
                            <polygon id="XMLID_50_" points="26.9818434 1.96507938 26.9818434 1.96507938 25.4573869 2.67253162 25.1524955 1.25762715 27.1851043 0.348045703 28.7095607 0.348045703 28.7095607 8.13002029 26.9818434 8.13002029"></polygon>
                            <path d="M31.3519521,8.13002029 L31.3519521,7.01830965 L32.3682564,6.10872819 C34.0959738,4.59275911 34.9090173,3.68317767 34.9090173,2.77359622 C34.9090173,2.16720859 34.5024955,1.66188557 33.5878217,1.66188557 C32.8764086,1.66188557 32.3682564,1.96507938 31.9617347,2.2682732 L31.4535826,0.954433336 C32.0633652,0.550174913 32.978039,0.145916493 33.9943434,0.145916493 C35.7220607,0.145916493 36.7383652,1.15656255 36.7383652,2.57146701 C36.7383652,3.88530688 35.8236912,4.89595293 34.604126,5.90659898 L33.8927129,6.51298661 L36.8399955,6.51298661 L36.8399955,8.02895569 L31.3519521,8.02895569 L31.3519521,8.13002029 Z" id="XMLID_52_"></path>
                            <path d="M38.3644521,6.411922 C38.6693434,6.61405121 39.4823869,6.91724503 40.1937999,6.91724503 C41.1084738,6.91724503 41.616626,6.411922 41.616626,5.90659898 C41.616626,5.09808214 40.8035826,4.79488832 39.990539,4.79488832 L39.279126,4.79488832 L39.279126,3.48104846 L39.990539,3.48104846 C40.6003217,3.48104846 41.4133652,3.27891925 41.4133652,2.57146701 C41.4133652,2.06614399 41.0068434,1.76295017 40.2954303,1.76295017 C39.6856478,1.76295017 38.9742347,2.06614399 38.6693434,2.2682732 L38.2628217,0.954433336 C38.7709738,0.651239518 39.6856478,0.348045703 40.7019521,0.348045703 C42.328039,0.348045703 43.3443434,1.25762715 43.3443434,2.2682732 C43.3443434,3.07679004 42.8361912,3.78424228 41.9215173,4.08743609 C42.8361912,4.2895653 43.6492347,4.99701753 43.6492347,6.00766359 C43.6492347,7.42256804 42.4296695,8.43321409 40.3970607,8.43321409 C39.3807564,8.43321409 38.5677129,8.13002029 38.0595607,7.9278911 L38.3644521,6.411922 Z" id="XMLID_54_"></path>
                            <path d="M47.9177129,8.13002029 L47.9177129,6.3108574 L44.4622781,6.3108574 L44.4622781,5.09808214 L47.4095607,0.348045703 L49.6454303,0.348045703 L49.6454303,4.89595293 L50.5601043,4.89595293 L50.5601043,6.3108574 L49.6454303,6.3108574 L49.6454303,8.13002029 L47.9177129,8.13002029 Z M47.9177129,4.89595293 L47.9177129,3.17785465 C47.9177129,2.67253162 47.9177129,2.2682732 48.0193434,1.76295017 C47.8160826,2.2682732 47.5111912,2.67253162 47.3079303,3.17785465 L46.291626,4.89595293 L47.9177129,4.89595293 Z" id="XMLID_56_"></path>
                        </g>
                        <g id="XMLID_39_" transform="translate(106.711957, 160.244564)" fill="#9B9DA0" fill-rule="nonzero">
                            <path d="M5.08152174,1.81916289 C5.18315217,1.81916289 5.38641305,1.71809829 5.58967391,1.71809829 C5.79293478,1.71809829 5.99619565,1.61703368 6.19945652,1.61703368 L6.91086957,1.61703368 C7.11413047,1.61703368 7.41902173,1.61703368 7.6222826,1.71809829 C7.82554347,1.81916289 8.02880433,1.81916289 8.1304348,2.0212921 C8.2320652,2.12235671 8.33369567,2.32448592 8.43532607,2.52661512 C8.53695653,2.82980894 8.43532607,3.03193815 8.33369567,3.23406736 C8.1304348,3.43619657 7.92717393,3.53726118 7.72391307,3.63832578 C7.72391307,3.63832578 7.72391307,3.63832578 7.6222826,3.63832578 L7.41902173,3.63832578 L7.31739133,3.63832578 C7.31739133,3.63832578 7.21576087,3.63832578 7.21576087,3.53726118 C7.21576087,3.43619657 7.21576087,3.43619657 7.31739133,3.33513197 C7.41902173,3.23406736 7.41902173,3.23406736 7.5206522,3.13300275 C7.6222826,3.03193815 7.72391307,3.03193815 7.72391307,2.93087354 C7.82554347,2.82980894 7.82554347,2.82980894 7.82554347,2.72874433 C7.82554347,2.62767973 7.72391307,2.52661512 7.5206522,2.52661512 C7.31739133,2.52661512 7.11413047,2.42555052 6.80923913,2.52661512 C6.50434783,2.62767973 6.30108695,2.52661512 5.99619565,2.62767973 C5.69130435,2.62767973 5.48804348,2.72874433 5.28478261,2.72874433 C5.08152174,2.72874433 4.87826087,2.82980894 4.57336957,2.93087354 C4.26847826,3.03193815 3.96358695,3.13300275 3.65869565,3.23406736 C3.35380435,3.33513197 3.04891305,3.53726118 2.74402174,3.73939039 C2.43913043,3.9415196 2.13423913,4.0425842 1.93097826,4.24471341 C1.72771739,4.44684262 1.52445652,4.64897183 1.32119565,4.85110104 C1.11793478,5.05323025 1.11793478,5.25535946 1.11793478,5.45748868 C1.11793478,5.55855328 1.21956522,5.65961789 1.42282609,5.76068249 C1.62608695,5.86174709 1.82934783,5.86174709 2.13423913,5.9628117 C2.43913043,5.9628117 2.74402174,6.0638763 3.15054348,6.0638763 L4.26847826,6.0638763 L5.38641305,6.0638763 C5.69130435,6.0638763 5.99619565,6.0638763 6.19945652,6.16494091 C6.40271739,6.16494091 6.70760869,6.26600551 6.91086957,6.26600551 C7.21576087,6.36707012 7.41902173,6.36707012 7.72391307,6.56919933 C7.92717393,6.67026393 8.1304348,6.77132854 8.33369567,6.97345773 C8.53695653,7.17558693 8.63858693,7.37771619 8.7402174,7.57984539 C8.8418478,7.78197458 8.7402174,7.98410378 8.7402174,8.18623298 C8.63858693,8.38836224 8.53695653,8.48942684 8.43532607,8.69155603 C8.2320652,8.79262063 8.1304348,8.99474983 7.82554347,9.09581442 C7.6222826,9.19687909 7.31739133,9.29794369 7.11413047,9.29794369 C6.50434783,9.39900829 5.99619565,9.50007289 5.38641305,9.50007289 C4.77663043,9.50007289 4.26847826,9.50007289 3.65869565,9.39900829 C3.45543478,9.39900829 3.25217391,9.29794369 3.04891305,9.29794369 C2.84565217,9.19687909 2.64239131,9.19687909 2.43913043,9.09581442 C2.23586957,8.99474983 2.03260869,8.89368523 1.93097826,8.69155603 C1.72771739,8.59049144 1.62608695,8.38836224 1.62608695,8.18623298 L1.62608695,7.88303918 C1.62608695,7.78197458 1.72771739,7.68090999 1.72771739,7.57984539 C1.82934783,7.47878079 1.93097826,7.37771619 2.03260869,7.2766516 C2.13423913,7.17558693 2.23586957,7.17558693 2.43913043,7.07452233 L2.54076087,7.07452233 L2.64239131,7.07452233 C2.64239131,7.07452233 2.74402174,7.07452233 2.74402174,7.17558693 C2.74402174,7.17558693 2.74402174,7.2766516 2.64239131,7.2766516 C2.54076087,7.37771619 2.43913043,7.47878079 2.3375,7.57984539 C2.23586957,7.68090999 2.23586957,7.68090999 2.13423913,7.78197458 C2.03260869,7.88303918 2.03260869,7.88303918 2.03260869,7.98410378 L2.03260869,8.18623298 C2.03260869,8.28729764 2.13423913,8.38836224 2.23586957,8.48942684 C2.3375,8.59049144 2.43913043,8.69155603 2.54076087,8.69155603 C2.64239131,8.79262063 2.74402174,8.79262063 2.84565217,8.79262063 C2.94728261,8.79262063 3.04891305,8.89368523 3.15054348,8.89368523 C3.76032609,8.99474983 4.26847826,9.09581442 4.87826087,9.09581442 C5.48804348,9.09581442 6.09782609,8.99474983 6.70760869,8.89368523 C6.80923913,8.89368523 6.91086957,8.79262063 7.11413047,8.79262063 C7.31739133,8.79262063 7.41902173,8.69155603 7.6222826,8.59049144 C7.82554347,8.48942684 7.92717393,8.38836224 8.02880433,8.28729764 C8.1304348,8.18623298 8.1304348,8.08516838 8.1304348,7.88303918 C8.02880433,7.68090999 7.92717393,7.47878079 7.72391307,7.37771619 C7.5206522,7.2766516 7.21576087,7.17558693 6.91086957,7.07452233 C6.60597826,6.97345773 6.19945652,6.97345773 5.89456522,6.97345773 C5.48804348,6.97345773 5.18315217,6.97345773 4.97989131,6.87239314 C4.16684783,6.87239314 3.55706522,6.77132854 2.94728261,6.77132854 C2.43913043,6.77132854 1.93097826,6.67026393 1.62608695,6.56919933 C1.21956522,6.46813472 1.01630435,6.36707012 0.81304348,6.26600551 C0.609782609,6.16494091 0.508152174,5.9628117 0.508152174,5.76068249 C0.406521739,5.45748868 0.508152174,5.15429485 0.609782609,4.85110104 C0.711413047,4.54790723 0.914673913,4.24471341 1.21956522,4.0425842 C1.52445652,3.73939039 1.82934783,3.53726118 2.13423913,3.33513197 C2.43913043,3.13300275 2.84565217,2.93087354 3.25217391,2.72874433 C3.65869565,2.52661512 3.96358695,2.42555052 4.37010869,2.32448592 C4.57336957,1.9202275 4.87826087,1.81916289 5.08152174,1.81916289 Z" id="XMLID_18_"></path>
                            <path d="M9.75652173,3.9415196 L9.75652173,4.14364881 C9.75652173,4.24471341 9.75652173,4.24471341 9.65489133,4.34577802 C9.65489133,4.44684262 9.55326087,4.44684262 9.45163047,4.54790723 C9.35,4.64897183 9.24836953,4.64897183 9.24836953,4.64897183 C9.04510867,4.75003644 8.94347827,4.75003644 8.7402174,4.75003644 C8.53695653,4.75003644 8.43532607,4.64897183 8.33369567,4.54790723 C8.2320652,4.44684262 8.2320652,4.24471341 8.33369567,4.14364881 C8.43532607,4.0425842 8.53695653,3.9415196 8.7402174,3.84045499 C8.94347827,3.73939039 9.14673913,3.73939039 9.24836953,3.73939039 C9.55326087,3.73939039 9.65489133,3.84045499 9.75652173,3.9415196 Z M8.94347827,5.65961789 L8.94347827,5.25535946 C9.04510867,5.15429485 9.14673913,5.15429485 9.24836953,5.15429485 C9.35,5.15429485 9.45163047,5.15429485 9.55326087,5.25535946 C9.65489133,5.35642407 9.65489133,5.35642407 9.75652173,5.55855328 L9.75652173,6.0638763 C9.75652173,6.26600551 9.8581522,6.46813472 9.8581522,6.56919933 C9.8581522,6.77132854 9.9597826,6.87239314 9.9597826,6.97345773 C9.9597826,7.07452233 10.0614131,7.17558693 10.1630435,7.17558693 C10.1630435,7.17558693 10.2646739,7.07452233 10.2646739,6.97345773 C10.2646739,6.87239314 10.3663043,6.67026393 10.3663043,6.56919933 L10.3663043,6.0638763 L10.3663043,5.65961789 C10.3663043,5.55855328 10.3663043,5.55855328 10.4679348,5.45748868 L10.5695652,5.35642407 L10.6711957,5.35642407 C10.6711957,5.35642407 10.7728261,5.45748868 10.7728261,5.55855328 L10.7728261,5.76068249 L10.7728261,6.16494091 C10.7728261,6.36707012 10.7728261,6.46813472 10.6711957,6.67026393 C10.6711957,6.87239314 10.5695652,6.97345773 10.5695652,7.07452233 C10.4679348,7.17558693 10.4679348,7.2766516 10.3663043,7.37771619 C10.2646739,7.47878079 10.1630435,7.47878079 10.0614131,7.47878079 C9.8581522,7.47878079 9.65489133,7.37771619 9.55326087,7.2766516 C9.45163047,7.17558693 9.35,6.97345773 9.24836953,6.77132854 C9.14673913,6.56919933 9.14673913,6.36707012 9.04510867,6.16494091 C9.04510867,6.16494091 8.94347827,5.9628117 8.94347827,5.65961789 Z" id="XMLID_20_"></path>
                            <path d="M12.6021739,4.75003644 C12.6021739,5.05323025 12.7038043,5.35642407 12.8054348,5.65961789 C12.9070652,5.9628117 12.9070652,6.16494091 13.0086957,6.36707012 C13.2119565,5.9628117 13.3135869,5.55855328 13.3135869,4.95216565 C13.3135869,4.85110104 13.3135869,4.85110104 13.4152174,4.75003644 C13.4152174,4.75003644 13.5168478,4.64897183 13.5168478,4.75003644 C13.5168478,4.75003644 13.6184783,4.75003644 13.6184783,4.85110104 L13.6184783,5.05323025 C13.6184783,5.45748868 13.5168478,5.86174709 13.4152174,6.16494091 C13.3135869,6.46813472 13.2119565,6.77132854 13.0086957,6.97345773 L13.0086957,7.2766516 L13.0086957,7.68090999 C13.0086957,8.08516838 12.9070652,8.38836224 12.7038043,8.59049144 C12.5005435,8.79262063 12.3989131,8.99474983 12.1956522,8.99474983 C11.9923913,9.09581442 11.7891305,9.09581442 11.5858695,9.09581442 C11.3826087,9.09581442 11.1793478,8.99474983 11.1793478,8.89368523 C10.9760869,8.69155603 10.9760869,8.48942684 10.9760869,8.28729764 C10.9760869,8.08516838 11.0777174,7.88303918 11.2809783,7.78197458 C11.3826087,7.57984539 11.5858695,7.47878079 11.7891305,7.37771619 C11.9923913,7.2766516 12.1956522,7.17558693 12.2972826,7.07452233 L12.2972826,6.77132854 C12.2972826,6.87239314 12.1956522,6.97345773 12.0940217,7.07452233 C11.9923913,7.17558693 11.8907609,7.17558693 11.7891305,7.2766516 C11.4842391,7.37771619 11.2809783,7.2766516 11.0777174,7.17558693 C10.8744565,7.07452233 10.7728261,6.87239314 10.6711957,6.67026393 C10.5695652,6.46813472 10.4679348,6.26600551 10.4679348,5.9628117 L10.4679348,5.15429485 C10.4679348,4.95216565 10.5695652,4.64897183 10.6711957,4.54790723 C10.7728261,4.34577802 10.9760869,4.24471341 11.1793478,4.24471341 L11.5858695,4.24471341 C11.7891305,4.34577802 11.8907609,4.44684262 11.9923913,4.54790723 C12.0940217,4.54790723 12.0940217,4.54790723 12.1956522,4.44684262 L12.3989131,4.44684262 C12.5005435,4.44684262 12.5005435,4.44684262 12.6021739,4.54790723 C12.5005435,4.54790723 12.6021739,4.64897183 12.6021739,4.75003644 Z M11.9923913,6.26600551 L11.9923913,5.76068249 C11.9923913,5.55855328 11.8907609,5.35642407 11.8907609,5.25535946 C11.7891305,5.05323025 11.7891305,4.95216565 11.6875,4.85110104 C11.5858695,4.75003644 11.4842391,4.75003644 11.3826087,4.75003644 C11.2809783,4.75003644 11.1793478,4.85110104 11.1793478,4.95216565 C11.1793478,5.05323025 11.0777174,5.25535946 11.0777174,5.35642407 L11.0777174,5.86174709 C11.0777174,6.0638763 11.1793478,6.26600551 11.1793478,6.36707012 C11.2809783,6.56919933 11.2809783,6.67026393 11.3826087,6.77132854 C11.4842391,6.87239314 11.5858695,6.87239314 11.6875,6.87239314 C11.7891305,6.87239314 11.7891305,6.87239314 11.7891305,6.77132854 L11.8907609,6.67026393 L11.8907609,6.46813472 C11.9923913,6.36707012 11.9923913,6.26600551 11.9923913,6.26600551 Z M12.2972826,7.47878079 C12.0940217,7.57984539 11.8907609,7.68090999 11.7891305,7.88303918 C11.6875,7.98410378 11.5858695,8.18623298 11.5858695,8.38836224 C11.5858695,8.48942684 11.5858695,8.59049144 11.6875,8.59049144 L11.8907609,8.59049144 C11.9923913,8.59049144 12.0940217,8.38836224 12.0940217,8.28729764 C12.1956522,8.08516838 12.1956522,7.88303918 12.1956522,7.68090999 L12.2972826,7.47878079 Z" id="XMLID_23_"></path>
                            <path d="M13.2119565,4.44684262 C13.2119565,4.34577802 13.2119565,4.14364881 13.3135869,4.0425842 C13.4152174,3.9415196 13.5168478,3.84045499 13.6184783,3.84045499 L13.9233695,3.84045499 C14.025,3.84045499 14.025,3.9415196 14.1266305,4.0425842 L14.1266305,4.34577802 L14.1266305,4.75003644 L14.1266305,5.15429485 C14.1266305,5.25535946 14.1266305,5.35642407 14.2282609,5.45748868 C14.2282609,5.25535946 14.2282609,5.05323025 14.3298913,4.95216565 C14.3298913,4.75003644 14.4315217,4.64897183 14.4315217,4.54790723 C14.4315217,4.44684262 14.5331522,4.34577802 14.6347826,4.34577802 C14.7364131,4.24471341 14.8380435,4.24471341 14.9396739,4.24471341 L15.1429348,4.24471341 C15.2445652,4.24471341 15.2445652,4.34577802 15.2445652,4.44684262 L15.2445652,4.75003644 C15.2445652,4.85110104 15.2445652,5.05323025 15.3461957,5.15429485 C15.3461957,5.25535946 15.4478261,5.35642407 15.4478261,5.45748868 C15.4478261,5.55855328 15.5494565,5.55855328 15.5494565,5.55855328 C15.5494565,5.55855328 15.6510869,5.45748868 15.6510869,5.35642407 C15.6510869,5.25535946 15.7527174,5.15429485 15.7527174,5.05323025 C15.7527174,4.95216565 15.8543478,4.75003644 15.8543478,4.64897183 C15.8543478,4.54790723 15.8543478,4.34577802 15.9559783,4.34577802 C15.9559783,4.24471341 15.9559783,4.24471341 16.0576087,4.24471341 C16.0576087,4.24471341 16.1592391,4.24471341 16.1592391,4.14364881 L16.2608695,4.14364881 L16.3625,4.24471341 L16.3625,4.64897183 C16.3625,4.85110104 16.2608695,5.05323025 16.2608695,5.25535946 C16.1592391,5.45748868 16.1592391,5.65961789 16.0576087,5.76068249 C15.9559783,5.9628117 15.8543478,5.9628117 15.7527174,6.0638763 C15.5494565,6.0638763 15.3461957,6.0638763 15.2445652,5.9628117 C15.1429348,5.86174709 15.0413043,5.76068249 14.9396739,5.65961789 C14.8380435,5.55855328 14.8380435,5.35642407 14.8380435,5.25535946 C14.8380435,5.15429485 14.8380435,5.05323025 14.7364131,5.05323025 C14.7364131,5.05323025 14.6347826,5.15429485 14.6347826,5.25535946 L14.6347826,5.55855328 L14.6347826,5.9628117 L14.6347826,6.26600551 C14.6347826,6.36707012 14.6347826,6.46813472 14.5331522,6.46813472 C14.4315217,6.56919933 14.4315217,6.56919933 14.3298913,6.56919933 L14.025,6.56919933 C13.9233695,6.56919933 13.9233695,6.46813472 13.8217391,6.36707012 C13.8217391,6.26600551 13.7201087,6.0638763 13.7201087,5.9628117 C13.7201087,5.76068249 13.6184783,5.65961789 13.5168478,5.45748868 C13.4152174,5.25535946 13.4152174,5.05323025 13.4152174,4.95216565 C13.2119565,4.75003644 13.2119565,4.64897183 13.2119565,4.44684262 Z" id="XMLID_27_"></path>
                            <path d="M16.8706522,3.03193815 C16.9722826,3.03193815 17.0739131,3.03193815 17.1755435,3.13300275 C17.2771739,3.23406736 17.3788043,3.23406736 17.3788043,3.33513197 C17.3788043,3.23406736 17.4804348,3.23406736 17.5820652,3.13300275 L17.7853261,3.13300275 C17.8869565,3.13300275 17.9885869,3.13300275 17.9885869,3.23406736 C18.0902174,3.33513197 18.0902174,3.33513197 18.0902174,3.43619657 L18.0902174,3.9415196 C18.0902174,4.14364881 18.1918478,4.34577802 18.1918478,4.44684262 C18.1918478,4.64897183 18.2934783,4.75003644 18.2934783,4.85110104 C18.2934783,4.95216565 18.3951087,5.05323025 18.4967391,5.05323025 C18.4967391,5.05323025 18.5983695,4.95216565 18.5983695,4.85110104 C18.5983695,4.75003644 18.7,4.54790723 18.7,4.44684262 C18.7,4.24471341 18.7,4.14364881 18.8016305,3.9415196 L18.8016305,3.53726118 C18.8016305,3.43619657 18.8016305,3.43619657 18.9032609,3.33513197 L19.0048913,3.23406736 L19.1065217,3.23406736 C19.1065217,3.23406736 19.2081522,3.33513197 19.2081522,3.43619657 L19.2081522,3.63832578 L19.2081522,4.0425842 C19.2081522,4.24471341 19.2081522,4.34577802 19.1065217,4.54790723 C19.1065217,4.75003644 19.0048913,4.85110104 19.0048913,4.95216565 C18.9032609,5.05323025 18.9032609,5.15429485 18.8016305,5.25535946 C18.7,5.35642407 18.5983695,5.35642407 18.4967391,5.35642407 C18.2934783,5.35642407 18.0902174,5.25535946 17.9885869,5.05323025 C17.9885869,5.25535946 17.8869565,5.35642407 17.8869565,5.55855328 C17.7853261,5.76068249 17.6836957,5.86174709 17.5820652,5.9628117 C17.4804348,6.0638763 17.2771739,6.0638763 17.1755435,6.0638763 C16.9722826,6.0638763 16.7690217,5.9628117 16.5657609,5.76068249 C16.3625,5.55855328 16.2608695,5.35642407 16.1592391,5.15429485 C16.0576087,4.95216565 15.9559783,4.64897183 15.9559783,4.34577802 L15.9559783,3.53726118 C16.0576087,3.33513197 16.1592391,3.03193815 16.2608695,2.93087354 C16.3625,3.13300275 16.5657609,3.03193815 16.8706522,3.03193815 Z M17.3788043,4.0425842 C17.3788043,3.9415196 17.2771739,3.84045499 17.1755435,3.73939039 C17.0739131,3.63832578 17.0739131,3.63832578 16.9722826,3.63832578 C16.8706522,3.63832578 16.7690217,3.73939039 16.6673913,3.84045499 C16.5657609,3.9415196 16.5657609,4.14364881 16.5657609,4.34577802 L16.5657609,4.95216565 C16.5657609,5.15429485 16.6673913,5.35642407 16.6673913,5.55855328 C16.6673913,5.76068249 16.7690217,5.86174709 16.8706522,5.9628117 C16.9722826,6.0638763 17.0739131,6.16494091 17.1755435,6.16494091 C17.2771739,6.16494091 17.3788043,6.0638763 17.3788043,5.9628117 C17.3788043,5.86174709 17.4804348,5.65961789 17.4804348,5.45748868 L17.4804348,4.85110104 C17.4804348,4.34577802 17.4804348,4.14364881 17.3788043,4.0425842 Z" id="XMLID_29_"></path>
                            <path d="M18.5983695,2.0212921 L18.5983695,1.9202275 L18.5983695,1.81916289 L18.5983695,1.41490447 C18.7,1.31383987 18.8016305,1.31383987 18.9032609,1.21277526 L19.2081522,1.21277526 C19.3097826,1.21277526 19.3097826,1.31383987 19.4114131,1.41490447 L19.4114131,1.71809829 L19.6146739,1.61703368 L19.9195652,1.61703368 C20.0211957,1.61703368 20.0211957,1.71809829 20.0211957,1.71809829 C20.0211957,1.81916289 20.0211957,1.81916289 19.9195652,1.9202275 C19.8179348,2.0212921 19.8179348,2.0212921 19.7163043,2.0212921 L19.4114131,2.12235671 C19.4114131,2.42555052 19.5130435,2.62767973 19.5130435,2.93087354 C19.6146739,3.23406736 19.6146739,3.53726118 19.7163043,3.84045499 C19.8179348,4.14364881 19.8179348,4.34577802 19.9195652,4.54790723 C20.0211957,4.75003644 20.0211957,4.85110104 20.1228261,4.75003644 C20.1228261,4.75003644 20.2244565,4.64897183 20.2244565,4.54790723 C20.2244565,4.44684262 20.3260869,4.24471341 20.3260869,4.0425842 C20.3260869,3.84045499 20.4277174,3.63832578 20.4277174,3.53726118 L20.4277174,3.23406736 C20.4277174,3.13300275 20.4277174,3.13300275 20.5293478,3.13300275 L20.6309783,3.13300275 L20.7326087,3.13300275 L20.8342391,3.23406736 L20.8342391,3.84045499 C20.8342391,4.0425842 20.8342391,4.34577802 20.7326087,4.54790723 C20.6309783,4.75003644 20.6309783,4.95216565 20.5293478,5.15429485 C20.4277174,5.35642407 20.2244565,5.45748868 20.0211957,5.55855328 C19.9195652,5.55855328 19.7163043,5.55855328 19.6146739,5.45748868 C19.5130435,5.35642407 19.4114131,5.25535946 19.3097826,5.05323025 C19.2081522,4.85110104 19.1065217,4.75003644 19.1065217,4.44684262 C19.0048913,4.24471341 19.0048913,4.0425842 18.9032609,3.73939039 C18.8016305,3.53726118 18.8016305,3.23406736 18.8016305,3.03193815 C18.8016305,2.82980894 18.7,2.52661512 18.7,2.32448592 L18.4967391,2.42555052 L18.1918478,2.42555052 C18.0902174,2.42555052 18.0902174,2.32448592 18.0902174,2.32448592 L18.0902174,2.12235671 C18.0902174,2.0212921 18.1918478,2.0212921 18.3951087,2.0212921 L18.5983695,2.0212921 Z" id="XMLID_34_"></path>
                            <path d="M20.2244565,2.62767973 C20.2244565,2.52661512 20.2244565,2.42555052 20.3260869,2.32448592 C20.4277174,2.22342131 20.5293478,2.22342131 20.6309783,2.12235671 L20.9358695,2.12235671 C21.0375,2.12235671 21.0375,2.22342131 21.1391305,2.22342131 C21.1391305,2.42555052 21.2407609,2.72874433 21.2407609,2.93087354 C21.2407609,3.13300275 21.3423913,3.43619657 21.3423913,3.63832578 C21.3423913,3.84045499 21.3423913,4.0425842 21.4440217,4.14364881 C21.4440217,4.24471341 21.5456522,4.34577802 21.5456522,4.34577802 C21.5456522,4.34577802 21.6472826,4.34577802 21.6472826,4.24471341 C21.6472826,4.14364881 21.6472826,4.0425842 21.7489131,3.9415196 L21.7489131,3.53726118 L21.7489131,3.13300275 L21.7489131,2.72874433 L21.7489131,2.42555052 C21.7489131,2.32448592 21.7489131,2.22342131 21.8505435,2.22342131 C21.9521739,2.22342131 22.0538043,2.12235671 22.1554348,2.12235671 C22.2570652,2.12235671 22.3586957,2.12235671 22.4603261,2.22342131 C22.5619565,2.22342131 22.5619565,2.32448592 22.5619565,2.42555052 L22.5619565,2.93087354 C22.5619565,3.13300275 22.6635869,3.33513197 22.6635869,3.53726118 C22.6635869,3.73939039 22.7652174,3.84045499 22.7652174,3.9415196 C22.7652174,4.0425842 22.8668478,4.14364881 22.9684783,4.14364881 C22.9684783,4.14364881 23.0701087,4.0425842 23.0701087,3.9415196 C23.0701087,3.84045499 23.1717391,3.63832578 23.1717391,3.53726118 L23.1717391,3.03193815 L23.1717391,2.62767973 C23.1717391,2.52661512 23.1717391,2.52661512 23.2733695,2.42555052 L23.375,2.32448592 L23.4766305,2.32448592 C23.4766305,2.32448592 23.5782609,2.42555052 23.5782609,2.52661512 L23.5782609,2.82980894 C23.5782609,3.03193815 23.5782609,3.13300275 23.4766305,3.33513197 C23.4766305,3.53726118 23.375,3.73939039 23.375,3.9415196 C23.2733695,4.14364881 23.2733695,4.24471341 23.1717391,4.34577802 C23.0701087,4.44684262 23.0701087,4.44684262 22.9684783,4.44684262 L22.6635869,4.44684262 C22.5619565,4.44684262 22.4603261,4.34577802 22.3586957,4.34577802 C22.2570652,4.24471341 22.1554348,4.14364881 22.1554348,4.0425842 C22.1554348,3.9415196 22.0538043,3.84045499 22.0538043,3.73939039 C22.0538043,3.9415196 22.0538043,4.14364881 21.9521739,4.34577802 C21.9521739,4.54790723 21.8505435,4.75003644 21.7489131,4.85110104 C21.6472826,4.95216565 21.6472826,5.05323025 21.5456522,5.05323025 L21.2407609,5.05323025 C21.1391305,5.05323025 21.0375,4.95216565 20.9358695,4.95216565 C20.8342391,4.85110104 20.7326087,4.85110104 20.7326087,4.75003644 C20.7326087,4.64897183 20.6309783,4.54790723 20.6309783,4.34577802 C20.6309783,4.14364881 20.5293478,4.0425842 20.5293478,3.84045499 C20.5293478,3.63832578 20.4277174,3.43619657 20.4277174,3.23406736 C20.3260869,3.03193815 20.3260869,2.82980894 20.2244565,2.62767973 Z" id="XMLID_36_"></path>
                            <path d="M23.5782609,2.52661512 C23.5782609,2.62767973 23.5782609,2.62767973 23.4766305,2.62767973 L23.375,2.72874433 L23.2733695,2.72874433 L23.2733695,2.62767973 L23.2733695,2.42555052 C23.1717391,2.42555052 23.1717391,2.32448592 23.0701087,2.22342131 L23.0701087,2.0212921 C23.0701087,1.9202275 23.1717391,1.81916289 23.1717391,1.81916289 C23.2733695,1.71809829 23.2733695,1.71809829 23.375,1.71809829 C23.4766305,1.71809829 23.5782609,1.71809829 23.6798913,1.81916289 L23.6798913,2.22342131 L23.8831522,2.22342131 C23.9847826,2.22342131 24.0864131,2.12235671 24.1880435,2.12235671 L24.3913043,2.12235671 C24.4929348,2.12235671 24.4929348,2.22342131 24.4929348,2.32448592 L24.4929348,2.82980894 C24.4929348,3.03193815 24.4929348,3.13300275 24.5945652,3.33513197 C24.5945652,3.53726118 24.6961957,3.63832578 24.6961957,3.73939039 C24.6961957,3.84045499 24.7978261,3.9415196 24.8994565,3.84045499 C24.8994565,3.84045499 25.0010869,3.73939039 25.0010869,3.63832578 C25.0010869,3.53726118 25.1027174,3.33513197 25.1027174,3.13300275 C25.1027174,2.93087354 25.2043478,2.72874433 25.2043478,2.62767973 L25.2043478,2.22342131 C25.2043478,2.12235671 25.2043478,2.12235671 25.3059783,2.0212921 L25.4076087,1.9202275 L25.5092391,1.9202275 C25.5092391,1.9202275 25.6108695,2.0212921 25.6108695,2.12235671 L25.6108695,2.32448592 L25.6108695,2.72874433 C25.6108695,2.93087354 25.6108695,3.03193815 25.5092391,3.23406736 C25.5092391,3.43619657 25.4076087,3.53726118 25.4076087,3.73939039 C25.3059783,3.9415196 25.3059783,4.0425842 25.2043478,4.14364881 C25.1027174,4.24471341 25.0010869,4.34577802 24.7978261,4.34577802 C24.5945652,4.34577802 24.4929348,4.34577802 24.3913043,4.24471341 C24.2896739,4.14364881 24.1880435,3.9415196 24.0864131,3.73939039 C23.9847826,3.53726118 23.9847826,3.33513197 23.9847826,3.13300275 L23.9847826,2.52661512 L23.8831522,2.52661512 L23.7815217,2.52661512 C23.5782609,2.52661512 23.4766305,2.52661512 23.5782609,2.52661512 Z" id="XMLID_38_"></path>
                            <path d="M26.8304348,1.61703368 C26.8304348,1.71809829 26.7288043,1.81916289 26.6271739,1.81916289 C26.5255435,1.9202275 26.4239131,1.9202275 26.4239131,2.0212921 C26.3222826,2.12235671 26.2206522,2.12235671 26.1190217,2.12235671 C26.0173913,2.12235671 25.9157609,2.22342131 25.8141305,2.22342131 C25.8141305,2.32448592 25.8141305,2.52661512 25.9157609,2.62767973 C25.9157609,2.72874433 26.0173913,2.93087354 26.0173913,3.03193815 C26.0173913,3.13300275 26.1190217,3.23406736 26.2206522,3.33513197 C26.3222826,3.43619657 26.3222826,3.43619657 26.4239131,3.43619657 C26.5255435,3.43619657 26.6271739,3.43619657 26.7288043,3.33513197 C26.8304348,3.23406736 26.9320652,3.13300275 26.9320652,3.03193815 C27.0336957,2.93087354 27.0336957,2.72874433 27.1353261,2.62767973 C27.2369565,2.42555052 27.2369565,2.32448592 27.2369565,2.12235671 C27.2369565,2.0212921 27.3385869,1.81916289 27.3385869,1.71809829 L27.3385869,1.41490447 C27.3385869,1.31383987 27.3385869,1.31383987 27.4402174,1.31383987 C27.4402174,1.31383987 27.5418478,1.31383987 27.5418478,1.21277526 L27.6434783,1.21277526 L27.7451087,1.31383987 L27.7451087,1.61703368 L27.7451087,2.0212921 C27.7451087,2.22342131 27.6434783,2.32448592 27.6434783,2.52661512 C27.5418478,2.72874433 27.5418478,2.93087354 27.4402174,3.03193815 C27.3385869,3.23406736 27.2369565,3.33513197 27.0336957,3.43619657 C26.9320652,3.53726118 26.7288043,3.63832578 26.5255435,3.73939039 C26.3222826,3.84045499 26.0173913,3.73939039 25.9157609,3.63832578 C25.7125,3.53726118 25.6108695,3.33513197 25.5092391,3.03193815 C25.4076087,2.82980894 25.3059783,2.52661512 25.3059783,2.22342131 C25.3059783,1.9202275 25.2043478,1.61703368 25.3059783,1.31383987 C25.3059783,1.01064605 25.4076087,0.808516838 25.5092391,0.60638763 C25.6108695,0.40425842 25.7125,0.303193815 25.9157609,0.20212921 C26.1190217,0.20212921 26.2206522,0.20212921 26.4239131,0.303193815 C26.6271739,0.40425842 26.7288043,0.505323025 26.8304348,0.60638763 C26.9320652,0.707452233 27.0336957,0.909581442 27.0336957,1.01064605 C26.8304348,1.41490447 26.8304348,1.51596908 26.8304348,1.61703368 Z M25.9157609,0.909581442 C25.9157609,0.909581442 25.8141305,1.01064605 25.8141305,1.21277526 L25.8141305,1.81916289 C25.9157609,1.81916289 25.9157609,1.81916289 26.0173913,1.71809829 C26.1190217,1.71809829 26.1190217,1.61703368 26.1190217,1.61703368 L26.1190217,1.41490447 C26.1190217,1.31383987 26.1190217,1.21277526 26.0173913,1.21277526 C26.1190217,1.01064605 26.0173913,0.909581442 25.9157609,0.909581442 C26.0173913,0.808516838 25.9157609,0.808516838 25.9157609,0.909581442 Z" id="XMLID_41_"></path>
                        </g>
                    </g>
                </g>
            </g>
        </g>
    </g>
</svg>