<?xml version="1.0" encoding="UTF-8" standalone="no"?>
<svg width="72px" height="72px" viewBox="0 0 72 72" version="1.1" xmlns="http://www.w3.org/2000/svg" xmlns:xlink="http://www.w3.org/1999/xlink">
    <!-- Generator: Sketch 48.2 (47327) - http://www.bohemiancoding.com/sketch -->
    <title>ICON FORWARDERS</title>
    <desc>Created with Sketch.</desc>
    <defs></defs>
    <g id="Symbols" stroke="none" stroke-width="1" fill="none" fill-rule="evenodd">
        <g id="ICON-FORWARDERS" transform="translate(1.000000, 1.000000)" fill="#F7A800" stroke="#F7A800">
            <g id="insurance">
                <path d="M49.8630137,58.8479452 C49.3362623,58.8647325 48.8373388,58.6116554 48.539726,58.1767123 L43.7452055,51.5219178 C43.2105841,50.791676 43.3599151,49.7676919 44.0808219,49.2205479 C44.8125907,48.7056707 45.8225971,48.8768582 46.3438356,49.6041096 L49.8630137,54.3986301 L57.7260274,42.8917808 C58.0566204,42.4155898 58.6161458,42.1519405 59.1938358,42.200147 C59.7715258,42.2483534 60.2796156,42.601092 60.5267125,43.1254894 C60.7738095,43.6498869 60.7223738,44.2662748 60.3917808,44.7424658 L51.2342466,58.1671233 C50.9486446,58.6187725 50.4450277,58.8851785 49.9109589,58.8671233 L49.8630137,58.8479452 Z" id="Shape" stroke-width="1.66" fill-rule="nonzero"></path>
                <path d="M49.8630137,69.8753425 C49.7067166,69.8718444 49.5517229,69.8460121 49.4027397,69.7986301 C29.5821918,60.5068493 29.8890411,39.1136986 29.8890411,38.9315068 C29.927015,38.4026319 30.3242925,37.9695994 30.8479452,37.8863014 C30.9726027,37.8863014 43.3136986,36.0452055 49.0671233,30.3109589 C49.2661174,30.1028681 49.5415277,29.985168 49.8294521,29.985168 C50.1173764,29.985168 50.3927867,30.1028681 50.5917808,30.3109589 C56.3452055,36.0643836 68.7342466,37.8863014 68.8780822,37.8863014 C69.3999798,37.9728526 69.7956204,38.4041008 69.8369863,38.9315068 C69.8369863,39.1328767 70.1246575,60.5068493 50.3424658,69.7986301 C50.1865439,69.8444106 50.0254357,69.8701879 49.8630137,69.8753425 Z M32.0945205,39.8808219 C32.2383562,43.8315068 34.0123288,59.9506849 49.8534247,67.6027397 C65.7041096,59.9315068 67.4684932,43.8315068 67.6410959,39.8808219 C64.6205479,39.3150685 55.3575342,37.3972603 49.8630137,32.6027397 C44.3684932,37.3972603 35.0863014,39.3150685 32.0945205,39.8808219 Z" id="Shape" stroke-width="1.66" fill-rule="nonzero"></path>
                <path d="M55.7123288,30.1287671 L55.7123288,16.8383562 C55.7093119,16.585191 55.6933091,16.3323473 55.6643836,16.0808219 C55.6643836,16.0328767 55.6643836,16.0328767 55.6643836,15.9849315 C55.6503764,15.8959818 55.6503764,15.805388 55.6643836,15.7164384 C55.6643836,15.7164384 55.5876712,15.639726 55.5876712,15.5726027 C55.5154221,15.3080414 55.3915873,15.0603718 55.2232877,14.8438356 L46.6219178,2.29178082 C45.9818154,1.36386362 44.9299772,0.805745358 43.8027397,0.795890411 L12.8205479,0.795890411 C11.7005903,0.803655011 10.6565421,1.36335097 10.030137,2.29178082 L1.4,14.8438356 C1.21696258,15.0763728 1.09204341,15.3492226 1.03561644,15.639726 C0.987671233,15.639726 0.987671233,15.639726 0.987671233,15.639726 C0.987671233,15.7835616 0.920547945,15.9082192 0.87260274,16.0520548 C0.845337422,16.258795 0.829332068,16.4668646 0.824657534,16.6753425 C0.824657534,16.7520548 0.824657534,16.9054795 0.824657534,16.9534247 L0.824657534,52.3849315 C0.819518672,53.2867799 1.1755042,54.1531785 1.81321766,54.7908919 C2.45093112,55.4286054 3.3173297,55.7845909 4.21917808,55.7794521 L30.6849315,55.7794521 C30.3493151,55.0794521 30.0136986,54.3315068 29.7260274,53.6315068 L4.19041096,53.6315068 C3.50470592,53.6161109 2.95397675,53.0611453 2.94383562,52.3753425 L2.94383562,17.1643836 L19.5424658,17.1643836 L19.5424658,25.1712329 C19.5456184,25.5207892 19.7036684,25.8509381 19.9739726,26.0726027 C20.1556981,26.2029907 20.3735979,26.2733891 20.5972603,26.2739726 C20.6991591,26.2865121 20.8022108,26.2865121 20.9041096,26.2739726 L24.6821918,25.0657534 L27.8849315,26.2164384 C28.1239686,26.3176796 28.3938396,26.3176796 28.6328767,26.2164384 L31.8356164,25.0657534 L35.6136986,26.2739726 C35.9417434,26.3852186 36.3039398,26.3200233 36.5726027,26.1013699 C36.8485137,25.884149 37.0079344,25.5511369 37.0041096,25.2 L37.0041096,17.1643836 L53.5931507,17.1643836 L53.5931507,28.6136986 C54.2531265,29.1806809 54.9623252,29.6877098 55.7123288,30.1287671 Z M32.4493151,2.9630137 L34.6739726,14.9972603 L21.9013699,14.9972603 L24.3082192,2.9630137 L32.4493151,2.9630137 Z M19.7054795,14.9972603 L3.90273973,14.9972603 L11.8136986,3.49041096 C12.0318281,3.13991181 12.4173389,2.92897196 12.830137,2.93424658 L22.0547945,2.93414993 L19.7054795,14.9972603 Z M34.8465753,23.7232877 L32.1712329,22.8986301 C31.937664,22.8217916 31.6856236,22.8217916 31.4520548,22.8986301 L28.2972603,24.0493151 L25.1136986,22.8986301 C24.8870387,22.819709 24.6403585,22.819709 24.4136986,22.8986301 L21.6616438,23.7232877 L21.6616438,17.1643836 L34.8465753,17.1643836 L34.8465753,23.7232877 Z M36.869863,14.9972603 L34.6452055,2.9630137 L43.8027397,2.9630137 C44.2232612,2.94687467 44.6195554,3.15969931 44.8383562,3.51917808 L52.6726027,15.0260274 L36.869863,14.9972603 Z" id="Shape" stroke-width="1.66" fill-rule="nonzero"></path>
            </g>
        </g>
    </g>
</svg>